<?xml version="1.0" standalone="no"?>
<!DOCTYPE svg PUBLIC "-//W3C//DTD SVG 20010904//EN"
 "http://www.w3.org/TR/2001/REC-SVG-20010904/DTD/svg10.dtd">
<svg version="1.0" xmlns="http://www.w3.org/2000/svg"
 width="276.000000pt" height="276.000000pt" viewBox="0 0 276.000000 276.000000"
 preserveAspectRatio="xMidYMid meet">
<metadata>
Created by potrace 1.11, written by Peter Selinger 2001-2013
</metadata>
<g transform="translate(0.000000,276.000000) scale(0.100000,-0.100000)"
fill="#000000" stroke="none">
<path d="M494 2644 c-6 -54 0 -335 12 -519 6 -87 5 -92 -29 -165 -36 -79 -76
-198 -99 -290 -8 -35 -13 -118 -13 -230 l0 -175 -90 12 c-112 15 -175 16 -175
4 0 -10 14 -12 183 -32 55 -7 100 -17 102 -23 2 -6 16 -45 32 -86 15 -41 28
-79 28 -85 0 -5 -29 -12 -64 -15 -42 -3 -66 -10 -69 -19 -4 -11 10 -12 79 -7
l84 7 27 -43 c15 -24 43 -61 61 -83 l34 -39 -68 -48 c-63 -45 -84 -68 -59 -68
5 0 38 20 73 45 36 25 68 45 72 45 4 0 28 -17 54 -39 45 -37 161 -116 183
-123 6 -2 -6 -59 -31 -148 -46 -160 -87 -349 -97 -452 l-7 -68 622 0 c620 0
621 0 621 21 0 40 -22 167 -60 339 -21 96 -40 192 -43 212 l-6 38 78 40 c43
23 117 72 164 109 l85 69 66 -44 c71 -48 76 -50 76 -31 0 6 -27 30 -60 52 -33
22 -58 45 -56 50 2 6 30 45 62 88 l58 78 74 -7 c62 -6 74 -5 70 7 -3 10 -24
15 -66 17 -34 2 -62 7 -62 13 0 5 11 31 24 57 13 26 29 66 36 90 7 23 16 42
19 42 3 0 60 7 126 15 66 8 126 15 133 15 6 0 12 5 12 11 0 12 -61 10 -211 -7
l-56 -7 13 69 c37 194 5 410 -91 599 l-40 80 13 135 c15 162 12 464 -5 481
-21 21 -263 -112 -385 -213 l-47 -39 -63 26 c-240 98 -525 107 -765 24 -31
-10 -59 -19 -63 -19 -4 0 -36 22 -72 49 -170 129 -356 241 -400 241 -13 0 -18
-13 -24 -56z m150 -74 c68 -26 160 -85 219 -141 25 -24 52 -43 61 -41 25 5 19
-26 -8 -43 -14 -9 -55 -21 -92 -26 -90 -13 -140 -42 -187 -109 -21 -30 -43
-55 -50 -55 -8 0 -14 43 -18 145 -4 80 -10 178 -14 218 -7 68 -6 72 14 72 11
0 45 -9 75 -20z m1623 -97 c-3 -32 -9 -124 -13 -205 -5 -104 -11 -148 -19
-148 -7 0 -27 22 -45 48 -46 67 -85 91 -169 104 -71 10 -127 40 -115 59 3 6
12 8 19 5 7 -2 32 16 56 40 53 54 120 98 197 130 90 37 96 35 89 -33z m-408
-549 c69 -20 141 -90 164 -159 36 -105 13 -210 -64 -287 -145 -145 -374 -70
-420 138 -29 130 50 271 174 310 56 17 84 17 146 -2z m-754 -25 c148 -70 193
-278 89 -415 -80 -104 -238 -123 -346 -41 -154 118 -122 385 56 463 49 21 149
18 201 -7z"/>
<path d="M1720 1848 c-52 -36 -75 -90 -75 -178 0 -125 57 -200 153 -200 39 0
50 5 87 43 51 50 70 107 62 184 -14 138 -131 216 -227 151z m92 -94 c17 -36 0
-59 -43 -59 -28 0 -35 4 -37 23 -4 28 23 62 50 62 10 0 24 -11 30 -26z m28
-84 c24 -24 24 -30 6 -75 -13 -31 -19 -35 -50 -35 -22 0 -43 7 -56 20 -16 16
-18 24 -8 51 7 20 22 36 42 45 41 17 43 17 66 -6z"/>
<path d="M944 1841 c-66 -41 -100 -115 -92 -206 9 -105 72 -178 153 -178 83 0
145 74 153 184 5 66 -10 117 -45 160 -50 59 -113 74 -169 40z m74 -83 c7 -7
12 -25 12 -40 0 -21 -6 -31 -26 -38 -54 -21 -85 29 -44 70 23 23 41 25 58 8z
m42 -109 c16 -28 3 -77 -25 -95 -21 -13 -27 -13 -59 0 -28 12 -36 21 -36 41 0
59 95 102 120 54z"/>
<path d="M2265 601 c-155 -39 -222 -202 -146 -356 57 -116 140 -165 189 -112
34 36 28 69 -22 127 -24 28 -46 64 -50 80 -8 42 12 88 46 106 46 24 94 1 125
-60 33 -64 10 -255 -44 -359 l-14 -28 88 3 88 3 24 70 c20 57 24 91 25 185 1
104 -2 120 -25 170 -34 73 -67 111 -126 142 -54 29 -113 40 -158 29z"/>
</g>
</svg>
