<svg xmlns="http://www.w3.org/2000/svg" viewBox="0 0 432 432">
  <style type="text/css">
	.st10{fill:#8EC045;}
	.st11{fill:#066938;}

  </style>
        <path class="st10" d="M313.8 132.6c-2 1.6-2.8 4-2.9 6.6 -1.7-2.5-4-4.6-7.1-4.5 -2.1 0-4.2 1.1-4.8 3.3 -0.5 2 0.4 3.8 1.7 5.2 -2.4 0.4-4.4 2-5.2 4.4 -0.6 1.9 0 3.7 1.8 4.7 1.9 1.1 4.3 1.4 6.6 1.1 -1.2 1.5-2 3.2-2.1 5.2 -0.1 2.4 1.2 5 3.8 5.4 2.1 0.3 3.8-0.8 5.1-2.3 0.7 2.3 2.4 4.2 4.9 4.7 2 0.4 3.7-0.4 4.5-2.3 1.6-3.8 0.1-8.7-2.3-12.3 2.9 1.6 5.4 4 7.5 6.5 1.8 2 4.4 4.9 4.7 7.8 -0.3 0.6-0.2 1.3 0.6 1.6 2.4 0.9 1.4-2.7 1-3.5 -2.7-5.8-7-10.6-12.3-14.1 4.2-0.9 8.5-3.4 10.3-7 0.8-1.8 0.6-3.6-1-4.9 -2-1.7-4.8-1.7-7.1-0.6 0.2-1.8-0.1-3.6-1.5-4.9C318.3 130.7 315.7 131.1 313.8 132.6z"/>
        <path class="st10" d="M130.4 157.4c-0.8-2.5-2.8-4-5.1-5.1 3-0.7 5.7-2 6.8-5 0.8-2 0.5-4.3-1.4-5.6 -1.7-1.2-3.7-1-5.5-0.3 0.4-2.4-0.2-4.9-2.2-6.5 -1.6-1.3-3.5-1.3-5-0.1 -1.8 1.4-2.9 3.5-3.5 5.8 -1-1.7-2.3-3-4.1-3.8 -2.2-1-5.1-0.7-6.4 1.6 -1.1 1.8-0.7 3.8 0.3 5.6 -2.4-0.2-4.8 0.8-6.1 2.8 -1.1 1.7-1 3.6 0.5 5.1 3 2.8 8.1 3.3 12.3 2.3 -2.6 2.1-5.7 3.5-8.7 4.7 -2.5 0.9-6.2 2.3-9 1.6 -0.4-0.5-1.1-0.7-1.7 0 -1.7 1.9 2 2.3 2.9 2.2 6.4-0.4 12.4-2.7 17.6-6.3 -0.7 4.2 0 9.2 2.8 12.1 1.3 1.4 3.2 1.9 4.9 0.9 2.3-1.3 3.3-3.9 3.1-6.4 1.6 0.9 3.4 1.2 5.1 0.4C130.5 162.2 131.1 159.6 130.4 157.4z"/>
        <path class="st10" d="M230.3 88.2c-0.8-2.5-2.8-4-5.1-5.1 3-0.7 5.7-2 6.8-5 0.8-2 0.5-4.3-1.4-5.6 -1.7-1.2-3.7-1-5.5-0.3 0.4-2.4-0.2-4.9-2.2-6.5 -1.6-1.3-3.5-1.3-5-0.1 -1.8 1.4-2.9 3.5-3.5 5.8 -1-1.7-2.3-3-4.1-3.8 -2.2-1-5.1-0.7-6.4 1.6 -1.1 1.8-0.7 3.8 0.3 5.6 -2.4-0.2-4.8 0.8-6.1 2.8 -1.1 1.7-1 3.6 0.5 5.1 3 2.8 8.1 3.3 12.3 2.3 -2.6 2.1-5.7 3.5-8.7 4.7 -2.5 0.9-6.2 2.3-9 1.6 -0.4-0.5-1.1-0.7-1.7 0 -1.7 1.9 2 2.3 2.9 2.2 6.4-0.4 12.4-2.7 17.6-6.3 -0.7 4.2 0 9.2 2.8 12.1 1.3 1.4 3.2 1.9 4.9 0.9 2.3-1.3 3.3-3.9 3.1-6.4 1.6 0.9 3.4 1.2 5.1 0.4C230.4 93.1 231 90.5 230.3 88.2z"/>
        <path class="st10" d="M122 285.6c-0.8-2.5-2.8-4-5.1-5.1 3-0.7 5.7-2 6.8-5 0.8-2 0.5-4.3-1.4-5.6 -1.7-1.2-3.7-1-5.5-0.3 0.4-2.4-0.2-4.9-2.2-6.5 -1.6-1.3-3.5-1.3-5-0.1 -1.8 1.4-2.9 3.5-3.5 5.8 -1-1.7-2.3-3-4.1-3.8 -2.2-1-5.1-0.7-6.4 1.6 -1.1 1.8-0.7 3.8 0.3 5.6 -2.4-0.2-4.8 0.8-6.1 2.8 -1.1 1.7-1 3.6 0.5 5.1 3 2.8 8.1 3.3 12.3 2.3 -2.6 2.1-5.7 3.5-8.7 4.7 -2.5 0.9-6.2 2.3-9 1.6 -0.4-0.5-1.1-0.7-1.7 0 -1.7 1.9 2 2.3 2.9 2.2 6.4-0.4 12.4-2.7 17.6-6.3 -0.7 4.2 0 9.2 2.8 12.1 1.3 1.4 3.2 1.9 4.9 0.9 2.3-1.3 3.3-3.9 3.1-6.4 1.6 0.9 3.4 1.2 5.1 0.4C122.1 290.5 122.7 287.9 122 285.6z"/>
        <path class="st10" d="M347 297.2c-0.8-2.5-2.8-4-5.1-5.1 3-0.7 5.7-2 6.8-5 0.8-2 0.5-4.3-1.4-5.6 -1.7-1.2-3.7-1-5.5-0.3 0.4-2.4-0.2-4.9-2.2-6.5 -1.6-1.3-3.5-1.3-5-0.1 -1.8 1.4-2.9 3.5-3.5 5.8 -1-1.7-2.3-3-4.1-3.8 -2.2-1-5.1-0.7-6.4 1.6 -1.1 1.8-0.7 3.8 0.3 5.6 -2.4-0.2-4.8 0.8-6.1 2.8 -1.1 1.7-1 3.6 0.5 5.1 3 2.8 8.1 3.3 12.3 2.3 -2.6 2.1-5.7 3.5-8.7 4.7 -2.5 0.9-6.2 2.3-9 1.6 -0.4-0.5-1.1-0.7-1.7 0 -1.7 1.9 2 2.3 2.9 2.2 6.4-0.4 12.4-2.7 17.6-6.3 -0.7 4.2 0 9.2 2.8 12.1 1.3 1.4 3.2 1.9 4.9 0.9 2.3-1.3 3.3-3.9 3.1-6.4 1.6 0.9 3.4 1.2 5.1 0.4C347.1 302 347.8 299.4 347 297.2z"/>
        <path class="st10" d="M226.4 354.8c-0.8-2.5-2.8-4-5.1-5.1 3-0.7 5.7-2 6.8-5 0.8-2 0.5-4.3-1.4-5.6 -1.7-1.2-3.7-1-5.5-0.3 0.4-2.4-0.2-4.9-2.2-6.5 -1.6-1.3-3.5-1.3-5-0.1 -1.8 1.4-2.9 3.5-3.5 5.8 -1-1.7-2.3-3-4.1-3.8 -2.2-1-5.1-0.7-6.4 1.6 -1.1 1.8-0.7 3.8 0.3 5.6 -2.4-0.2-4.8 0.8-6.1 2.8 -1.1 1.7-1 3.6 0.5 5.1 3 2.8 8.1 3.3 12.3 2.3 -2.6 2.1-5.7 3.5-8.7 4.7 -2.5 0.9-6.2 2.3-9 1.6 -0.4-0.5-1.1-0.7-1.7 0 -1.7 1.9 2 2.3 2.9 2.2 6.4-0.4 12.4-2.7 17.6-6.3 -0.7 4.2 0 9.2 2.8 12.1 1.3 1.4 3.2 1.9 4.9 0.9 2.3-1.3 3.3-3.9 3.1-6.4 1.6 0.9 3.4 1.2 5.1 0.4C226.6 359.6 227.2 357 226.4 354.8z"/>
        <path class="st11" d="M111.6 199.8c-2.6 0-4.6 1.5-6.4 3.4 0.2-3.1-0.3-6-2.8-8 -1.7-1.3-4-1.7-5.8-0.3 -1.6 1.3-2.1 3.3-1.8 5.2 -2.1-1.1-4.7-1.2-6.8 0.2 -1.7 1.1-2.2 2.9-1.5 4.8 0.8 2.1 2.5 3.8 4.5 5 -1.9 0.5-3.6 1.3-4.8 2.8 -1.6 1.8-2.1 4.7-0.3 6.5 1.4 1.5 3.5 1.7 5.4 1.3 -0.8 2.2-0.6 4.8 0.9 6.7 1.3 1.6 3.2 2 5 0.9 3.5-2 5.5-6.8 5.8-11.1 1.3 3 1.7 6.5 1.9 9.7 0.2 2.7 0.4 6.6-1.1 9.1 -0.6 0.2-1 0.9-0.5 1.6 1.3 2.1 2.7-1.3 2.9-2.2 1.5-6.2 1.1-12.7-1-18.7 3.9 1.9 8.8 2.6 12.4 0.8 1.8-0.9 2.7-2.5 2.3-4.5 -0.6-2.6-2.8-4.3-5.2-4.8 1.3-1.3 2.2-2.9 1.9-4.8C116.3 201.1 114 199.7 111.6 199.8z"/>
        <path class="st11" d="M328.4 210.9c-2 1.6-2.8 4-2.9 6.6 -1.7-2.5-4-4.6-7.1-4.5 -2.1 0-4.2 1.1-4.8 3.3 -0.5 2 0.4 3.8 1.7 5.2 -2.4 0.4-4.4 2-5.2 4.4 -0.6 1.9 0 3.7 1.8 4.7 1.9 1.1 4.3 1.4 6.6 1.1 -1.2 1.5-2 3.2-2.1 5.2 -0.1 2.4 1.2 5 3.8 5.4 2.1 0.3 3.8-0.8 5.1-2.3 0.7 2.3 2.4 4.2 4.9 4.7 2 0.4 3.7-0.4 4.5-2.3 1.6-3.8 0.1-8.7-2.3-12.3 2.9 1.6 5.4 4 7.5 6.5 1.8 2 4.4 4.9 4.7 7.8 -0.3 0.6-0.2 1.3 0.6 1.6 2.4 0.9 1.4-2.7 1-3.5 -2.7-5.8-7-10.6-12.3-14.1 4.2-0.9 8.5-3.4 10.3-7 0.8-1.8 0.6-3.6-1-4.9 -2-1.7-4.8-1.7-7.1-0.6 0.2-1.8-0.1-3.6-1.5-4.9C332.9 209.1 330.3 209.4 328.4 210.9z"/>
        <path class="st11" d="M308.3 340.5c-0.5-1.7-1.9-2.7-3.4-3.4 2-0.5 3.8-1.4 4.6-3.3 0.5-1.3 0.3-2.9-0.9-3.8 -1.1-0.8-2.5-0.7-3.7-0.2 0.3-1.6-0.2-3.3-1.5-4.3 -1-0.9-2.3-0.9-3.4 0 -1.2 0.9-1.9 2.3-2.3 3.9 -0.7-1.1-1.5-2-2.7-2.6 -1.5-0.7-3.4-0.4-4.3 1.1 -0.7 1.2-0.4 2.6 0.2 3.7 -1.6-0.1-3.2 0.5-4.1 1.9 -0.8 1.2-0.6 2.4 0.4 3.4 2 1.9 5.4 2.2 8.3 1.6 -1.7 1.4-3.8 2.4-5.9 3.1 -1.7 0.6-4.2 1.6-6 1.1 -0.3-0.3-0.7-0.5-1.1 0 -1.1 1.3 1.3 1.5 2 1.5 4.3-0.3 8.4-1.8 11.8-4.3 -0.5 2.9 0 6.2 1.9 8.1 0.9 1 2.1 1.3 3.3 0.6 1.5-0.9 2.2-2.6 2.1-4.3 1.1 0.6 2.3 0.8 3.4 0.3C308.4 343.8 308.8 342.1 308.3 340.5z"/>
        <path class="st11" d="M126.8 310.2c-1.6 0.8-2.4 2.2-2.9 3.9 -0.8-1.9-1.9-3.6-4-4 -1.4-0.3-2.9 0.1-3.6 1.5 -0.6 1.2-0.3 2.6 0.4 3.7 -1.6 0-3.2 0.6-4.1 2.1 -0.7 1.2-0.5 2.4 0.5 3.4 1.1 1 2.6 1.5 4.2 1.7 -1 0.8-1.8 1.8-2.1 3.1 -0.4 1.6 0.1 3.4 1.7 4.1 1.3 0.5 2.6 0 3.7-0.8 0.1 1.6 1 3.1 2.5 3.8 1.3 0.6 2.5 0.3 3.3-0.9 1.6-2.3 1.3-5.7 0.3-8.4 1.6 1.5 2.9 3.4 4 5.3 0.9 1.6 2.2 3.9 2 5.8 -0.3 0.3-0.3 0.8 0.2 1.1 1.4 0.9 1.3-1.6 1.2-2.2 -0.9-4.2-3-8-6-11 2.9 0 6.1-1 7.7-3.1 0.8-1 0.9-2.3 0.1-3.4 -1.1-1.4-2.9-1.8-4.6-1.4 0.4-1.1 0.5-2.4-0.2-3.4C130.1 309.6 128.3 309.5 126.8 310.2z"/>
        <path class="st11" d="M138.4 82.8c-1.6 0.8-2.4 2.2-2.9 3.9 -0.8-1.9-1.9-3.6-4-4 -1.4-0.3-2.9 0.1-3.6 1.5 -0.6 1.2-0.3 2.6 0.4 3.7 -1.6 0-3.2 0.6-4.1 2.1 -0.7 1.2-0.5 2.4 0.5 3.4 1.1 1 2.6 1.5 4.2 1.7 -1 0.8-1.8 1.8-2.1 3.1 -0.4 1.6 0.1 3.4 1.7 4.1 1.3 0.5 2.6 0 3.7-0.8 0.1 1.6 1 3.1 2.5 3.8 1.3 0.6 2.5 0.3 3.3-0.9 1.6-2.3 1.3-5.7 0.3-8.4 1.6 1.5 2.9 3.4 4 5.3 0.9 1.6 2.2 3.9 2 5.8 -0.3 0.3-0.3 0.8 0.2 1.1 1.4 0.9 1.3-1.6 1.2-2.2 -0.9-4.2-3-8-6-11 2.9 0 6.1-1 7.7-3.1 0.8-1 0.9-2.3 0.1-3.4 -1.1-1.4-2.9-1.8-4.6-1.4 0.4-1.1 0.5-2.4-0.2-3.4C141.6 82.3 139.8 82.1 138.4 82.8z"/>
        <path class="st11" d="M293 87.8c-1.1-1.3-2.7-1.8-4.5-1.9 1.7-1.2 3-2.7 2.9-4.8 0-1.4-0.8-2.8-2.3-3.2 -1.4-0.3-2.6 0.3-3.5 1.3 -0.3-1.6-1.4-3-3-3.4 -1.3-0.4-2.5 0.1-3.1 1.3 -0.7 1.3-0.9 2.9-0.7 4.5 -1-0.8-2.2-1.3-3.5-1.3 -1.6 0-3.3 0.9-3.5 2.6 -0.2 1.4 0.6 2.6 1.6 3.4 -1.5 0.5-2.8 1.7-3.1 3.3 -0.3 1.4 0.3 2.5 1.6 3 2.6 1 5.9 0 8.2-1.7 -1 2-2.6 3.7-4.2 5.1 -1.3 1.2-3.2 3-5.2 3.3 -0.4-0.2-0.9-0.1-1 0.4 -0.5 1.6 1.8 0.9 2.4 0.6 3.9-1.9 7-4.9 9.3-8.5 0.6 2.8 2.4 5.7 4.9 6.8 1.2 0.5 2.5 0.3 3.3-0.7 1.1-1.4 1-3.3 0.3-4.8 1.2 0.1 2.4-0.1 3.3-1.1C294.3 90.8 294.1 89 293 87.8z"/>
</svg>