<svg xmlns="http://www.w3.org/2000/svg" viewBox="0 0 432 432">
  <style type="text/css">
	.st4{fill:#FFFFFF;}
	.st9{fill:#1B1B1B;}
	.st12{fill:#E5AD30;}
	.st13{fill:#4E4D4D;}

  </style>
        <path class="st9" d="M295.2 255.7c-2.3-11.5-15.7-20.7-26.3-12.6 -10.8 8.3-6.7 22.7 2.8 29.9 2.2 1.7 5.7 0.3 7-1.8 1.6-2.6 0.3-5.3-1.8-7 -2.5-2-4.6-5.3-4.2-8.6 0.4-2.8 2.7-5.6 5.7-5.3 8.5 1 7.5 13.5 6.2 19.3 -3.2 14.5-14.1 27.1-29.2 27.6 0.1-3.9-0.1-7.6-0.3-10.6 -2-25.1-7.3-34.9-8.1-46.8 36.6-15.8 52.3-59.5 30.4-94.2 0.8-5.5 4.4-44.3-0.3-42.4 -10.4 4.3-19.9 10.1-28.3 17.5 -33.1-15.4-58-1.7-60.3-2.1 -0.1 0-32.4-25.2-32.9-18.4 -2.3 30.4 2.9 40.1 0.6 44.6 -21.6 43-6.2 75.5 24 91.7 -5.8 17.8-10.4 36.6-10.3 55.5 0.1 13.1 2.6 22.5 6.2 28.3 -4.4 1.9-3.8 9.9 2.1 9.9 1.3 0 2.3-0.4 3.1-1 0.6 1.8 2.2 3.3 4.7 3.3 2.7 0 4.3-1.7 4.8-3.7 0.5 0.2 1.1 0.3 1.8 0.3 5.2 0 6.3-6.4 3.3-9.1 0.1-0.3 0.3-0.6 0.4-0.9 7.3 1.5 15.1 1.5 22.4 0.7 3-0.3 5.9-1 8.5-2.2 0.6 1.6 1.2 3.1 2 4.5 -2.1 3-0.8 8.3 4 8.3 1.1 0 2-0.3 2.7-0.7 0.2 0.1 0.4 0.2 0.6 0.3 0.6 1.8 2.2 3.3 4.7 3.3 2.7 0 4.3-1.7 4.8-3.7 0.3 0.2 0.6 0.3 1 0.4 0.5 0.1 1 0.2 1.4 0.3 1.4 0.3 2.7 0.2 4-0.5 1.1-0.6 2.1-1.8 2.4-3.1 0.3-1.3 0.2-2.8-0.5-4 -0.5-0.8-1.2-1.5-2.1-2 1.5-3.8 2.4-8.4 2.9-13.1C279.9 307.5 300.1 280.1 295.2 255.7z"/>
          <path class="st12" d="M183.4 120.3c-0.1 0.1-0.3 0.2-0.4 0.4 0-0.3-0.1-0.6-0.3-0.9 -6-6.5-13.4-11.1-21.9-13.5 -0.7-0.2-1.7 0.4-1.6 1.2 1.1 9.1 1.5 18.2 1.3 27.4 0 1.3 1.8 1.7 2.4 0.6 2.8-5 5.9-9.3 11.9-10.4 3.5-0.6 7.9-0.2 10.5-3C186.3 120.9 184.5 119.1 183.4 120.3z"/>
          <path class="st12" d="M252.4 123.7c0.1 0.1 0.2 0.2 0.4 0.3 0-0.3 0.1-0.6 0.3-0.8 5.6-6.1 12.6-10.4 20.5-12.7 0.7-0.2 1.6 0.4 1.5 1.2 -1 8.5-1.4 17.1-1.2 25.6 0 1.2-1.7 1.6-2.2 0.6 -2.7-4.7-5.5-8.7-11.1-9.7 -3.3-0.6-7.4-0.2-9.8-2.8C249.6 124.2 251.3 122.5 252.4 123.7z"/>
          <path class="st12" d="M189.5 151.4c-9.5 0-17.1 8-17.1 18s7.7 18 17.1 18c9.5 0 17.1-8 17.1-18S198.9 151.4 189.5 151.4zM189.9 183.1c-5.8 0-10.6-6.1-10.6-13.7 0-7.6 4.7-13.7 10.6-13.7s10.6 6.1 10.6 13.7C200.5 176.9 195.7 183.1 189.9 183.1z"/>
            <path class="st4" d="M188 168.1c1.6 0 3.5-0.4 3.5-2.5s-0.7-3.7-2.3-3.7 -3.5 1.7-3.5 3.7S186.4 168.1 188 168.1z"/>
            <path class="st4" d="M192.2 168.7c-2.1-0.8-5.4 0.5-6.4 3.2 -1 2.7-0.3 3.6 1.8 4.4s4.8 1.1 5.8-1.6C194.4 172 194.3 169.4 192.2 168.7z"/>
            <path class="st12" d="M242.5 150.5c-9.5 0-17.1 8-17.1 18s7.7 18 17.1 18c9.5 0 17.1-8 17.1-18S252 150.5 242.5 150.5zM243 182.2c-5.8 0-10.6-6.1-10.6-13.7 0-7.6 4.7-13.7 10.6-13.7s10.6 6.1 10.6 13.7C253.5 176.1 248.8 182.2 243 182.2z"/>
              <path class="st4" d="M241.1 167.3c1.6 0 3.5-0.4 3.5-2.5 0-2.1-0.7-3.7-2.3-3.7 -1.6 0-3.5 1.7-3.5 3.7C238.8 166.8 239.5 167.3 241.1 167.3z"/>
              <path class="st4" d="M245.3 167.8c-2.1-0.8-5.4 0.5-6.4 3.2 -1 2.7-0.3 3.6 1.8 4.4s4.8 1.1 5.8-1.6C247.5 171.1 247.4 168.6 245.3 167.8z"/>
        <path class="st13" d="M236.8 200.1c-3.5-3.6-8.4-4.3-13.1-3.5 0.1-0.2 0.1-0.5 0.1-0.7 0-3.3-4.8-2.6-8.6-2.6s-9.4-0.7-9.4 2.6c0 0.4 0.1 0.9 0.3 1.3 -4.1-0.5-8.3 0.3-11.4 3.4 -3 3.2-3.8 8.1-1.7 12 2.3 4.2 7 5.6 11.5 5.6 3.3 9.4 18.2 9.7 21.8 0.3 0-0.1 0.1-0.2 0.1-0.4 4.9 0.3 10.2-1 12.5-5.7C241.1 208.3 240 203.3 236.8 200.1zM195.1 210.9c-1.4-3.1-0.5-6.7 2-8.9 3.3-2.9 7.9-2.7 11.9-1.6 2 1.5 4.3 2.8 5.6 3.1 0.3 2.7 0.6 6-0.8 8.4 -1.5 2.6-4.8 3.4-7.6 3.7C202.1 216 197 215.1 195.1 210.9zM207.3 218C207.4 218 207.4 218 207.3 218c3.2-0.4 6.6-1.5 8.4-4.3 0.3-0.4 0.5-0.8 0.7-1.2 1.3 2.6 3.7 4.5 7.6 5.3 0 0 0 0 0 0C221.4 224.8 210.2 224.4 207.3 218zM237 210.6c-1.6 4.3-6.4 5.3-10.5 5 -2.9-0.2-6.4-0.9-8-3.7 -1.5-2.6-1.1-5.9-0.8-8.7 0-0.2 0-0.3 0-0.4 1.4-0.7 3-1.9 4.1-3.2 4.2-1.2 8.8-1.4 12.3 1.5C236.9 203.4 238.3 207.2 237 210.6z"/>
            <path class="st13" d="M302.6 193.6c-16.9 1.3-33.7 4.3-50 8.9 -1.4 0.4-0.8 2.6 0.6 2.2 16.1-4.6 32.7-7.6 49.4-8.9C304 195.8 304.1 193.5 302.6 193.6z"/>
            <path class="st13" d="M288 211c-11.3-1-22.5-1.7-33.8-2.2 -1.5-0.1-1.5 2.2 0 2.3 11.3 0.5 22.6 1.2 33.8 2.2C289.5 213.4 289.5 211.1 288 211z"/>
            <path class="st13" d="M278.5 229.3c-6.6-5-13.6-9.3-21.1-12.8 -1.3-0.6-2.5 1.4-1.2 2 7.5 3.5 14.5 7.8 21.1 12.8C278.5 232.2 279.6 230.2 278.5 229.3z"/>
            <path class="st13" d="M129.4 193.6c16.9 1.3 33.7 4.3 50 8.9 1.4 0.4 0.8 2.6-0.6 2.2 -16.1-4.6-32.7-7.6-49.4-8.9C128 195.8 127.9 193.5 129.4 193.6z"/>
            <path class="st13" d="M144 211c11.3-1 22.5-1.7 33.8-2.2 1.5-0.1 1.5 2.2 0 2.3 -11.3 0.5-22.6 1.2-33.8 2.2C142.5 213.4 142.5 211.1 144 211z"/>
            <path class="st13" d="M153.5 229.3c6.6-5 13.6-9.3 21.1-12.8 1.3-0.6 2.5 1.4 1.2 2 -7.5 3.5-14.5 7.8-21.1 12.8C153.5 232.2 152.4 230.2 153.5 229.3z"/>
</svg>