<?xml version="1.0" encoding="utf-8"?>
<!-- Generator: Adobe Illustrator 21.1.0, SVG Export Plug-In . SVG Version: 6.00 Build 0)  -->
<svg version="1.1" id="Calque_1" xmlns="http://www.w3.org/2000/svg" xmlns:xlink="http://www.w3.org/1999/xlink" x="0px" y="0px"
	 viewBox="0 0 432 432" style="enable-background:new 0 0 432 432;" xml:space="preserve">
<style type="text/css">
	.st0{fill:#3B4F20;}
	.st1{fill:#8CB225;}
	.st2{fill:#020203;}
	.st3{fill:#4A5C2D;}
	.st4{fill:#FFFFFF;}
	.st5{fill:#E2CF1B;}
	.st6{fill:#718A2A;}
	.st7{fill:#DFBB20;}
	.st8{fill:#EAC839;}
	.st9{fill:#1B1B1B;}
	.st10{fill:#8EC045;}
	.st11{fill:#066938;}
	.st12{fill:#E5AD30;}
	.st13{fill:#4E4D4D;}
	.st14{fill:#8BB226;}
	.st15{fill:#CD1A25;}
	.st16{fill:#4B6426;}
	.st17{fill:#7D9E3C;}
	.st18{fill:#3C4F20;}
	.st19{fill:#384A1F;}
	.st20{fill:#E7E6E6;}
	.st21{fill:#D4A624;}
	.st22{fill:#F7F0E3;}
	.st23{fill:#D2A206;}
	.st24{fill:#CE9835;}
	.st25{fill:#E5D9C2;}
	.st26{fill:#E2AE42;}
	.st27{fill:#EEDBBE;}
	.st28{fill:#F9EA31;}
	.st29{fill:#EB6518;}
	.st30{fill:#0A7132;}
	.st31{fill:#FFE109;}
	.st32{fill:#D76013;}
	.st33{fill:#BBA763;}
	.st34{fill:#7FA22A;}
	.st35{fill:#5B321B;}
	.st36{fill:#4A2615;}
	.st37{fill:#D6AD08;}
	.st38{fill:#F7BBBD;}
	.st39{fill:#D76324;}
	.st40{fill:#607829;}
	.st41{fill:#715C3B;}
	.st42{fill:#644F34;}
	.st43{fill:#89704C;}
	.st44{fill:#B2A38F;}
	.st45{fill:#A59076;}
	.st46{fill:#FFDE0D;}
	.st47{fill:#34AA4A;}
	.st48{fill:#75388D;}
	.st49{fill:#BBBBBB;}
	.st50{fill:#A9A9AA;}
	.st51{fill:#06993B;}
	.st52{fill:#CDCCCC;}
	.st53{fill:#4D2563;}
	.st54{fill:#E3B320;}
	.st55{fill:#0B9541;}
	.st56{fill:#264D23;}
	.st57{fill:#FDC834;}
	.st58{fill:#8C633A;}
	.st59{fill:#B5A059;}
	.st60{fill:#F2F2F2;}
	.st61{fill:#808181;}
	.st62{fill:#62A930;}
	.st63{fill:#A1C746;}
	.st64{fill:#85B04B;}
	.st65{fill:#5E802C;}
	.st66{fill:#BFD783;}
	.st67{fill:#EFC9AF;}
	.st68{fill:#343434;}
	.st69{fill:#EB5B28;}
	.st70{fill:#D1A98D;}
	.st71{fill:#E0A9B8;}
	.st72{fill:#754D24;}
	.st73{fill:#B2D17B;}
	.st74{fill:#62B338;}
	.st75{fill:#274E22;}
	.st76{fill:#CCDC81;}
	.st77{fill-rule:evenodd;clip-rule:evenodd;fill:#85B04B;}
	.st78{fill:#509733;}
	.st79{fill:#203F1E;}
	.st80{fill:#20963A;}
	.st81{fill:#62246B;}
	.st82{fill:#FDCA02;}
	.st83{fill:#B4CD50;}
	.st84{fill:#5C792A;}
	.st85{fill:#C29347;}
	.st86{fill:#4D5C22;}
	.st87{fill:none;}
	.st88{fill:#E19C11;}
	.st89{fill:#E5C997;}
	.st90{fill:#009245;}
	.st91{fill:#48AE4D;}
	.st92{fill:#049348;}
	.st93{fill:#04683B;}
	.st94{fill:#F8AE4C;}
	.st95{fill:#C57B39;}
	.st96{fill:#231F20;}
	.st97{fill:#BC2333;}
	.st98{fill:#EF7A7B;}
	.st99{fill:#46AE51;}
	.st100{fill:#07924B;}
	.st101{fill-rule:evenodd;clip-rule:evenodd;fill:#231F20;}
	.st102{fill:#279A9A;}
	.st103{fill:#8E3189;}
	.st104{fill:#9F6E8E;}
	.st105{fill:#3C3C3B;}
	.st106{fill:#00A69C;}
	.st107{fill:#D5DB41;}
	.st108{fill:#E04542;}
	.st109{fill:#9F1F3B;}
	.st110{fill:#EB5C35;}
	.st111{fill:#F9B233;}
	.st112{fill:#008D36;}
	.st113{fill:#F39200;}
	.st114{fill:#F2D8BD;}
	.st115{fill:#3AAA35;}
	.st116{fill:#95C11F;}
	.st117{fill:#7F5FA5;}
	.st118{fill:#5FA55F;}
	.st119{fill:#A55F8F;}
	.st120{fill:#229538;}
	.st121{fill:#622369;}
	.st122{fill:#FCC804;}
	.st123{fill:#628FB8;}
	.st124{fill:#B2B2B2;}
	.st125{fill:#63B8A4;}
	.st126{fill:#FDCE6C;}
	.st127{fill:#C8DADC;}
	.st128{fill:#ED6B6E;}
	.st129{fill:#EC6365;}
	.st130{fill:#8FC14D;}
	.st131{fill:#FECE6C;}
	.st132{fill:#037132;}
	.st133{fill:#B5CD25;}
	.st134{fill:#137E35;}
	.st135{fill:#7DBA28;}
	.st136{fill:#50AE32;}
	.st137{fill:#04612D;}
	.st138{fill:#F0828B;}
	.st139{fill:#63348B;}
	.st140{fill:#CF75AC;}
	.st141{fill:#895B7E;}
	.st142{fill:#AD94C4;}
	.st143{fill:#C581AB;}
	.st144{fill:#D1BAB0;}
	.st145{fill:#EF7B7C;}
	.st146{fill:#F7C0C2;}
	.st147{fill:#4F1C31;}
	.st148{fill:#9C3760;}
	.st149{fill:#A8768F;}
	.st150{fill:#A04170;}
	.st151{fill:#6CB863;}
</style>
<g>
	<g>
		<path class="st11" d="M280,210.3c0.1-7.5,1-14.9,2.6-22.2c0.4-1.8,1.1-3.6,1.8-5.3c0.3-0.8,1-1.5,1.7-2c0.8-0.6,1.8-0.1,2.1,0.9
			c0.1,0.4,0.1,0.8,0.1,1.2c0,0.6-0.1,1.2-0.2,1.8c-0.8,3.2-1,6.5-1.1,9.9c-0.1,4.8-0.4,9.6-0.3,14.4c0.2,6.5,0.7,12.9,2.4,19.2
			c2.7,9.9,7.9,18.2,16.5,24.1c3.9,2.7,8.3,4.1,13,4.7c2.8,0.4,5.6,0.5,8.4,0c5.4-0.9,9.7-3.3,12-8.6c2.9-6.6,2.8-13.3,0.2-19.9
			c-0.6-1.5-1.6-2.8-2.5-4.1c-2.7-3.5-6.2-4.2-10.4-3.2c-6.7,1.7-10.2,7.9-10.5,12.9c-0.3,4.4,1.3,7.8,4.6,10.6
			c2.9,2.5,7.2,0.9,8.5-2.3c0.8-1.9,0.1-4.9-2.2-5.7c-0.2-0.1-0.5-0.2-0.7-0.3c-1.5-0.8-1.7-2.3-0.5-3.4c0.5-0.4,1.1-0.8,1.7-0.9
			c2.1-0.3,4.1,0,5.5,1.7c2.5,3,3.7,6.4,2.2,10.2c-1.5,3.9-4.2,6.5-8.4,7c-6.4,0.9-12.8-3-15.4-9c-3.8-8.9,0.1-20.1,8.7-24.7
			c7.4-4,15.7-2.4,21.2,4c3.3,3.8,5.1,8.3,5.8,13.3c0.8,6.2-0.5,12.1-3.4,17.6c-4.4,8.4-11.4,12.5-21,11.6
			c-13.7-1.3-24.8-7.4-32.8-18.9c-4.7-6.8-7.4-14.4-8.8-22.5c-0.2-1.5-0.5-3-0.6-4.5C280.2,215.4,280.1,212.9,280,210.3z"/>
		<path class="st11" d="M237.6,183.3c-0.7-0.5-1.3-0.9-1.9-1.3c-5.6-4.6-8.6-10.5-8.6-17.8c0-3.7,1.2-7.1,3.3-10.1
			c3.5-4.8,8.4-6.4,14-5.9c2.1,0.2,4.2,0.8,6.3,1.5c4.4,1.6,8.5,3.7,12.2,6.4c3.6,2.6,7.2,5.3,10.8,7.9c3.3,2.3,6.7,4.5,10,6.6
			c2.1,1.3,2.7,2.6,2,4.9c-0.4,1.3-0.9,2.7-1.5,3.9c-2.9,6.3-6.1,12.5-10.5,18c-3.8,4.7-8,9-13.4,11.9c-2.5,1.4-5.1,2.4-7.9,2.8
			c-6.4,1-12.7-2.1-15.8-7.9c-2.4-4.5-3-9.2-1.9-14.1c0.5-2.2,1.3-4.2,2.5-6.1C237.4,183.8,237.5,183.6,237.6,183.3z M278.4,173.6
			c-0.5-0.4-0.8-0.7-1.2-1c-3.8-2.8-7.5-5.6-11.3-8.3c-4.4-3-8.9-5.9-13.5-8.8c-2.6-1.6-5.5-2.4-8.5-2.7c-3.2-0.3-6,0.3-8.2,2.8
			c-1.1,1.2-1.9,2.5-2.2,4c-1.6,7.1,0.4,13.2,5.5,18.2c1,1,2.1,1.8,3.2,2.8c1.1,1,1.3,2.3,0.6,3.6c-0.2,0.4-0.5,0.9-0.8,1.3
			c-1.2,1.9-2,3.9-2.6,6c-1,3.2-0.8,6.3,0.7,9.2c2.1,4.2,5.5,6.8,10.4,6.5c5.1-0.2,9.6-1.9,13.5-5.3c2.4-2.1,4.5-4.5,6.5-7.1
			c4-5.1,6.6-10.9,9.5-16.5c0.1-0.3,0.2-0.6,0.3-0.9c-0.7,0-1.4-0.1-2,0c-3.2,0.5-6.3,1-9.5,1.5c-5,0.8-10,1.7-15,2.5
			c-0.7,0.1-1.5,0.1-2.2,0c-0.7-0.1-1.2-0.5-1.3-1.2c-0.1-0.7,0.2-1.3,0.9-1.6c0.7-0.3,1.4-0.6,2.1-0.7c1.7-0.4,3.4-0.7,5.2-1.1
			c5.5-1,11-2,16.6-3C276,173.8,277,173.7,278.4,173.6z"/>
		<path class="st11" d="M289.1,124.2c0.9-1,1.7-1.9,2.6-2.7c2.4-2.4,5.2-4.3,8.5-5.3c4.8-1.5,9.3-0.8,13.5,2
			c2.8,1.9,4.1,4.7,4.7,7.9c0.7,3.7,0.1,7.3-1.4,10.7c-0.9,2.2-2,4.3-3.2,6.3c-5.2,8.6-11.5,16.2-18.8,23c-1.7,1.6-3.6,2.9-5.7,4
			c-1.1,0.6-2,0.5-3,0c-1.4-0.8-2.9-1.5-4.2-2.4c-6.6-4.4-12.6-9.5-17.7-15.5c-5-6-7.8-12.8-7.7-20.7c0.1-5.7,2.3-10.7,6.5-14.6
			c4.6-4.3,11.7-5.8,18.2-1c2.8,2.1,5.3,4.6,7.2,7.6C288.8,123.7,288.9,123.9,289.1,124.2z M290,165c1.3-1.2,2.4-2.1,3.4-3.1
			c2.9-3.2,5.8-6.4,8.4-9.8c3-3.8,5.8-7.7,8.5-11.6c1.6-2.4,2.7-5,3.1-7.9c0.3-2.8,0.3-5.5-0.9-8.1c-1.4-3-4-4.7-7.3-4.5
			c-3.3,0.1-6.4,1.1-8.9,3.3c-1.7,1.5-3.2,3.3-4.8,4.9c-0.5,0.5-0.8,1.1-1.3,1.6c-1.1,1.1-2.3,1-3.3-0.1c-0.4-0.5-0.8-1.1-1.1-1.6
			c-0.9-1.3-1.8-2.6-2.7-4c-1.8-2.7-4.4-4.2-7.3-5.3c-2.1-0.7-4.3-1-6.3,0c-3.6,1.7-6.2,4.5-7,8.5c-0.3,1.4-0.4,2.9-0.3,4.3
			c0.1,4.5,1.3,8.8,3.6,12.8c4.7,8.2,11.2,14.8,19.2,19.8c0.3,0.2,0.7,0.3,1.1,0.5c0-0.5,0-0.8,0.1-1.2c0.2-7.7,0.4-15.4,0.7-23.2
			c0-1.3,0.2-2.6,0.5-3.9c0.2-1.1,0.9-1.6,1.7-1.6c0.8,0,1.4,0.6,1.6,1.7c0.1,0.6,0.1,1.2,0.1,1.8C290.4,147.2,290.2,155.9,290,165z
			"/>
		<path class="st11" d="M333.6,180.7c0.2,0.4,0.5,0.7,0.7,1c3.4,5.5,3.6,11.1,0.4,16.7c-2.9,5.1-7.5,7.9-13.3,9
			c-4.8,0.9-9.4,0.1-13.7-2.2c-3.7-2.1-6.8-4.8-9.5-8c-4.5-5.4-7-11.7-8.8-18.5c-0.2-0.7-0.3-1.5-0.3-2.2c-0.1-1.3,0.2-2.5,1.2-3.4
			c4.4-4.5,8.7-9.1,13.6-13.1c4.7-3.9,9.6-7.4,15.1-10c3.7-1.8,7.6-2.8,11.8-2.6c0.7,0,1.5,0.1,2.2,0.2c2.1,0.5,4.2,0.9,6.2,1.7
			c4,1.5,6.1,4.7,7.2,8.7c0.6,2.3,0.5,4.7,0,7c-1.7,6.9-5.7,11.9-12,15.2c-0.3,0.1-0.5,0.3-0.8,0.5
			C333.8,180.4,333.8,180.5,333.6,180.7z M294.3,177.6c0.7,4.4,2,8.5,4.3,12.3c2.9,4.9,7.1,8.4,11.9,11.2c2.1,1.2,4.4,2,6.9,2
			c5.4,0,9.7-2.3,12.8-6.6c0.7-0.9,1.1-2,1.4-3.1c0.8-3.4,0.2-6.6-2.1-9.3c-0.5-0.6-1.1-1.2-1.5-1.9c-1.1-1.8-0.8-3.3,0.9-4.6
			c0.8-0.6,1.6-1.1,2.4-1.6c3.7-2.4,6.8-5.5,9.2-9.2c0.5-0.8,0.9-1.6,1.3-2.4c2.1-4.9-1.1-11.9-7.4-12c-3.2,0-6.2,0.3-9.2,1.4
			c-11.3,4-20.8,10.8-29.3,19c-0.1,0.1-0.1,0.2-0.2,0.5c1.7,0,3.3,0,4.9,0c6.5-0.1,12.9,0.4,19.3,1.8c1.1,0.2,2.2,0.5,3.3,0.9
			c1.1,0.3,1.6,1.1,1.5,2c-0.2,0.9-1,1.5-2.2,1.4c-0.3,0-0.7-0.1-1-0.1c-2.7-0.4-5.4-0.8-8.1-1c-4.9-0.5-9.9-0.6-14.9-0.5
			C297.1,177.6,295.8,177.6,294.3,177.6z"/>
	</g>
	<g>
		<path class="st90" d="M225.8,274.8c3.2,0,6.4-0.1,9.6,0c8.3,0.4,16.1,2.5,23.3,6.8c2.5,1.5,4.8,3.3,6.6,5.6
			c2.7,3.3,4.3,6.9,3.7,11.2c-0.9,6.3-3.8,11.3-9.1,15c-3.4,2.4-7.2,4-11.4,4.7c-0.5,0.1-1,0.2-1.7,0.4c0.3,0.5,0.5,1,0.8,1.5
			c1.2,2.1,2.1,4.4,2.5,6.8c0.7,3.9-0.3,7.3-3.1,10.1c-4.4,4.4-9.8,5.8-15.8,4.5c-7.1-1.5-13.2-5-18.7-9.6
			c-6.1-5.2-10.7-11.6-14.6-18.5c-2.7-4.8-4.7-9.9-6.4-15.1c-0.1-0.4-0.3-0.8-0.6-1.2c-0.3,1-0.7,2-1,3c-0.7,2.1-1.4,4.3-2.2,6.4
			c-2.5,6.5-6.7,11.7-11.7,16.3c-3.9,3.6-8.4,6.4-12.6,9.6c-1.8,1.3-3.5,2.6-5.2,4c-4.3,3.6-6.5,8.4-7.3,13.8
			c-0.5,3.2,0.8,6,2.5,8.7c2.8,4.3,9.9,5.6,13.7,3.6c1.6-0.8,3-1.9,3.9-3.5c1.2-2.2,2-4.4,1.6-7c-0.3-2.1-1.8-3.6-3.9-4
			c-1.1-0.2-2.1-0.1-3,0.6c-0.5,0.4-1.1,0.7-1.6,1.1c-0.6,0.4-1.2,0.4-1.8,0c-0.7-0.4-0.9-1-0.8-1.8c0.1-1,0.5-1.9,1.3-2.5
			c1.7-1.4,3.5-2.3,5.8-1.9c2.2,0.4,4.3,1.1,5.9,2.8c2,2.1,2.7,4.6,2.5,7.5c-0.2,2.3-0.8,4.4-1.8,6.4c-2.1,4.2-5.6,6.5-10.1,7
			c-6.4,0.7-11.8-1.5-15.7-6.9c-1.7-2.4-2.5-5.3-2.9-8.2c-1.1-7.5,1.7-13.6,6.8-18.9c2.4-2.5,5.3-4.6,8-6.9c0.4-0.3,0.8-0.6,1.2-0.9
			c-1.3-0.9-2.6-1.6-3.7-2.6c-4.5-4-3.4-10.6-0.1-13.3c1.9-1.6,4.1-2.2,6.6-1.7c1.9,0.4,3.2,1.6,3.7,3.5c0.2,0.8,0.2,1.6-0.5,2.1
			c-0.8,0.5-1.6,0.7-2.5,0.2c-0.3-0.2-0.6-0.5-1-0.8c-1.2-1-2.7-0.9-3.7,0.2c-1.4,1.5-1.3,3.2-0.7,4.9c0.6,1.7,2.4,2.8,4.2,2.8
			c1.9,0,3.7-0.6,5.3-1.6c1.8-1.1,3.3-2.5,4.6-4.1c4.2-5.2,7.6-10.9,9.6-17.4c0.4-1.2,0.8-2.4,1.2-3.7c0-0.1,0-0.2-0.1-0.3
			c-0.4,0.2-0.7,0.3-1.1,0.5c-5.1,2.3-10.3,4.1-15.8,5.1c-4.8,0.9-9.6,1.6-14.5,1.5c-3.9,0-7.8,0-11.7-0.3c-4.4-0.3-8.6-1.1-12.2-4
			c-3.5-2.8-5.8-6.4-6.1-11c-0.3-4.4,1.2-8.2,4.4-11.3c2-1.9,4.3-3.3,6.9-4.3c0.4-0.2,0.8-0.3,1.4-0.5c-0.3-0.6-0.6-1-0.8-1.5
			c-3.1-5.6-3.7-11.5-2.1-17.6c0.7-2.5,1.9-4.7,3.7-6.5c5.3-5.4,11.8-7.8,19.4-6.9c2.2,0.3,4.3,1,6.3,2c2.9,1.5,5.4,3.5,7.7,5.7
			c3.3,3.2,6.3,6.7,8.8,10.6c1.9,2.9,3.8,5.9,5.7,8.8c0.3,0.4,0.5,0.8,0.9,1.4c0.1-0.3,0.2-0.4,0.1-0.4c-0.7-6.2-1.4-12.5-1.7-18.8
			c-0.3-5.8,0.2-11.5,1.8-17c0.7-2.4,1.6-4.6,2.8-6.7c4.2-7.5,12.8-9.7,19.6-7.7c5.5,1.6,9.5,5,11.7,10.3c0.8,2,1.3,4.1,2,6.2
			c0.1,0.3,0.1,0.5,0.3,1c0.5-0.2,0.9-0.4,1.4-0.7c3.2-1.6,6.5-2.7,10.1-2.9c3.4-0.2,6.7,0.5,9.8,2c5.6,2.8,8.5,7.4,9.1,13.5
			c0.4,4.5-0.7,8.7-3,12.7c-2.5,4.4-5.9,7.8-9.9,10.7c-4,2.9-8.4,5.1-13,6.9c-0.5,0.2-1,0.4-1.5,0.6
			C225.7,274.7,225.7,274.7,225.8,274.8z M153.8,240.6c-0.9,0.1-1.7,0.1-2.6,0.2c-4.2,0.6-7.7,2.7-10.7,5.5
			c-1.7,1.6-2.8,3.5-3.3,5.8c-1.1,4.9-0.6,9.6,2,14c0.5,0.8,1,1.7,1.4,2.5c0.6,1.5,0.1,2.7-1.3,3.4c-0.7,0.3-1.4,0.6-2.2,0.9
			c-2.2,0.8-4.2,2-6,3.6c-2.9,2.6-4.2,5.9-3.5,9.8c0.5,2.8,2,5,4.2,6.8c2.6,2.1,5.6,3,8.8,3.5c5.1,0.8,10.2,0.8,15.4,0.6
			c9.5-0.5,18.7-2.4,27.5-6.4c2.3-1.1,4.7-2.1,7-3.2c1.6-0.7,3.1,0.2,3.2,2c0.4,3.7,1.4,7.2,2.7,10.6c2.6,7.3,6.4,13.8,11,20
			c2.5,3.4,5.3,6.4,8.6,9.1c4.6,3.7,9.6,6.6,15.4,8c4.8,1.2,9,0.1,12.6-3.3c1.7-1.7,2.4-3.8,2-6.2c-0.3-1.8-0.9-3.6-1.8-5.2
			c-0.7-1.3-1.5-2.5-2.2-3.8c-1-1.8-0.4-3.4,1.6-4c0.8-0.3,1.7-0.4,2.6-0.5c3.7-0.5,7.1-1.7,10.3-3.6c4.4-2.7,7.1-6.6,8.2-11.6
			c0.5-2.4,0.2-4.7-1.1-6.9c-1.1-2-2.7-3.6-4.5-5c-2.3-1.8-4.8-3.2-7.5-4.3c-6.2-2.6-12.7-3.7-19.3-3.8c-8.4-0.1-16.8,0.8-25.1,2
			c-1.2,0.2-2.5,0.3-3.7,0.4c-1,0.1-1.8-0.5-2.1-1.5c-0.3-0.9,0.1-1.8,1.1-2.3c0.4-0.2,0.8-0.4,1.3-0.5c1.6-0.5,3.3-1,4.9-1.5
			c5.1-1.6,10.3-3.2,15.3-5c5.1-1.8,9.9-4.2,14.2-7.4c3.3-2.4,6.1-5.3,8.2-8.9c1.9-3.5,3-7.2,2.4-11.2c-0.5-3.7-2.2-6.7-5.5-8.6
			c-3.1-1.8-6.5-2.5-10.1-2c-2.7,0.4-5.2,1.3-7.5,2.5c-0.9,0.5-1.9,1-2.9,1.3c-1.5,0.5-2.8-0.1-3.5-1.5c-0.3-0.6-0.5-1.3-0.7-1.9
			c-0.6-2.1-1.1-4.3-1.9-6.3c-1.8-4.6-5.3-7.3-10-8.4c-4.4-1-10.6,0.2-13.8,6c-0.6,1.1-1.2,2.2-1.6,3.4c-1.9,5.3-2.8,10.8-2.5,16.4
			c0.2,4.2,0.5,8.3,0.9,12.5c0.6,5.9,1.2,11.9,2.4,17.7c0.1,0.7,0.2,1.4,0.1,2.1c-0.1,1.6-1.8,2.3-3.1,1.4c-0.4-0.3-0.8-0.8-1.1-1.2
			c-1-1.6-2.1-3.2-3-4.8c-2.6-4.3-5.2-8.7-7.9-12.9c-2.6-4-5.5-7.8-9-11.1c-1.9-1.8-3.9-3.5-6.2-4.8
			C159.4,241.3,156.7,240.5,153.8,240.6z"/>
		<path class="st90" d="M230.7,305.2c0.8,1.6,1.5,3,2.2,4.4c1.2,2.7,2,5.5,2,8.5c0,1.5-0.3,2.9-1,4.3c-1.5,2.8-3.9,3.9-6.9,3.8
			c-2.1-0.1-3.9-0.9-5.7-1.9c-2.4-1.5-4.4-3.4-6.2-5.4c-3.8-4.2-6.8-9-9.5-14c-2.1-3.9-3.9-7.9-5.3-12.1c-0.4-1.2-0.7-2.5-0.9-3.7
			c-0.4-2.6,0.6-4,3.2-4.5c3.2-0.6,6.5-0.7,9.7-0.5c4,0.2,8.1,0.6,12.1,1.1c4.6,0.6,9.1,1.4,13.3,3.3c3,1.4,5.4,3.2,7.1,6.1
			c3.4,5.8-0.3,9.8-4.4,11.2c-2,0.7-4.1,0.4-6.1,0.2C233.1,305.7,232,305.4,230.7,305.2z M203.6,288.4c0.2,1,0.3,1.8,0.6,2.5
			c1.2,3.1,2.3,6.3,3.8,9.3c2.5,5.2,5.5,10.1,9.3,14.6c1.6,1.9,3.3,3.7,5.3,5.2c1.2,0.9,2.5,1.6,4.1,1.9c2.2,0.4,3.6-0.6,3.9-2.8
			c0.3-2-0.1-3.9-0.8-5.8c-1.1-3.1-2.6-5.8-4.6-8.4c-0.7-0.9-1.3-1.8-1.9-2.7c-0.5-0.8-0.6-1.8,0-2.6c0.6-0.8,1.5-0.9,2.4-0.8
			c0.8,0.2,1.7,0.4,2.5,0.7c1.8,0.6,3.6,1.3,5.5,1.8c2,0.6,4,0.4,6-0.1c1.5-0.3,2.3-1.7,2.1-3.3c-0.2-1.3-0.8-2.4-1.9-3.2
			c-1.5-1.2-3.2-2-5-2.6c-7.3-2.4-14.8-3.9-22.5-3.9C209.4,288.2,206.7,288.3,203.6,288.4z"/>
		<path class="st90" d="M213.1,246.9c0.9-0.5,1.7-0.8,2.4-1.2c2.7-1.3,5.5-2.6,8.4-3.3c2.2-0.5,4.3-0.5,6.3,0.4
			c3.3,1.4,4.6,4.3,3.5,7.7c-0.5,1.4-1.2,2.8-2.1,4c-1.6,2.3-3.7,4.1-5.9,5.8c-4.7,3.6-9.7,6.6-14.9,9.3c-3.6,1.9-7.2,3.9-10.7,5.9
			c-1.2,0.7-2.3,1-3.4,0.1c-0.6-0.5-1-1.2-1.2-1.9c-0.4-1.6-0.7-3.2-0.9-4.9c-0.5-5-1-10-1.2-15c-0.3-5.4,0-10.7,1.5-16
			c0.6-2,1.4-3.8,2.7-5.4c1.2-1.5,2.7-2.6,4.6-3.2c2.5-0.8,4.7-0.4,6.7,1.2c1.7,1.4,2.7,3.2,3.3,5.3c0.9,3.1,1,6.2,0.9,9.4
			C213.1,245.6,213.1,246.1,213.1,246.9z M199.3,270.9c0.4-0.2,0.7-0.3,1-0.5c3-1.6,6.1-3.2,9.1-4.9c3.4-1.9,6.8-3.8,10-6
			c2.4-1.6,4.7-3.4,6.8-5.4c1.3-1.2,2.4-2.8,3.3-4.4c1-1.8,0.3-3.1-1.8-3.4c-0.4-0.1-0.8-0.1-1.2,0c-1.4,0.3-2.8,0.5-4.1,1
			c-3,1.2-5.8,2.7-8.7,4.1c-0.6,0.3-1.2,0.6-1.9,0.9c-2,0.7-3.7-0.6-3.7-2.7c0-0.6,0.1-1.3,0.3-1.9c0.5-2.4,0.6-4.8,0.4-7.3
			c-0.2-2.2-0.7-4.4-2.3-6c-1-1-2-1.2-3.2-0.6c-1.1,0.5-1.8,1.4-2.3,2.5c-0.4,0.9-0.7,1.8-1,2.7c-0.9,3.2-1.2,6.4-1.3,9.7
			c-0.3,6.9,0.1,13.9,0.5,20.8C199.1,269.9,199.2,270.4,199.3,270.9z"/>
		<path class="st90" d="M155.3,270.7c-0.4-0.4-0.6-0.7-0.9-1c-2.2-2.3-4.2-4.8-5.7-7.6c-1-1.7-1.6-3.6-1.9-5.6
			c-0.2-1.5-0.1-2.9,0.3-4.4c0.6-2.4,2.2-3.7,4.6-4.1c2.2-0.4,4.3,0,6.4,0.7c4.5,1.6,8.3,4.3,11.8,7.5c2.7,2.6,5.1,5.4,7.3,8.4
			c3.3,4.5,6.8,8.8,9.5,13.7c0.5,0.8,0.8,1.6,1.1,2.5c0.4,1.2,0,2.2-1.2,2.8c-0.8,0.5-1.6,0.8-2.5,1.1c-7.4,2.5-14.9,4.2-22.7,5.1
			c-4.9,0.6-9.7,0.3-14.4-1.3c-1.2-0.4-2.4-0.9-3.5-1.6c-3.3-2.2-4.4-6.9-1.2-10.3c1.3-1.3,2.8-2.4,4.4-3.2c2.4-1.2,4.9-2.2,7.7-2.5
			C154.8,270.8,155,270.8,155.3,270.7z M183.8,281c-0.4-0.7-0.7-1.1-0.9-1.5c-3.7-5.6-7.8-10.8-12-15.9c-3.7-4.5-8.1-8.1-13.5-10.5
			c-1.5-0.7-3-1-4.7-0.9c-1,0.1-1.5,0.5-1.5,1.4c-0.1,1-0.1,2.1,0.2,3.1c0.6,2.8,1.9,5.3,3.9,7.3c1.7,1.9,3.6,3.7,5.4,5.5
			c0.4,0.4,0.9,0.8,1.3,1.3c0.6,0.7,0.8,1.4,0.5,2.3c-0.3,0.9-1,1.3-1.9,1.4c-0.8,0.1-1.6,0.1-2.3,0c-3.9-0.2-7.4,0.9-10.8,2.8
			c-0.7,0.4-1.5,1-2.1,1.6c-1.7,1.6-1.5,3.6,0.5,4.8c0.8,0.5,1.7,0.9,2.6,1.2c4.5,1.3,9,1.7,13.6,0.9c4.6-0.7,9.2-1.7,13.7-2.8
			C178.4,282.6,180.9,281.8,183.8,281z"/>
	</g>
	<g>
		<path class="st91" d="M166.4,107.1c1.7-1.2,3.2-2.2,4.6-3.2c3.9-2.9,8.1-5.5,12.3-7.9c3.1-1.8,6.3-3.1,9.8-3.7
			c3.1-0.5,6.2-0.5,9.1,0.9c1.1,0.5,2.1,1.2,3,2c1.2,1.2,2.3,2.5,3.3,3.9c1.6,2.2,1.8,4.7,1.3,7.4c-0.4,2.3-1.2,4.5-2.2,6.5
			c-0.1,0.3-0.2,0.5-0.4,0.9c0.6,0.1,1.2,0.2,1.7,0.2c6.1,0.7,10.3,4.1,13,9.4c1.9,3.8,1.3,7.6-0.8,11.2c-1.8,3.2-4.7,5.1-8.1,6.5
			c-4.2,1.7-8.5,2.6-13,2.8c-2.2,0.1-4.4,0-6.6-0.1c-0.5,0-1,0-1.6,0c1.7,1.4,3.2,2.7,4.7,4c2.8,2.7,5.2,5.7,7.1,9.1
			c2.7,4.9,2.7,10,0.9,15.2c-1.6,4.6-5.2,7.2-9.9,8.4c-2.5,0.6-5.1,0.6-7.6,0c-0.9-0.2-1.8-0.3-2.7-0.5c0.1,0.8,0.2,1.4,0.2,2.1
			c0.1,3.7-0.8,6.9-3.9,9.1c-1.8,1.3-3.9,2-6.1,2c-6.1,0.1-11.9-1.2-16.7-5.2c-2.8-2.3-4.8-5.1-6.2-8.4c-1.7-4.2-2.6-8.6-3.4-13.1
			c-0.1-0.6-0.2-1.3-0.6-1.9c-0.1,0.5-0.2,1-0.2,1.5c-0.8,7.1-2,14.2-4.1,21.1c-3.1,9.9-8.4,18.3-16.1,25.2c-2,1.8-4.2,3.1-6.5,4.3
			c-6.8,3.3-13.3,2.6-19.5-1.6c-2-1.3-3.7-2.9-5.2-4.8c-4.7-6.1-5.2-12.8-3-20c1-3.1,2.6-6,5.1-8.2c4.4-4.1,10.8-5.1,16.1-2.4
			c2.1,1,3.7,2.6,4.7,4.7c2.6,4.9,2.5,9.8,0,14.7c-0.6,1.1-1.6,2-2.5,3c-0.3,0.3-0.6,0.5-1,0.7c-0.9,0.4-1.8,0.4-2.5-0.2
			c-0.8-0.7-0.9-1.6-0.6-2.5c0.2-0.6,0.6-1.2,0.8-1.8c0.5-0.9,1-1.8,1.4-2.8c1.1-3,0.7-5.8-1.2-8.4c-2.1-2.7-5.8-3.4-9-1.7
			c-2.4,1.3-4.1,3.3-5.2,5.8c-2.4,5.3-1.1,12.2,3.3,16.7c2.9,2.9,6.4,4.3,10.5,4.4c1.8,0,3.5-0.5,5-1.4c3.3-1.8,6-4.3,8.4-7.2
			c5.8-6.9,9.2-15,11.4-23.6c1.4-5.3,2-10.7,2.8-16.1c0.2-1.4,0.4-2.8,0.6-4.2c0.1-0.5,0.1-1,0.2-1.8c-0.7,0.6-1.2,1-1.6,1.4
			c-5,4.7-10.6,8.3-17.1,10.4c-2.3,0.7-4.7,1.2-7.1,1.2c-5.8,0.1-10.4-2.3-13.7-7c-2.7-3.8-4.2-8-4.4-12.6c-0.1-1.7,0.1-3.5,0.2-5.5
			c-0.3-0.1-0.7-0.4-1.2-0.7c-3.8-2.2-7-5-9.3-8.8c-1.3-2.2-2-4.7-2.2-7.3c-0.3-3.6,1-6.6,3.5-9.1c1.3-1.3,2.8-2.4,4.4-3.3
			c3.4-2,7.1-3.4,11.1-4.2c4.5-0.9,9-1.5,13.6-1.4c0.3,0,0.6,0,1.1,0c-0.3-0.4-0.4-0.7-0.7-0.9c-4.7-5.8-7.5-12.3-7.8-19.8
			c-0.2-4.8,1-9.4,3.6-13.5c2.2-3.6,5.5-5.1,9.8-4.6c3.5,0.4,6.8,1.6,9.9,3.3c0.3,0.2,0.6,0.4,0.9,0.5c0,0,0.1,0,0.1,0
			c1-1.5,1.9-2.9,2.9-4.4c1.4-2,3.1-3.6,5.2-4.9c6.5-4,16.4-1.6,20.5,5.7c2.5,4.4,4.2,9.1,4.4,14.3c0.1,1.5,0.1,3,0,4.5
			c-0.3,5.1-0.6,10.1-0.9,15.2C166.3,106.5,166.4,106.7,166.4,107.1z M202.2,112.9c1.2-1.9,2.2-3.9,2.8-6.1c0.9-3.6-0.2-6.3-3.6-8
			c-3.2-1.7-6.7-1.7-10.1-0.8c-2.7,0.7-5.2,2-7.6,3.2c-6.4,3.4-11.8,7.9-17.1,12.7c-0.9,0.8-1.9,1.5-3,1.9c-1.7,0.7-3-0.1-3.1-2
			c0-1.2,0.1-2.4,0.3-3.6c0.4-3.4,1-6.7,1.3-10.1c0.6-7.1,0-14.1-1.5-21.1c-0.4-2.1-1.4-4-2.9-5.5c-1.1-1.1-2.2-2.2-3.6-2.9
			c-3.7-1.9-9.2-0.4-11.6,3c-1,1.5-2,3-2.8,4.6c-0.7,1.3-1.3,2.7-1.9,4.1c-0.6,1.2-1.2,1.5-2.4,0.9c-0.9-0.5-1.8-1.2-2.5-1.9
			c-2.1-2-4.6-3.2-7.4-3.8c-4.3-1-8.2,1.1-9.7,5.3c-0.3,0.8-0.4,1.5-0.6,2.3c-1,4.7-0.1,9.2,1.6,13.6c0.7,1.9,1.7,3.6,2.9,5.2
			c2.2,2.6,4.3,5.3,6.4,7.9c0.6,0.8,1.2,1.6,1.6,2.5c0.7,1.5-0.2,2.9-1.8,3c-0.6,0-1.3-0.1-1.9-0.1c-3.6-0.3-7.2-0.9-10.8-1
			c-6.5-0.2-12.6,1.5-18.3,4.7c-1.2,0.7-2.4,1.7-3.4,2.7c-1.7,1.7-2.3,3.8-1.9,6.2c0.4,2.1,1.2,4.1,2.6,5.9c2.3,3,5,5.4,8.8,6.6
			c1.6,0.5,2.2,1.7,1.8,3.3c-0.2,0.7-0.5,1.4-0.6,2.2c-0.2,0.9-0.4,1.9-0.4,2.8c0.1,3.7,1,7.2,3,10.4c2.7,4.3,8.8,6.5,13.7,5.1
			c4-1.2,7.5-3.3,10.8-5.9c4.8-3.8,9.1-8.1,13.3-12.4c1.7-1.7,3.4-3.5,5.2-5c1.6-1.4,3.2-0.8,4.1,1.1c0.6,1.3,0.7,2.7,0.8,4.1
			c0.5,7,1,13.9,1.6,20.9c0.1,1.7,0.4,3.5,0.8,5.2c1.3,6.1,4.9,10.6,10.5,13.4c3.5,1.7,7.3,1.9,11,0.4c2.6-1,3.8-3.6,3-6.2
			c-0.2-0.6-0.5-1.2-0.7-1.8c-0.2-0.5-0.4-1-0.5-1.6c-0.2-1.8,1-3.1,2.9-3c0.4,0,0.8,0.2,1.2,0.2c2.6,0.3,5.2,0.8,7.8,0.8
			c7.9-0.2,12.3-7.6,10.2-14c-0.7-2.1-1.6-4-3-5.7c-4.8-5.6-10.3-10.4-17.2-13.4c-0.8-0.4-1.7-0.7-2.4-1.2c-1-0.6-1.3-1.8-0.9-2.8
			c0.4-0.9,1.3-1.5,2.4-1.4c0.5,0,1,0.1,1.5,0.3c6.7,1.5,13.5,2,20.3,1.5c3.1-0.2,6.2-0.7,9.1-1.9c2.9-1.1,5.3-2.9,6.8-5.7
			c1.9-3.6,1.4-6.3-1.7-9c-3-2.6-6.5-4.1-10.5-4.2c-0.6,0-1.1,0-1.6-0.2c-2-0.4-2.8-2.1-1.9-3.9
			C201.5,113.8,201.9,113.4,202.2,112.9z"/>
		<path class="st91" d="M188.8,119.5c1.4-0.1,2.5-0.1,3.6-0.1c1.9,0,3.7,0.3,5.4,1.2c3.5,1.7,4.5,5.2,2.5,8.5
			c-1.4,2.4-3.6,4-6.2,4.7c-1.7,0.5-3.5,0.7-5.3,0.9c-5.1,0.4-10.1,0.6-15.2,1.1c-3.2,0.3-6.4,0.9-9.8,1.4c-0.5,1.5-0.9,3.1-1.4,4.5
			c3,1.1,5.9,2.1,8.7,3.2c4.4,1.8,8.5,4.1,11.6,7.8c1.7,2,3,4.1,3.5,6.7c0.3,1.7,0.2,3.4-0.7,4.9c-1,1.6-2.4,2.6-4.2,3.1
			c-2.1,0.6-4.1,0.4-6.1-0.3c-0.5-0.2-0.9-0.4-1.6-0.6c0.1,0.6,0.1,1.1,0.1,1.5c0,1.7,0.2,3.5-0.1,5.2c-0.3,2.5-1.9,4-4.2,4.9
			c-2,0.7-3.9,0.4-5.3-1.2c-0.7-0.8-1.4-1.6-1.9-2.5c-3.7-7.5-6.2-15.4-5.8-23.9c0.3-7.4,2.1-14.4,5.7-20.9c1.8-3.3,3.7-6.6,5.8-9.7
			c2.6-4,5.9-7.3,10-9.8c1.6-1,3.3-1.8,5.1-2.2c5.1-1.1,8.1,3,7.3,7c-0.2,1-0.6,2-1,3C189.3,118.5,189.1,118.9,188.8,119.5z
			 M162,146.5c0,0.7,0,1.1,0,1.5c-0.3,7.3,1.5,14.3,3.5,21.3c0.4,1.5,1.2,2.9,1.8,4.3c0.3,0.6,0.7,1,1.4,1c0.8,0,1.2-0.5,1.3-1.2
			c0.2-1,0.4-2.1,0.4-3.1c0-2.3-0.8-4.5-1.5-6.7c-0.2-0.5-0.3-0.9-0.5-1.4c-0.3-1.1-0.1-1.9,0.7-2.4c0.9-0.6,1.7-0.5,2.5,0.1
			c0.5,0.4,0.9,0.8,1.4,1.2c0.8,0.6,1.6,1.3,2.5,1.9c1.3,0.8,2.7,1.1,4.2,1c2-0.2,3-1.5,2.5-3.5c-0.3-1-0.7-2-1.3-2.8
			c-1.8-2.6-4-4.7-6.8-6.3c-2.8-1.5-5.7-2.8-8.7-3.7C164.4,147.1,163.3,146.8,162,146.5z M166.7,131.2c1.4-0.1,2.6-0.1,3.7-0.1
			c3.6-0.2,7.1-0.4,10.7-0.7c3.4-0.3,6.8-0.8,10.1-1.3c1.4-0.2,2.7-0.8,4-1.3c0.9-0.4,1.6-1.1,1.4-2.1c-0.1-0.9-1.1-1.1-1.8-1.3
			c-1.7-0.5-3.5-0.5-5.2-0.1c-1.8,0.4-3.5,0.9-5.2,1.5c-1.6,0.5-2.6,0.3-3.3-0.6c-0.7-0.9-0.5-1.9,0.5-3.3c1.2-1.6,2.3-3.3,3.4-5
			c0.5-0.8,0.8-1.7,1-2.6c0.3-1.3-0.4-1.9-1.7-1.7c-1,0.2-1.9,0.6-2.8,1c-2.9,1.5-5.3,3.6-7.4,6c-2.8,3.2-4.8,6.9-6.9,10.6
			C167,130.4,166.9,130.7,166.7,131.2z"/>
		<path class="st91" d="M142.5,94.6c0.5-1.3,0.9-2.5,1.4-3.6c0.7-1.5,1.5-3,2.9-4c0.7-0.5,1.4-1,2.2-1.3c2-0.8,3.8-0.3,5.3,1.3
			c1.2,1.4,1.8,3,2.2,4.7c0.5,2.3,0.5,4.7,0.2,7c-0.5,4.6-1.6,9-2.8,13.4c-1.8,6.6-4.4,12.8-7.5,18.8c-4.2,8-9.7,15.1-17,20.6
			c-1.7,1.3-3.3,2.6-5.1,3.8c-1.4,0.9-2.9,1.7-4.4,2.2c-4.3,1.6-7.9-1.8-7.9-5.6c0-2.1,0.6-4.1,1.8-5.8c1-1.6,2.2-3.1,3.3-4.6
			c0.2-0.3,0.5-0.6,0.8-1.1c-0.6-0.2-1.1-0.3-1.7-0.4c-2.2-0.5-4.3-1.3-6.1-2.7c-3.4-2.7-3.2-6.8,0.3-9.2c1.6-1.1,3.4-1.7,5.4-1.8
			c6.2-0.3,11.9,1.2,16.7,5.1c2,1.6,3.7,3.3,5.7,5.2c0.4-0.5,1-1.1,1.4-1.8c2.3-3.8,4.3-7.8,6.1-11.9c0.1-0.1,0.1-0.3,0.1-0.4
			c-1.6-1.4-3.3-2.6-4.8-4.1c-5.6-5.6-9.7-12.1-12.5-19.5c-0.5-1.4-0.8-3-1.1-4.5c-0.1-0.8-0.1-1.6,0-2.4c0.3-2.6,2-4.2,4.5-4.5
			c1.8-0.2,3.5,0.2,5,1.1c2,1.2,3.7,2.8,4.9,4.8C142,93.8,142.2,94.1,142.5,94.6z M147.5,118.2c0.2-0.4,0.4-0.6,0.5-0.8
			c2.5-6.6,4.1-13.4,4.8-20.5c0.2-1.9,0.1-3.7-0.5-5.5c-0.3-0.8-0.5-2-1.5-2c-0.9-0.1-1.6,0.7-2.1,1.5c-0.6,1.2-1.3,2.4-1.6,3.7
			c-0.6,2.3-1.1,4.6-1.6,6.9c-0.2,0.7-0.3,1.4-0.6,2c-0.3,0.8-0.9,1.2-1.8,1.2c-0.9,0-1.6-0.4-2-1.2c-0.2-0.4-0.3-0.9-0.5-1.4
			c-0.4-1.3-0.7-2.6-1-3.9c-0.6-1.9-1.6-3.5-2.9-4.8c-0.9-0.9-1.9-1.6-3.2-1.9c-1.5-0.3-2.2,0.2-1.9,1.7c0.2,1.5,0.6,3,1.2,4.3
			c2.9,6.7,6.6,13,11.9,18.1C145.5,116.6,146.5,117.4,147.5,118.2z M135.7,139.7c-2.1-1.7-4.1-3.3-6.1-4.9
			c-3.6-2.8-7.8-4.1-12.3-4.2c-1.1,0-2.2,0.2-3.3,0.4c-0.6,0.1-1.1,0.5-1.6,0.8c-0.7,0.6-0.8,1.1-0.1,1.8c0.5,0.5,1.2,0.9,1.8,1.3
			c2.4,1.2,5,1.6,7.7,1.8c2.3,0.2,3.2,2.1,1.9,4c-0.5,0.8-1.2,1.5-1.9,2.1c-1.8,1.8-3.3,3.8-4.6,6c-0.4,0.8-0.7,1.7-0.9,2.5
			c-0.4,1.9,0.8,2.9,2.5,2.1c1.6-0.7,3.2-1.6,4.6-2.6C127.9,147.5,131.8,143.8,135.7,139.7z"/>
	</g>
</g>
</svg>
