<?xml version="1.0" encoding="utf-8"?>
<!-- Generator: Adobe Illustrator 21.1.0, SVG Export Plug-In . SVG Version: 6.00 Build 0)  -->
<svg version="1.1" id="Calque_1" xmlns="http://www.w3.org/2000/svg" xmlns:xlink="http://www.w3.org/1999/xlink" x="0px" y="0px"
	 viewBox="0 0 432 432" style="enable-background:new 0 0 432 432;" xml:space="preserve">
<style type="text/css">
	.st0{fill:#3B4F20;}
	.st1{fill:#8CB225;}
	.st2{fill:#020203;}
	.st3{fill:#4A5C2D;}
	.st4{fill:#FFFFFF;}
	.st5{fill:#E2CF1B;}
	.st6{fill:#718A2A;}
	.st7{fill:#DFBB20;}
	.st8{fill:#EAC839;}
	.st9{fill:#1B1B1B;}
	.st10{fill:#8EC045;}
	.st11{fill:#066938;}
	.st12{fill:#E5AD30;}
	.st13{fill:#4E4D4D;}
	.st14{fill:#8BB226;}
	.st15{fill:#CD1A25;}
	.st16{fill:#4B6426;}
	.st17{fill:#7D9E3C;}
	.st18{fill:#3C4F20;}
	.st19{fill:#384A1F;}
	.st20{fill:#E7E6E6;}
	.st21{fill:#D4A624;}
	.st22{fill:#F7F0E3;}
	.st23{fill:#D2A206;}
	.st24{fill:#CE9835;}
	.st25{fill:#E5D9C2;}
	.st26{fill:#E2AE42;}
	.st27{fill:#EEDBBE;}
	.st28{fill:#F9EA31;}
	.st29{fill:#EB6518;}
	.st30{fill:#0A7132;}
	.st31{fill:#FFE109;}
	.st32{fill:#D76013;}
	.st33{fill:#BBA763;}
	.st34{fill:#7FA22A;}
	.st35{fill:#5B321B;}
	.st36{fill:#4A2615;}
	.st37{fill:#D6AD08;}
	.st38{fill:#F7BBBD;}
	.st39{fill:#D76324;}
	.st40{fill:#607829;}
	.st41{fill:#715C3B;}
	.st42{fill:#644F34;}
	.st43{fill:#89704C;}
	.st44{fill:#B2A38F;}
	.st45{fill:#A59076;}
	.st46{fill:#FFDE0D;}
	.st47{fill:#34AA4A;}
	.st48{fill:#75388D;}
	.st49{fill:#BBBBBB;}
	.st50{fill:#A9A9AA;}
	.st51{fill:#06993B;}
	.st52{fill:#CDCCCC;}
	.st53{fill:#4D2563;}
	.st54{fill:#E3B320;}
	.st55{fill:#0B9541;}
	.st56{fill:#264D23;}
	.st57{fill:#FDC834;}
	.st58{fill:#8C633A;}
	.st59{fill:#B5A059;}
	.st60{fill:#F2F2F2;}
	.st61{fill:#808181;}
	.st62{fill:#62A930;}
	.st63{fill:#A1C746;}
	.st64{fill:#85B04B;}
	.st65{fill:#5E802C;}
	.st66{fill:#BFD783;}
	.st67{fill:#EFC9AF;}
	.st68{fill:#343434;}
	.st69{fill:#EB5B28;}
	.st70{fill:#D1A98D;}
	.st71{fill:#E0A9B8;}
	.st72{fill:#754D24;}
	.st73{fill:#B2D17B;}
	.st74{fill:#62B338;}
	.st75{fill:#274E22;}
	.st76{fill:#CCDC81;}
	.st77{fill-rule:evenodd;clip-rule:evenodd;fill:#85B04B;}
	.st78{fill:#509733;}
	.st79{fill:#203F1E;}
	.st80{fill:#20963A;}
	.st81{fill:#62246B;}
	.st82{fill:#FDCA02;}
	.st83{fill:#B4CD50;}
	.st84{fill:#5C792A;}
	.st85{fill:#C29347;}
	.st86{fill:#4D5C22;}
	.st87{fill:none;}
	.st88{fill:#E19C11;}
	.st89{fill:#E5C997;}
	.st90{fill:#009245;}
	.st91{fill:#48AE4D;}
	.st92{fill:#049348;}
	.st93{fill:#04683B;}
	.st94{fill:#F8AE4C;}
	.st95{fill:#C57B39;}
	.st96{fill:#231F20;}
	.st97{fill:#BC2333;}
	.st98{fill:#EF7A7B;}
	.st99{fill:#46AE51;}
	.st100{fill:#07924B;}
	.st101{fill-rule:evenodd;clip-rule:evenodd;fill:#231F20;}
	.st102{fill:#279A9A;}
	.st103{fill:#8E3189;}
	.st104{fill:#9F6E8E;}
	.st105{fill:#3C3C3B;}
	.st106{fill:#00A69C;}
	.st107{fill:#D5DB41;}
	.st108{fill:#E04542;}
	.st109{fill:#9F1F3B;}
	.st110{fill:#EB5C35;}
	.st111{fill:#F9B233;}
	.st112{fill:#008D36;}
	.st113{fill:#F39200;}
	.st114{fill:#F2D8BD;}
	.st115{fill:#3AAA35;}
	.st116{fill:#95C11F;}
	.st117{fill:#7F5FA5;}
	.st118{fill:#5FA55F;}
	.st119{fill:#A55F8F;}
	.st120{fill:#229538;}
	.st121{fill:#622369;}
	.st122{fill:#FCC804;}
	.st123{fill:#628FB8;}
	.st124{fill:#B2B2B2;}
	.st125{fill:#63B8A4;}
	.st126{fill:#FDCE6C;}
	.st127{fill:#C8DADC;}
	.st128{fill:#ED6B6E;}
	.st129{fill:#EC6365;}
	.st130{fill:#8FC14D;}
	.st131{fill:#FECE6C;}
	.st132{fill:#037132;}
	.st133{fill:#B5CD25;}
	.st134{fill:#137E35;}
	.st135{fill:#7DBA28;}
	.st136{fill:#50AE32;}
	.st137{fill:#04612D;}
	.st138{fill:#F0828B;}
	.st139{fill:#63348B;}
	.st140{fill:#CF75AC;}
	.st141{fill:#895B7E;}
	.st142{fill:#AD94C4;}
	.st143{fill:#C581AB;}
	.st144{fill:#D1BAB0;}
	.st145{fill:#EF7B7C;}
	.st146{fill:#F7C0C2;}
	.st147{fill:#4F1C31;}
	.st148{fill:#9C3760;}
	.st149{fill:#A8768F;}
	.st150{fill:#A04170;}
	.st151{fill:#6CB863;}
</style>
<g>
	<path class="st74" d="M319.7,256.8c0.2,0.1,0.4,0.1,0.5,0.2c5.1,4.3,8.2,9.8,9.9,16.2c1.4,5.2,0.9,10.3-0.6,15.4
		c-1.6,5.4-4.2,10.2-7.8,14.5c-7.8,9.2-17.6,14.9-29.4,17.2c-3.3,0.6-6.6,1-10,1c-4.8-0.1-9.5-1.1-14-2.7c-12-4.3-21.7-11.7-29.1-22
		c-4.3-5.9-7.5-12.3-10.1-19.1c-3.2-8.6-5.6-17.5-7-26.6c-0.9-5.9-1.5-11.8-1.9-17.7c-0.2-3.7-0.4-7.4-0.5-11.2
		c-0.2-5.9,0.2-11.8,0.8-17.7c0.1-1.2,0.2-2.3,0.2-3.5c0-0.8,0.3-1.5,0.9-2c0.4-0.4,0.8-0.7,1.3-1.1c0.6-0.5,1.3-1,2-1.5
		c6.8-4.5,13.3-9.2,20.4-13.2c8.6-5,17.3-9.6,26.5-13.4c6.5-2.7,13.2-4.5,20-5.9c4.7-1,9.4-1.7,14.2-2.2c8.2-0.7,16.4-0.3,24.3,2.2
		c2.6,0.8,5.1,1.7,7.5,2.9c11.5,5.7,19.2,14.6,22.9,27c1.4,4.6,2.1,9.3,1.8,14.2c-0.2,5-1.3,9.9-3.1,14.6
		c-3.5,9.5-9.1,17.5-16.7,24.1c-4.7,4.2-10.3,6.7-16.3,8.4c-2.2,0.6-4.5,1.1-6.7,1.6C319.8,256.6,319.7,256.7,319.7,256.8z
		 M304.9,257.1c-0.3-0.2-0.5-0.3-0.6-0.3c-4.9-2.6-8.3-6.4-10.2-11.6c-1.8-4.8-1.9-9.7-1-14.7c0.8-4.2,2.4-8.1,4.8-11.5
		c2.5-3.7,5.3-7.2,8-10.8c3.2-4.1,4.5-8.7,3.6-13.8c-0.6-3.8-3.1-7.3-8.1-7.7c-1.7-0.1-3.3,0.2-4.6,1.4c-2.5,2.2-4.1,4.9-4.6,8.1
		c-0.4,2.3,0.2,4.4,1.9,6.1c1.6,1.7,3.7,2.1,5.8,1.1c1.1-0.5,1.7-1.4,2.2-2.4c0.4-0.9,0.1-1.7-0.3-2.5c-0.4-0.7-0.3-1.3,0.2-1.7
		c0.5-0.5,1.1-0.5,1.7-0.2c1.2,0.5,2.1,1.4,2.5,2.7c0.7,2.1,0.3,4-1.2,5.7c-3,3.3-6.8,4.3-11,3c-2.8-0.8-5-2.4-6.3-5.1
		c-2.5-5.2-1.7-12,2.1-16.1c0.2-0.2,0.3-0.4,0.6-0.8c-0.4,0.1-0.6,0.1-0.8,0.2c-5.3,1.6-10.6,3.1-15.9,4.9c-12,4-23.8,8.6-35.5,13.3
		c-1.8,0.7-3.5,1.5-5.3,2.2c-0.6,0.2-0.9,0.7-0.9,1.3c0,0.7-0.1,1.4,0,2.1c0.1,3,0.8,5.8,1.9,8.6c2,5.2,4.7,9.8,8.9,13.5
		c3.8,3.4,8.3,5.7,13.1,7.2c3.8,1.1,7.7,1.5,11.7,0.9c5.2-0.8,8.8-3.5,10.4-8.6c1.6-5.1,1.6-10.2-0.1-15.2c-0.9-2.8-2.5-5.1-4.8-6.9
		c-1.1-0.9-2.3-1.4-3.8-1.6c-1.4-0.2-2.8-0.1-4.2,0.2c-3.8,0.9-6.4,3.1-7.2,7c-0.1,0.4-0.2,0.7-0.2,1.1c-0.4,3.4,0.3,6.4,2.6,8.9
		c0.4,0.5,0.9,0.8,1.6,0.9c1,0.2,2.1,0.3,3.2,0c1.1-0.3,2,0.5,1.9,1.6c0,0.6-0.3,1.2-0.8,1.7c-0.8,0.9-1.7,1.4-2.9,1.7
		c-2.7,0.5-5.2-0.1-7.3-1.9c-2.8-2.4-4.4-5.5-4.6-9.3c-0.2-3.9,0.8-7.4,2.6-10.8c1.3-2.4,3.1-4.4,5.6-5.7c3.3-1.7,6.7-2.2,10.3-1.5
		c4,0.8,7.4,2.9,10,6.1c3.1,3.7,4.9,7.9,5.7,12.6c0.7,3.8,0.5,7.6-0.8,11.2c-2,5.7-6,9.5-11.4,11.9c-0.5,0.2-0.9,0.4-1.4,0.6
		c0.2,0.1,0.4,0.2,0.6,0.3c2.8,1.1,5.5,2.6,8,4.3c6.7,4.6,11.2,10.7,13.6,18.4c0.1,0.2,0.1,0.4,0.2,0.7c1.6-2,3-4.1,4.6-6
		C300.6,260.1,302.6,258.6,304.9,257.1z M318,210.7c0.1,0.1,0.1,0.2,0.1,0.2c0.3,0.1,0.6,0.2,0.9,0.3c2.8,1,4.9,2.7,6.4,5.2
		c0.5,1,1,1.9,1.5,2.9c1.1,2.5,1.4,5.2,1,7.9c-0.7,4.1-3.4,6.8-7,8.6c-3,1.6-8.5,0.5-10.4-3.5c-0.1-0.3-0.3-0.6-0.4-0.8
		c-0.7-1.2-0.7-2.6-0.5-3.9c0.1-0.5,0.3-0.9,0.9-1c0.5-0.1,0.9,0.2,1.1,0.6c0.2,0.4,0.5,0.9,0.6,1.4c0.5,1.5,1.5,2.5,2.8,3.3
		c1.5,0.9,3.1,1,4.7,0.2c2.1-1.1,3.2-2.8,3.8-5c0.1-0.5,0.2-1.1,0.1-1.7c-0.9-4.2-3.6-6.8-7.6-8.1c-1.1-0.3-2.2-0.3-3.3-0.1
		c-3,0.6-5.5,2.3-7.4,4.7c-3.1,3.9-4.4,8.4-4.2,13.3c0.1,2.5,0.5,4.9,1.1,7.3c0.9,3.6,2.8,6.5,5.7,8.8c2.5,2,5.2,2.2,8.1,1.2
		c2.6-0.9,5.2-2.1,7.6-3.4c5.8-3,10.4-7.2,13.5-12.9c0.7-1.3,1.4-2.5,2-3.8c2.3-5,4-10.2,5-15.6c0.8-4.3,1.4-8.7,1-13.1
		c-0.1-1.5-0.4-3.1-0.8-4.7c-0.2,0.2-0.3,0.3-0.4,0.4c-2.4,3.3-5.6,5.5-9.4,6.9c-2.5,0.9-5.2,1.4-7.8,1.9c-2.4,0.5-4.7,0.9-7,1.7
		C319,210.2,318.5,210.5,318,210.7z M253.9,284.7c-0.1-0.2-0.1-0.3-0.2-0.5c-2.1-4-2.9-8.3-2.2-12.8c0.8-5.4,3.7-9.6,8.4-12.5
		c1.7-1,3.5-1.6,5.5-1.4c4,0.3,7.8,3.3,8.9,7.2c0.7,2.6,0.2,5-1.3,7.1c-0.4,0.7-1.1,1.1-1.9,1.3c-0.6,0.2-1.1,0-1.4-0.5
		c-0.3-0.4-0.3-1,0-1.5c0.2-0.3,0.4-0.5,0.6-0.7c0.8-0.7,1-1.7,0.8-2.7c-0.3-1.6-1.1-2.9-2.6-3.8c-3.1-1.8-6.9-1.1-9,1.9
		c-1.6,2.2-2.4,4.8-2.2,7.5c0.4,5.2,2.8,9.4,7,12.5c1.2,0.9,2.5,1.5,4,1.8c1,0.2,2,0.4,3.1,0.4c4.6,0.2,8.5-1.4,11.4-5
		c2.5-3.1,3.8-6.7,4-10.6c0.2-2.8-0.7-5.2-2.1-7.6c-1.4-2.2-3.1-4.1-5.1-5.8c-4.6-3.8-9.8-6.6-15.3-9.1c-4.4-2-8.7-4-13.1-6
		c-0.1,0-0.2-0.1-0.3-0.1c-0.1,0.1-0.1,0.1-0.1,0.1c0,0.3,0,0.6,0,0.8c0.1,1.8,0,3.6-0.6,5.3c-0.8,2.5-2,4.8-4.1,6.5
		c-2.6,2-5.5,2.6-8.6,1.1c-0.1,0-0.2-0.1-0.5-0.2c1.5,4.1,3.1,8,5,11.7C245.1,275.1,248.8,280.3,253.9,284.7z M314.2,259
		c-0.3,0-0.5,0-0.8,0c-0.3,0-0.7,0.1-1,0.1c-3.4,0.7-6.4,2.3-9.2,4.3c-2.4,1.7-4.2,4-5.6,6.6c-0.2,0.3-0.3,0.6-0.4,0.9
		c-1,2.6-1.4,5.3-1.1,8.1c0.4,2.7,1.5,5,3.8,6.6c4.1,2.8,8.5-0.3,9.3-3.8c0.3-1.3,0.2-2.5-0.7-3.5c-1.1-1.2-2.5-1.3-3.7-0.2
		c-0.3,0.3-0.5,0.6-0.8,0.8c-0.8,0.8-1.9,0.5-2.2-0.6c-0.2-0.6-0.1-1.2,0.2-1.8c0.9-2.1,3.5-3.6,5.7-3.2c2.6,0.5,4.4,1.9,5.4,4.4
		c1,2.4,0.8,4.8-0.5,7.1c-1.2,2.2-3,3.8-5.2,5c-3.2,1.8-6.5,1.7-9.8,0.3c-2.5-1.1-4.1-3-5.1-5.5c-0.1-0.3-0.3-0.6-0.4-1
		c-0.5,0.7-0.8,1.3-1.2,1.9c-0.4,0.6-0.8,1.2-1.2,1.8c-4,5.5-9.7,7.8-16.3,8.2c-2.1,0.1-4.1-0.4-6.1-0.9c-0.3-0.1-0.7-0.2-1-0.3
		c0.8,0.7,1.6,1.3,2.6,1.8c6.7,3.4,13.6,6.1,21,7.1c2.8,0.4,5.7,0.7,8.6,0.3c2.1-0.3,4.1-0.7,5.9-1.7c4.8-2.7,8.3-6.6,10.5-11.6
		c1.6-3.7,2.5-7.5,2.8-11.5c0.4-5.1-0.2-10.2-1.7-15.1C315.5,262.1,314.9,260.5,314.2,259z M316.3,207c0.5-0.2,0.7-0.3,1-0.4
		c2-0.9,4.1-1.4,6.3-1.8c1.7-0.3,3.4-0.5,5.1-0.9c2.7-0.6,5.2-1.6,7.4-3.3c2.1-1.6,3.3-3.7,3.6-6.3c0.2-1.3-0.2-2.3-1.2-3.1
		c-0.4-0.3-0.9-0.7-1.3-0.9c-2.8-1.1-5-0.3-6.2,2.2c-0.2,0.4-0.2,0.9-0.3,1.4c0,0.7,0.3,1.2,1,1.4c0.6,0.2,1.2,0.2,1.7,0.2
		c0.4,0,0.8,0.1,1,0.5c0.2,0.4,0.2,0.8-0.1,1.2c-0.3,0.6-0.9,0.9-1.5,1c-1.6,0.4-3.1-0.2-4.1-1.5c-0.9-1.2-1.1-2.6-1.1-4
		c0.1-2.5,1.3-4.5,3.1-6.2c1.1-1,2.4-1.8,3.9-2.2c-0.1-0.1-0.1-0.2-0.2-0.3c-0.3-0.2-0.5-0.3-0.8-0.5c-3.7-1.9-7.7-2.7-11.8-2.8
		c-4-0.1-7.9,0.3-11.8,0.8c-0.4,0.1-0.9,0.2-1.5,0.3c0.3,0.2,0.4,0.3,0.5,0.4c2.1,1.1,3.7,2.7,4.9,4.7c3.8,5.9,4.6,12.2,2.5,18.9
		C316.6,206.1,316.5,206.4,316.3,207z M233.9,247.6c0.2-0.5,0.3-0.8,0.4-1.1c0.4-0.6,0.7-1.4,1.2-1.9c2.2-2.4,6.1-1.9,7.6,1
		c0.4,0.7,0.5,1.5,0.3,2.3c-0.1,0.4-0.4,0.7-0.8,0.7c-0.3,0-0.6-0.2-0.9-0.4c-0.2-0.1-0.2-0.4-0.3-0.6c-0.6-1.2-1.7-1.4-2.7-0.6
		c-0.3,0.2-0.5,0.5-0.7,0.8c-1.4,2-0.1,5.4,2.3,6c0.4,0.1,0.8,0.1,1.2,0.1c1.4-0.2,2.6-0.8,3.6-1.8c2.3-2.4,1.9-6.5,0.3-8.2
		c-0.9-1-1.9-2-2.9-2.9c-0.7-0.6-1.5-1.2-2.2-1.8c-4.7-3.7-8.1-8.3-10.4-13.8c-0.1-0.2-0.2-0.4-0.2-0.6
		C230,232.6,231.6,240.1,233.9,247.6z"/>
	<path class="st74" d="M217.2,92.2c0.3-0.4,0.5-0.6,0.7-0.8c3.9-4.7,8.1-9.1,13-12.9c6.8-5.4,14.4-8.7,23-9.6
		c11.5-1.2,21.9,1.6,30.7,9.2c6.4,5.6,10.3,12.6,11.6,21.1c1.1,7.5,0.2,14.7-2.2,21.8c-2,6.1-5,11.7-8.5,17
		c-5.1,7.8-11.2,14.7-18.1,21c-10.3,9.4-21.4,17.8-33.4,25c-5.2,3.1-10.3,6.3-15.7,9.1c-0.7,0.4-1.5,0.8-2.3,1.1
		c-1.9,1-3.8,1.1-5.8,0.6c-2.9-0.8-5.7-1.9-8.4-3.2c-8.6-4.1-16.6-9.2-23.8-15.5c-6.2-5.5-12.1-11.4-17.4-17.9
		c-3.2-3.9-6-8.1-8.7-12.3c-3.4-5.1-6.5-10.4-9.3-15.9c-3.4-6.7-5.7-13.7-6.6-21.1c-1.4-11.5,1.3-21.9,8.9-30.9
		c2.8-3.3,6.1-6,10-7.9c5.4-2.8,11.2-4.5,17.3-5.1c5.2-0.5,10.2,0.1,15.2,1.4c7.4,2,14,5.4,19.6,10.7c3.4,3.2,6.1,6.9,8.1,11.1
		C215.9,89.5,216.6,90.8,217.2,92.2z M261.8,105.5c-0.6-1.1-0.8-2.2-1-3.3c-0.3-2,0.3-3.8,1.6-5.3c0.7-0.8,1.8-0.6,2.2,0.3
		c0.1,0.2,0.1,0.4,0.2,0.5c0.2,0.7,0.4,1.3,0.6,2c0.7,2,3,3.2,4.7,2.5c1.6-0.7,2.7-1.8,2.9-3.6c0.3-2.1-0.2-4.1-1.3-5.9
		c-0.8-1.3-2-2.2-3.5-2.6c-3.4-0.8-6.6-0.3-9.6,1.6c-1.8,1.1-3.2,2.6-4.5,4.2c-2.2,2.9-3.7,6.2-4.9,9.6c-0.7,2.2-1.5,4.4-2.3,6.6
		c-0.7,2.1-1.8,4-3.1,5.8c-1.7,2.2-3.7,4-6.4,4.9c-3.3,1.1-6.6,1.6-10.2,0.9c-3.5-0.7-6.4-2.2-8.7-4.9c-1-1.2-2-2.5-2.8-3.9
		c-2.9-4.7-4-9.8-2.9-15.3c0.3-1.4,0.8-2.7,1.2-4.3c0,0-0.1,0-0.2-0.1c-3.4-3-6.9-5.7-10.6-8.2c-3.8-2.5-7.8-4.4-12.1-5.8
		c-0.2-0.1-0.4-0.1-0.8-0.2c0.2,0.2,0.3,0.3,0.4,0.4c3.4,3.3,5.7,7.4,7.1,11.9c1.2,3.9,1.5,8,1.2,12.1c-0.3,4.6-1.2,9-2.8,13.3
		c-0.1,0.2-0.1,0.3-0.1,0.5c0.2,0,0.3,0,0.3,0c0.2,0,0.4,0,0.7-0.1c3.3-0.4,6.5-0.3,9.7,0.7c7.8,2.3,13.1,7.1,15.2,15.1
		c0,0.1,0.1,0.2,0.2,0.3c0.2-0.2,0.3-0.3,0.3-0.5c1.8-2.5,4.1-4.4,6.8-5.8c3.7-2,7.6-2.5,11.6-1.4c2.8,0.7,5.4,2,8,3.5
		c2.6,1.5,5.2,3,7.9,4.4c1.3,0.7,2.6,1.1,4,1.5c3.7,1.1,7.5-0.5,8.8-4.6c0-0.1,0.1-0.2,0.1-0.3c1.3-3.6,1.3-7.2,0.6-10.9
		c-0.4-2.2-1.1-4.2-2.5-6c-1.4-1.9-3.1-3.4-5.3-4.1c-2.3-0.7-5.1,0.2-6.3,2.2c-1.6,2.8-1.9,5.7-0.7,8.7c0.8,2,2.5,2.4,3.9,2.5
		c0.6,0,1.1-0.2,1.5-0.6c0.5-0.5,0.8-1,0.8-1.7c0-0.8,0.6-1.4,1.3-1.4c0.7,0,1.2,0.5,1.4,1.3c0.2,1.2,0,2.2-0.7,3.2
		c-1.4,1.9-3.4,2.7-5.7,2.3c-3-0.6-5.2-2.5-6.4-5.4c-1.4-3.7-1.2-7.3,0.6-10.8c1.5-3,4-4.7,7.2-5.5
		C260.2,105.6,260.9,105.6,261.8,105.5z M171.6,154.8c0.1,0,0.1-0.1,0.2-0.1c-0.1-0.2-0.1-0.4-0.2-0.6c-0.2-1.1-0.5-2.1-0.6-3.2
		c-0.4-2.9,0.1-5.7,0.9-8.4c1-3.6,2.6-7,4.5-10.2c1.7-2.9,3.5-5.7,5.2-8.6c1.7-2.8,3.4-5.6,4.7-8.6c2.8-6.4,3.4-12.9,2-19.7
		c-1.2-5.6-4.6-9.6-9.8-11.9c-1.8-0.8-3.8-1.1-5.8-0.7c-2.6,0.4-4.9,1.5-7.1,2.8c-1.6,1-2.9,2.2-3.9,3.7c-3,4.3-3.8,9.1-2.6,14.2
		c0.5,2.2,1.4,4.1,2.9,5.8c2.2,2.6,6.1,3.5,9,2.1c3-1.4,4.8-3.7,5.3-7c0.3-2.2-0.8-4.2-2.8-5.1c-1.4-0.7-2.5-0.4-3.5,0.8
		c-0.1,0.1-0.2,0.2-0.3,0.4c-0.6,0.7-1.3,0.9-2,0.6c-0.7-0.3-1.1-1-1-1.8c0.1-0.7,0.2-1.4,0.5-2c2.3-4.2,8.7-5.8,12.4-1.5
		c1.8,2.1,2.7,4.5,2.8,7.2c0.1,5.9-3.9,11.4-9.6,13.2c-0.3,0.1-0.7,0.2-1.2,0.4c0.4,0.4,0.7,0.7,1,1c2.5,2.6,3.4,5.5,2.3,9
		c-0.5,1.6-1.6,2.8-2.9,4c-1,0.9-2.2,1.4-3.5,1.6c-2.2,0.2-4.4-1.2-5.1-3.3c-0.3-0.9-0.4-1.7,0-2.6c0.2-0.5,0.5-0.8,1-0.8
		c0.5,0,0.7,0.3,1,0.9c0.2,0.6,0.5,1.2,0.8,1.7c1.2,1.4,2.8,1.6,4.2,0.1c1.7-1.8,1.6-5.2-0.1-7c-1.9-2-6.5-2.8-9-0.1
		c-1.1,1.2-1.9,2.5-2.5,3.9c-2.1,5-1.4,9.9,1.1,14.4c3.1,5.5,7.1,10.4,11.2,15.1C171.3,154.6,171.5,154.7,171.6,154.8z M211.7,158
		c-0.6,0.1-0.9,0.2-1.3,0.3c-3.5,0.7-6.7,0.1-9.5-2.3c-2.2-1.8-3.3-4.1-3.6-6.9c-0.1-0.5,0-1.1,0.1-1.7c0.3-1,1.2-1.3,2.1-0.9
		c0.6,0.3,1,0.8,1.3,1.3c0.2,0.5,0.5,1.1,0.7,1.6c1.2,3.5,5,4.6,7.4,4.1c1.8-0.4,3.5-1.2,4.8-2.6c2-2.2,3.1-4.8,3-7.7
		c-0.1-5.3-2.5-9.5-7-12.4c-1.6-1-3.4-1.8-5.2-2.3c-2.3-0.6-4.5-0.9-6.9-0.5c-3.5,0.6-6.5,2.2-9,4.7c-5.1,5.1-6.7,11.4-5.8,18.4
		c0.3,2.8,1.4,5.5,2.6,8c3.3,7.1,8.2,12.8,14.3,17.6c0.1,0.1,0.2,0.1,0.4,0.2c0-0.5-0.1-0.9-0.1-1.3c0-2.6,0.8-5,2.3-7.1
		c1.4-2.1,3.1-4,4.9-5.8c1.4-1.3,2.6-2.7,3.9-4C211.3,158.6,211.5,158.3,211.7,158z M268.9,85.9c0-0.1,0.1-0.1,0.1-0.2
		c-0.2-0.1-0.3-0.2-0.5-0.3c-4-3.4-8.6-5.3-13.8-5.6c-4.4-0.3-8.7,0.4-12.9,1.8c-5,1.7-9.6,4.2-13.9,7.3c-2.4,1.7-4.4,3.9-6.2,6.3
		c-0.3,0.3-0.5,0.7-0.7,1.1c-1.6,3.3-2.4,6.7-2,10.4c0.5,3.6,1.9,6.7,4.6,9.1c1.6,1.5,3.6,2.3,5.7,2.6c0.8,0.1,1.6,0.1,2.4-0.1
		c2.1-0.5,3.5-1.9,4.5-3.8c0.7-1.3,1.1-2.8,1.3-4.3c0.2-2.2,0.1-4.4-0.9-6.4c-0.7-1.5-1.7-2.6-3.3-3.2c-2.4-0.9-4.5,0-5.6,2.3
		c-0.4,1-0.6,2-0.6,3.1c0,0.4,0,0.8-0.2,1.2c-0.2,0.5-0.6,0.9-1.2,0.9c-0.6,0.1-1.1-0.2-1.4-0.7c-0.2-0.3-0.3-0.7-0.4-1.1
		c-0.2-1.1-0.2-2.2,0-3.3c0.9-5,5-7.6,9.3-7.5c3.2,0.1,5.8,1.4,7.8,3.9c1.2,1.5,2.1,3.1,2.7,4.8c0.1,0.2,0.2,0.5,0.3,0.8
		c0.1-0.1,0.2-0.1,0.2-0.2c0.1-0.3,0.2-0.5,0.3-0.8c2.1-6.1,6-11,11.1-14.9c3.1-2.4,6.6-3.7,10.6-3.6
		C267.1,85.6,268,85.8,268.9,85.9z M235.6,131.6c0,0.1,0,0.1,0,0.2c0.1,0,0.3,0.1,0.4,0.1c3.9,1.2,6.5,3.8,7.8,7.6
		c1.4,3.9,0.7,7.5-1.8,10.8c-2.3,3.1-5.7,2.8-8.2,1.5c-0.4-0.2-0.8-0.6-1.1-1c-0.4-0.6-0.3-1.3,0.1-1.7c0.5-0.5,1.1-0.5,1.7-0.1
		c0.3,0.2,0.5,0.4,0.8,0.5c0.3,0.1,0.6,0.2,0.9,0.2c1.3-0.2,2.4-0.8,3.1-2c0.7-1.1,0.9-2.3,0.8-3.6c-0.3-4-4.8-7.2-8.7-6.2
		c-2.2,0.5-4,1.6-5.4,3.4c-2.4,2.9-3.4,6.2-2.8,10c0.7,4.7,2.6,8.7,6.2,11.8c2.3,2,5,3.3,8,3.9c0.8,0.2,1.4,0,2.1-0.5
		c3.5-2.5,6.8-5.1,10.1-7.8c5.5-4.6,10.4-9.8,14.5-15.8c0.2-0.3,0.4-0.6,0.6-1c-0.2,0-0.3,0-0.4,0.1c-2.4,0.8-4.8,0.6-7.2-0.2
		c-2.3-0.7-4.3-1.9-6.3-3.3c-1.7-1.2-3.5-2.5-5.3-3.6c-2.1-1.3-4.3-2.4-6.7-2.9C238,131.8,236.8,131.6,235.6,131.6z M217.9,158.5
		c-0.2,0.2-0.3,0.3-0.5,0.4c-1.8,1.6-3.7,3.2-5.5,4.8c-0.9,0.7-1.8,1.4-2.7,2.1c-2,1.7-3.6,3.6-4.7,6c-0.2,0.4-0.3,0.8-0.3,1.2
		c-0.3,3.1,1.3,6.2,4,7.7c1.8,0.9,3.5,0.9,5.1-0.3c1.7-1.2,2.6-3,2.2-5.1c-0.2-1-0.6-2-1.6-2.5c-1.1-0.6-2.3-0.2-2.8,0.9
		c-0.1,0.2-0.2,0.5-0.3,0.7c-0.4,0.7-1.2,0.6-1.6,0c-0.2-0.4-0.3-0.8-0.3-1.2c0-2.1,1.7-4.2,3.7-4.6c2.3-0.4,4.1,0.4,5.5,2.1
		c1.7,2.1,2.4,4.6,1.9,7.3c0,0.3-0.1,0.5-0.2,1c3.4-2,6.6-3.8,9.9-5.7C223.5,170.2,220.1,165,217.9,158.5z M161.4,115
		c-0.2-0.1-0.2-0.2-0.4-0.3c-1.8-1.2-3.2-2.8-4.3-4.6c-2-3.3-2.9-7.1-3-10.9c-0.2-4.3,0.9-8.4,3.1-12.1c0.1-0.2,0.3-0.5,0.4-0.8
		c-0.4,0.1-0.6,0.3-0.8,0.5c-2.3,2.1-4.1,4.7-5.3,7.6c-1.8,4.1-2.2,8.4-2,12.9c0.4,6.3,1.8,12.4,4.1,18.3c0.1,0.2,0.2,0.5,0.4,0.9
		C154.6,121.5,156.7,117.3,161.4,115z M276,116.9c1-4.6,1.4-9.3,0.8-14.2c-2.2,2.7-4.5,4.8-7.9,5.5
		C272.1,110.6,274.4,113.5,276,116.9z"/>
	<path class="st74" d="M103.3,252.6c-1,0-1.8,0.1-2.7,0c-4.8-0.4-9.1-2.1-13.1-4.7c-3.8-2.4-6.8-5.6-9.6-9.2
		c-4.1-5.3-6.9-11.2-8.1-17.9c-0.8-4.1-0.8-8.2-0.2-12.3c1-7.4,4-13.9,8.8-19.7c3.3-3.9,7.3-6.8,11.8-9.2c4.4-2.3,9.2-3.8,14-4.9
		c5.3-1.1,10.7-1.8,16.1-1.5c3.8,0.2,7.6,0.5,11.4,1c14.4,1.8,28.2,6.2,41.7,11.4c9.8,3.8,19.5,7.6,29.3,11.4
		c0.7,0.3,1.4,0.6,2.1,0.9c1.3,0.6,2,1.7,1.9,3.2c0,0.8-0.1,1.6-0.1,2.3c-0.5,4.6-1.1,9.3-2,13.8c-1.5,8.4-3.7,16.7-6.5,24.7
		c-3.4,9.8-7.2,19.5-12,28.7c-3.5,6.8-7.6,13.1-12.7,18.9c-3,3.4-6.3,6.5-10,9.2c-5.9,4.4-12.6,7-19.8,8.2c-4,0.7-8.1,0.7-12.1,0
		c-3.5-0.6-6.9-1.9-10-3.6c-5.2-2.7-9.9-6-13.7-10.6c-3.9-4.8-6.8-10-7.9-16.2c-0.6-3.1-0.6-6.3-0.4-9.4c0.4-4.7,1.7-9.2,3.4-13.6
		C103,253.5,103.1,253.1,103.3,252.6z M151.6,194.7c0.2,0.3,0.4,0.5,0.5,0.8c1,1.6,1.6,3.3,1.6,5.1c0.2,5.9-3.8,10.5-9.6,11.2
		c-2.5,0.3-4.6-0.5-6.3-2.4c-2.1-2.5-2-5.7-0.6-8.2c0.4-0.7,1-1.3,1.8-1.6c0.7-0.3,1.4-0.4,2.1-0.1c0.9,0.4,1.1,1.2,0.5,2
		c-0.1,0.2-0.3,0.3-0.4,0.5c-1.8,2.5,0.1,5.2,2.1,5.8c0.3,0.1,0.6,0.1,0.8,0c0.9-0.2,1.8-0.5,2.6-1.1c2.3-2,3-4.5,2.3-7.4
		c-0.7-3-3.2-4.8-6.3-4.6c-2.1,0.2-3.9,0.9-5.5,2.1c-1.8,1.3-3.2,2.9-4.2,4.8c-1.6,2.8-2.6,5.9-3.1,9.1c-0.4,2.6,0,5,1.1,7.3
		c0.6,1.3,1.4,2.4,2.2,3.5c2,2.4,4.4,4.2,7.1,5.6c3.4,1.7,6.9,3.2,10.4,4.8c0.1,0,0.2,0,0.3,0c-0.2-1.2-0.4-2.3-0.5-3.4
		c-0.2-4.1,0.6-8.1,2.5-11.8c1.9-3.9,4.9-6.8,8.9-8.5c2.5-1.1,5.1-1.6,7.7-0.9c4.4,1.1,7.3,3.8,8.9,8.1c0.5,1.3,0.8,2.7,0.7,4
		c-0.3,4.4-2.4,7.7-6.1,10c-2.3,1.4-4.6,1-6.7-0.5c-0.3-0.2-0.5-0.5-0.7-0.8c-0.3-0.5-0.2-1,0.1-1.3c0.3-0.3,0.8-0.4,1.3-0.1
		c0.2,0.1,0.4,0.2,0.5,0.4c0.9,0.6,1.8,0.6,2.7,0.1c2-1.1,3.4-3.9,3-6.1c-0.6-3.3-3.8-5.5-7.1-4.8c-1.8,0.4-3.3,1.3-4.5,2.7
		c-2.7,3.1-3.9,6.7-3.6,10.7c0.2,3.4,1.9,6,4.9,7.6c3.1,1.7,6.4,1.6,9.5-0.3c1.7-1,3.1-2.4,4.2-4.1c1.5-2.4,2.7-5,3.6-7.6
		c1.1-3.2,2.2-6.5,3.4-9.7c1.1-3,2.8-5.7,5.2-7.9c0.1-0.1,0.1-0.2,0.2-0.4C176.8,201.6,164.4,197.5,151.6,194.7z M134,266.9
		c-0.4,0.3-0.7,0.6-1,0.9c-1.7,1.4-3.7,2.5-5.9,2.9c-3.7,0.6-6.9-1.2-8.2-4.7c-0.1-0.2-0.2-0.5-0.2-0.7c-0.1-0.5,0.3-1,0.7-1.2
		c0.4-0.1,0.9,0.1,1.1,0.6c0.1,0.3,0.2,0.6,0.3,0.9c0.4,0.9,1,1.5,1.9,1.8c1.1,0.4,2.3,0.5,3.5,0.3c2.4-0.5,4.4-1.8,5.8-3.9
		c3.1-4.7,2.7-11-1.4-15.3c-1.1-1.2-2.4-2-4-2.3c-3.1-0.5-6.1,0.1-8.7,1.9c-4.1,2.8-7.1,6.4-8.7,11.1c-0.7,2-1.2,4-1,6.1
		c0.1,2.2,0.6,4.3,1.2,6.4c1.3,4.9,3.3,9.4,6.4,13.5c3.1,4,6.9,7.1,11.8,8.7c4.2,1.4,8.6,1.7,13,1.3c0.4,0,0.8-0.1,1.3-0.2
		c-0.6-0.8-1.2-1.4-1.6-2.2c-1.1-1.9-1.6-3.9-1.5-6.1c0.1-2.1,1-3.8,2.7-5.1c2-1.5,5-1.1,6.6,0.8c0.5,0.6,0.8,1.4,0.7,2.2
		c0,0.4-0.2,0.8-0.7,0.9c-0.4,0.1-0.7-0.1-1-0.4c-0.2-0.3-0.4-0.6-0.7-0.9c-0.5-0.6-1.2-0.9-2-0.7c-1.1,0.2-1.9,0.8-2.2,1.9
		c-0.6,2.3,0.7,5.2,2.9,6.4c1.1,0.6,2.3,1,3.5,0.5c0.9-0.3,1.8-0.7,2.6-1.3c1.7-1.3,2.5-3.1,2.1-5.3c-0.4-2.3-1.5-4.2-3.4-5.7
		c-1.2-1-2.6-1.8-3.9-2.6c-2.3-1.4-4.7-2.8-6.9-4.3c-2.3-1.5-4-3.4-4.9-6.1C134.1,267.1,134.1,267,134,266.9z M136.3,191.6
		c-0.2,0-0.3-0.1-0.4-0.1c-4.5-0.7-9.1-1.1-13.6-1.2c-5.7-0.2-11.4,0.2-17,1.4c-6.2,1.4-11.8,4-16.5,8.4c-3.3,3.1-5.6,6.8-6.6,11.2
		c-1.5,6.5-1,12.8,1.4,19c2,5.1,5.2,9.1,10,11.9c0.5,0.3,0.9,0.5,1.4,0.7c3,1.3,6.2,1.9,9.4,2.7c1.5,0.4,3.5-0.6,4.1-2.2
		c0.7-1.7,1-3.4,0.6-5.2c-0.6-3.6-2.7-6.3-5.7-8.2c-1.3-0.9-2.7-1.2-4.3-1.1c-2,0.2-3.5,1-4.4,2.9c-0.5,1.1-0.2,2.5,0.6,3.3
		c0.9,0.9,2.2,1,3.4,0.4c0.2-0.1,0.4-0.2,0.6-0.4c0.8-0.5,1.4-0.2,1.7,0.6c0.3,0.9,0,1.9-0.8,2.5c-1.1,0.8-2.3,1.2-3.6,0.8
		c-2.8-0.8-4.4-2.7-5-5.4c-0.9-3.8,0.9-8.8,5.1-10.8c0.3-0.2,0.7-0.3,1.1-0.5c-0.2-0.2-0.3-0.3-0.4-0.4c-3.8-3.9-5.2-8.7-4.5-14
		c0.5-4.2,2.7-7.6,5.9-10.3c4.9-4.1,12.5-5.4,18.8,0.1c2.4,2.1,4.1,4.6,5.4,7.5c0.7,1.6,1.2,3.3,1.9,4.9c0.1-0.2,0.1-0.4,0.2-0.7
		c0.3-1.8,0.7-3.6,1.4-5.3c2-5.2,4.9-9.6,9.9-12.3C136.2,191.8,136.2,191.7,136.3,191.6z M157.3,286.7c0.2-0.2,0.4-0.4,0.6-0.6
		c1.1-1.5,2.3-3.1,3.3-4.7c1.2-1.8,2.1-3.8,2.7-5.9c1.3-4.5,1.5-9,0.7-13.6c-0.6-3.4-1.8-6.5-3.9-9.3c-2.6-3.4-6-5.6-10.1-6.5
		c-3.4-0.7-6.4,0.6-8.2,3.6c-0.3,0.5-0.5,0.9-0.7,1.4c-1.3,2.9-1.3,5.9-0.1,8.8c0.6,1.5,1.6,2.7,3.1,3.5c1.4,0.8,3,1,4.5,0.2
		c1.9-1,3.4-4,3.1-6.1c-0.2-1.3-1.2-2.1-2.5-2c-0.2,0-0.4,0.1-0.6,0.1c-0.8,0-1.3-0.7-0.9-1.4c0.2-0.4,0.5-0.8,0.9-1
		c0.9-0.6,1.9-0.6,2.9-0.3c2,0.6,3.1,2,3.5,3.9c0.9,3.7-0.2,6.8-3.1,9.2c-3.2,2.6-7.8,2.8-11.4,0.5c-0.2-0.2-0.5-0.3-0.7-0.4
		c0,0.1-0.1,0.1-0.1,0.2c0.7,0.8,1.3,1.6,2,2.3c1.6,1.7,3.5,3,5.5,4.2c1.2,0.7,2.4,1.4,3.6,2.2c2,1.4,3.7,3.1,4.8,5.3
		C157.1,282.4,157.6,284.4,157.3,286.7z M113.5,241.1c0.1-0.2,0.3-0.4,0.4-0.6c1.9-3,3.4-6.1,4.4-9.5c0.6-1.9,0.9-3.8,1-5.8
		c0.2-3.8,0-7.6-0.6-11.4c-0.5-3-1.4-5.9-2.9-8.6c-1.4-2.3-3.1-4.3-5.4-5.7c-2.4-1.5-4.9-1.6-7.4-0.2c-0.9,0.5-1.8,1.2-2.5,1.9
		c-2.8,3.1-4.2,6.8-3.6,11c0.3,2.1,1.1,3.9,2.6,5.4c1.1,1.1,2.5,1.7,4.1,1.5c3.8-0.4,6.4-4.9,4.9-8.5c-0.6-1.4-1.3-1.6-2.6-0.9
		c0,0-0.1,0-0.1,0c-1,0.5-1.8,0-1.8-1.1c0-0.8,0.4-1.4,0.9-2c1.8-1.9,5-2.4,7.2,0.2c1.4,1.7,2.1,3.7,1.9,5.9
		c-0.4,4.8-2.8,8.4-7.1,10.7c-0.1,0.1-0.3,0.2-0.4,0.3c2.8,2,4.6,4.6,5.8,7.8C113.4,234.6,113.9,237.7,113.5,241.1z M137.3,249.3
		c1.9-3.8,4.7-6.6,8.7-8.1c4.1-1.4,8-0.8,11.9,0.9c-0.3-0.3-0.6-0.6-1-0.8c-3-2.1-6.2-3.7-9.6-5.1c-3.7-1.5-7.3-3.1-10.7-5
		c-1.5-0.8-3-1.7-4.5-2.8c-2.6-1.9-4.8-4.2-6.1-7.2c0-0.1-0.1-0.2-0.3-0.4c-0.4,7.1-1.9,13.8-5.3,20
		C128.2,239.6,133.8,242.2,137.3,249.3z M165.3,244.4c0,0.1,0,0.1,0,0.2c0.1,0.2,0.3,0.4,0.4,0.6c1.8,3,3.2,6.1,4.2,9.5
		c1.2,4.4,1.7,9,1.6,13.5c0,0.3,0,0.6,0,1c0.2-0.1,0.2-0.1,0.3-0.2c0.1-0.1,0.2-0.3,0.3-0.4c7.2-11.3,12.8-23.4,16.7-36.3
		c1.4-4.7,2.8-9.3,3.6-14.2c0-0.2,0-0.4,0-0.9c-0.3,0.4-0.4,0.5-0.5,0.7c-1.2,1.7-2,3.7-2.8,5.6c-1.2,2.8-2.4,5.7-3.8,8.5
		c-2.7,5.5-7,9.2-12.6,11.4c-1.7,0.7-3.4,1-5.2,0.9C166.7,244.5,166,244.4,165.3,244.4z"/>
	<path class="st74" d="M206.8,280.5c0.3-6.7,0.4-13.6,0.8-20.4c0.4-6.5,0.6-13.1,0.7-19.6c0.1-5.3,0.5-10.5,1-15.7
		c0.6-6.2,1.5-12.4,2.5-18.6c0.1-0.6,0.2-1.2,0.4-1.8c0.1-0.4,0.3-0.8,0.6-1.2c0.8-1.1,2.3-0.9,2.8,0.4c0.2,0.4,0.2,0.9,0.2,1.4
		c-0.1,3.8-0.2,7.7-0.2,11.5c0,5.8,0,11.6,0.1,17.4c0.1,4,0.2,8.1,0.5,12.1c0.3,4.4,0.6,8.7,1.1,13.1c0.5,4.7,1.2,9.4,1.9,14.1
		c1.1,6.8,2.4,13.6,4.2,20.3c4.4,16.6,10.2,32.7,17.5,48.3c2.1,4.5,4.1,9,5.6,13.7c0.3,1.1,0.6,2.2,0.8,3.3c0.3,1.9-0.3,3.4-2,4.4
		c-2.1,1.3-4.3,2-6.7,2.6c-3.6,0.8-7.2,1.2-10.9,1.5c-1.4,0.1-2.9,0.1-4.3-0.3c-1.9-0.5-3.5-1.5-4.5-3.1c-0.7-1.2-1.4-2.4-2-3.7
		c-1.9-4.2-3-8.6-3.7-13c-1-5.8-1.9-11.6-2.7-17.4c-0.7-5.1-1.3-10.2-1.8-15.3c-0.5-5-0.9-10-1.2-15.1
		C207.2,293,207,286.8,206.8,280.5z"/>
</g>
</svg>
