<?xml version="1.0" encoding="utf-8"?>
<!-- Generator: Adobe Illustrator 21.1.0, SVG Export Plug-In . SVG Version: 6.00 Build 0)  -->
<svg version="1.1" id="Calque_1" xmlns="http://www.w3.org/2000/svg" xmlns:xlink="http://www.w3.org/1999/xlink" x="0px" y="0px"
	 viewBox="0 0 432 432" style="enable-background:new 0 0 432 432;" xml:space="preserve">
<style type="text/css">
	.st0{fill:#3B4F20;}
	.st1{fill:#8CB225;}
	.st2{fill:#020203;}
	.st3{fill:#4A5C2D;}
	.st4{fill:#FFFFFF;}
	.st5{fill:#E2CF1B;}
	.st6{fill:#718A2A;}
	.st7{fill:#DFBB20;}
	.st8{fill:#EAC839;}
	.st9{fill:#1B1B1B;}
	.st10{fill:#8EC045;}
	.st11{fill:#066938;}
	.st12{fill:#E5AD30;}
	.st13{fill:#4E4D4D;}
	.st14{fill:#8BB226;}
	.st15{fill:#CD1A25;}
	.st16{fill:#4B6426;}
	.st17{fill:#7D9E3C;}
	.st18{fill:#3C4F20;}
	.st19{fill:#384A1F;}
	.st20{fill:#E7E6E6;}
	.st21{fill:#D4A624;}
	.st22{fill:#F7F0E3;}
	.st23{fill:#D2A206;}
	.st24{fill:#CE9835;}
	.st25{fill:#E5D9C2;}
	.st26{fill:#E2AE42;}
	.st27{fill:#EEDBBE;}
	.st28{fill:#F9EA31;}
	.st29{fill:#EB6518;}
	.st30{fill:#0A7132;}
	.st31{fill:#FFE109;}
	.st32{fill:#D76013;}
	.st33{fill:#BBA763;}
	.st34{fill:#7FA22A;}
	.st35{fill:#5B321B;}
	.st36{fill:#4A2615;}
	.st37{fill:#D6AD08;}
	.st38{fill:#F7BBBD;}
	.st39{fill:#D76324;}
	.st40{fill:#607829;}
	.st41{fill:#715C3B;}
	.st42{fill:#644F34;}
	.st43{fill:#89704C;}
	.st44{fill:#B2A38F;}
	.st45{fill:#A59076;}
	.st46{fill:#FFDE0D;}
	.st47{fill:#34AA4A;}
	.st48{fill:#75388D;}
	.st49{fill:#BBBBBB;}
	.st50{fill:#A9A9AA;}
	.st51{fill:#06993B;}
	.st52{fill:#CDCCCC;}
	.st53{fill:#4D2563;}
	.st54{fill:#E3B320;}
	.st55{fill:#0B9541;}
	.st56{fill:#264D23;}
	.st57{fill:#FDC834;}
	.st58{fill:#8C633A;}
	.st59{fill:#B5A059;}
	.st60{fill:#F2F2F2;}
	.st61{fill:#808181;}
	.st62{fill:#62A930;}
	.st63{fill:#A1C746;}
	.st64{fill:#85B04B;}
	.st65{fill:#5E802C;}
	.st66{fill:#BFD783;}
	.st67{fill:#EFC9AF;}
	.st68{fill:#343434;}
	.st69{fill:#EB5B28;}
	.st70{fill:#D1A98D;}
	.st71{fill:#E0A9B8;}
	.st72{fill:#754D24;}
	.st73{fill:#B2D17B;}
	.st74{fill:#62B338;}
	.st75{fill:#274E22;}
	.st76{fill:#CCDC81;}
	.st77{fill-rule:evenodd;clip-rule:evenodd;fill:#85B04B;}
	.st78{fill:#509733;}
	.st79{fill:#203F1E;}
	.st80{fill:#20963A;}
	.st81{fill:#62246B;}
	.st82{fill:#FDCA02;}
	.st83{fill:#B4CD50;}
	.st84{fill:#5C792A;}
	.st85{fill:#C29347;}
	.st86{fill:#4D5C22;}
	.st87{fill:none;}
	.st88{fill:#E19C11;}
	.st89{fill:#E5C997;}
	.st90{fill:#009245;}
	.st91{fill:#48AE4D;}
	.st92{fill:#049348;}
	.st93{fill:#04683B;}
	.st94{fill:#F8AE4C;}
	.st95{fill:#C57B39;}
	.st96{fill:#231F20;}
	.st97{fill:#BC2333;}
	.st98{fill:#EF7A7B;}
	.st99{fill:#46AE51;}
	.st100{fill:#07924B;}
	.st101{fill-rule:evenodd;clip-rule:evenodd;fill:#231F20;}
	.st102{fill:#279A9A;}
	.st103{fill:#8E3189;}
	.st104{fill:#9F6E8E;}
	.st105{fill:#3C3C3B;}
	.st106{fill:#00A69C;}
	.st107{fill:#D5DB41;}
	.st108{fill:#E04542;}
	.st109{fill:#9F1F3B;}
	.st110{fill:#EB5C35;}
	.st111{fill:#F9B233;}
	.st112{fill:#008D36;}
	.st113{fill:#F39200;}
	.st114{fill:#F2D8BD;}
	.st115{fill:#3AAA35;}
	.st116{fill:#95C11F;}
	.st117{fill:#7F5FA5;}
	.st118{fill:#5FA55F;}
	.st119{fill:#A55F8F;}
	.st120{fill:#229538;}
	.st121{fill:#622369;}
	.st122{fill:#FCC804;}
	.st123{fill:#628FB8;}
	.st124{fill:#B2B2B2;}
	.st125{fill:#63B8A4;}
	.st126{fill:#FDCE6C;}
	.st127{fill:#C8DADC;}
	.st128{fill:#ED6B6E;}
	.st129{fill:#EC6365;}
	.st130{fill:#8FC14D;}
	.st131{fill:#FECE6C;}
	.st132{fill:#037132;}
	.st133{fill:#B5CD25;}
	.st134{fill:#137E35;}
	.st135{fill:#7DBA28;}
	.st136{fill:#50AE32;}
	.st137{fill:#04612D;}
	.st138{fill:#F0828B;}
	.st139{fill:#63348B;}
	.st140{fill:#CF75AC;}
	.st141{fill:#895B7E;}
	.st142{fill:#AD94C4;}
	.st143{fill:#C581AB;}
	.st144{fill:#D1BAB0;}
	.st145{fill:#EF7B7C;}
	.st146{fill:#F7C0C2;}
	.st147{fill:#4F1C31;}
	.st148{fill:#9C3760;}
	.st149{fill:#A8768F;}
	.st150{fill:#A04170;}
	.st151{fill:#6CB863;}
</style>
<g>
	<g>
		<g>
			<g>
				<path class="st54" d="M206.7,189.8c-0.2,0.4-0.3,0.7-0.4,0.9c-0.8,1.8-1.5,3.5-2.4,5.3c-0.4,0.9-1,1.7-1.6,2.4
					c-1.7,1.9-3.9,2.1-6,0.6c-1-0.7-1.8-1.7-2.4-2.8c-1.2-1.9-1.8-4-2.2-6.2c-0.2-0.9-0.3-1.7-0.4-2.6c0-0.2-0.1-0.5-0.2-0.9
					c-0.3,1.2-0.6,2.3-1,3.3c-0.8,2.5-1.7,4.9-3.1,7.1c-1.1,1.8-2.5,3.2-4.3,4.3c-2.8,1.6-6.9,1.6-9.9-1.7c-2.3-2.6-3.7-5.5-4.5-8.8
					c-0.3-1.5-0.5-3-0.7-4.4c0-0.3-0.1-0.6-0.3-1c-0.1,0.2-0.3,0.5-0.4,0.7c-1.8,3.6-4.1,6.9-7.2,9.6c-1,0.9-2.1,1.7-3.2,2.3
					c-3.7,2.1-7.4,2.1-11.1,0.1c-0.3-0.1-0.5-0.3-0.8-0.5c-0.8,0.5-1.5,1.1-2.3,1.6c-2.3,1.4-4.8,2.3-7.4,2.5c-1,0.1-2-0.1-3-0.2
					c-0.9-0.1-1.3-0.7-1.3-1.3c0.1-0.6,0.5-1,1.4-1.1c0.4-0.1,0.8-0.1,1.3-0.1c3.1,0,6-0.9,8.5-2.8c0.1-0.1,0.2-0.2,0.3-0.3
					c0,0,0.1-0.1,0.1-0.1c0-0.1-0.1-0.2-0.1-0.2c-3.3-3.4-5.3-7.6-6.5-12.2c-1.1-4.2-1.5-8.5-1.2-12.9c0.3-5.6,1.3-11,3.3-16.2
					c1.1-3,2.5-6,4.4-8.6c1.1-1.6,2.3-3,3.9-4.1c1.3-0.9,2.6-1.6,4.2-1.7c1.6-0.2,3.1,0.3,4.4,1.2c1.2,0.8,2.1,1.9,2.9,3.1
					c1.5,2.4,2.4,5,3,7.7c1.4,6.4,0.9,12.7-0.8,18.9c-1.4,5.1-3.5,9.9-6.2,14.5c-0.1,0.2-0.3,0.5-0.5,0.8c0.9,1,1.8,2.1,2.9,2.8
					c0.7,0.4,1.4,0.8,2.2,1.1c1,0.4,1.9,0.1,2.7-0.5c0.9-0.7,1.5-1.6,2.1-2.5c2.1-3.2,3.5-6.7,4.4-10.4c0.3-1.3,0.7-2.6,0.9-4
					c0.4-2.8,2-4.5,4.5-5.6c1.3-0.6,2.6-0.9,4-0.9c1.4,0,2.4,0.7,3,1.9c0.5,1,0.7,2,0.8,3c0.2,1.4,0.3,2.8,0.3,4.2
					c0.1,2.8,0.1,5.6,0.4,8.4c0.3,3.1,0.8,6.1,1.2,9.2c0.1,0.7,0.4,1.4,0.7,2.1c0.1,0.3,0.4,0.5,0.7,0.9c0.3-0.4,0.5-0.7,0.6-1
					c1.5-2.7,2.6-5.6,3.2-8.7c0.7-3.1,1.2-6.2,1.7-9.4c0.1-0.6,0.1-1.2,0.1-1.8c0-1.9,0-3.8-0.1-5.7c-0.1-1.7,0.7-2.8,2.3-3.4
					c0.9-0.3,1.8-0.6,2.7-0.8c0.9-0.2,1.9-0.4,2.8-0.5c1.6-0.3,2.9,0.4,3.6,1.9c0.5,1.1,0.6,2.3,0.7,3.5c0.3,3.5,0,7,0,10.5
					c0,4.1-0.1,8.3-0.1,12.4c0,0.4-0.1,0.7,0.3,1.1c0.2-0.3,0.3-0.6,0.5-0.9c0.9-2.1,1.7-4.1,2.6-6.2c1.1-2.4,1.8-4.9,2.1-7.6
					c0.3-2.7,1-5.2,2-7.7c0.7-1.8,1.7-3.5,3.1-4.8c1.4-1.4,3.1-2.2,5.1-2.2c2.9,0.1,5.2,1.4,6.9,3.8c0.3,0.5,0.5,1.1,0.6,1.7
					c0.1,0.4-0.2,0.8-0.6,1c-0.4,0.2-0.8,0.1-1.1-0.2c-0.4-0.4-0.7-0.8-1.1-1.2c-0.6-0.6-1.3-1.1-2-1.6c-0.3-0.2-0.7-0.3-1-0.3
					c-0.7,0-1.1,0.2-1.2,0.9c-0.2,0.9-0.4,1.8-0.5,2.8c-0.4,4.5,0,8.9,0.7,13.3c0.4,2.5,1.1,5,1.8,7.5c0.2,0.5,0.4,1,0.8,1.4
					c0.7,0.6,1.1,0.6,1.7-0.1c0.4-0.5,0.8-1.1,1.1-1.6c0.7-1.5,1.4-3,2-4.5c0.4-0.9,0.6-1.8,1-2.6c0.2-0.5,0.3-1,0.2-1.6
					c-0.4-4.4-0.8-8.8-1.1-13.2c-0.5-7.2-0.7-14.5-0.4-21.8c0.2-4.8,0.8-9.5,2.2-14.1c0.6-1.9,1.4-3.8,2.6-5.4
					c0.4-0.6,0.9-1.2,1.5-1.7c1.6-1.4,3.6-1.5,5.4-0.4c1.1,0.7,1.9,1.7,2.5,2.7c1.1,1.8,1.7,3.8,2,5.8c0.8,4.1,0.6,8.2-0.3,12.2
					c-1.1,4.8-2.7,9.5-5.3,13.8c-0.7,1.1-0.9,2.1-0.7,3.4c0.6,3.9,1.2,7.9,1.7,11.8c0,0.1,0.1,0.3,0.1,0.5c0.2-0.1,0.4-0.2,0.6-0.3
					c3.4-2.1,6.1-5,8-8.5c2.2-4,3.8-8.2,5.1-12.6c0.3-0.9,0.6-1.8,0.9-2.7c0.2-0.6,0.6-1.1,1.3-1.3c1.3-0.4,2.6,0.6,2.4,2
					c0,0.3-0.1,0.7-0.2,1c-1.2,3.9-2.5,7.8-4.1,11.5c-1.9,4.4-4.6,8.2-8.3,11.3c-0.1,0.1-0.2,0.2-0.2,0.2c0,0,0,0-0.1,0.1
					c0.4,0.1,0.8,0.1,1.1,0.2c3.3,0.4,5.9,1.9,7.9,4.5c1.7,2.2,2.7,4.8,3.3,7.6c0.6,2.9,0.9,5.9,0.9,8.9c0,4.4,0,8.8,0,13.2
					c0,1.1,0.1,2.3,0.1,3.5c0.3,0,0.6,0,0.9,0c3.3,0.1,6.6,0.4,9.7,1.3c2.1,0.6,4,1.5,5.9,2.6c2.8,1.6,4.8,4,6.1,7
					c1.5,3.4,0.9,6.5-1.2,9.4c-1,1.4-2.3,2.4-3.8,3.2c-0.9,0.4-1.8,1-2.7,1.4c-4.1,1.6-8.1,1.1-11.7-1.2c-3.2-2-5.8-4.8-7.7-8.1
					c-1.7-3-2.9-6.2-3.8-9.4c-0.1-0.2-0.1-0.4-0.2-0.7c-0.4,0-0.7,0.1-1.1,0.1c-5.5,0.9-10.9,2.1-16.3,3.4c-8.4,2-16.9,4.1-25.3,6.1
					c-7.5,1.8-15.1,3.2-22.8,4.4c-3.7,0.6-7.5,1.2-11.2,1.4c-2.8,0.2-5.6,0.3-8.3,0.3c-3.1,0-6.3-0.1-9.4-0.4
					c-6.2-0.6-12.3-2-17.9-4.7c-8.6-4-15.7-9.8-20.8-17.9c-2.9-4.5-4.7-9.5-5.5-14.7c-0.6-3.6-0.2-7.1,1.3-10.5
					c0.9-2.1,1.9-4.2,3-6.3c0.9-1.7,2.1-3.2,3.5-4.4c0.9-0.7,1.8-1.3,3-1.5c1.2-0.2,2.2,0.2,3.1,0.8c0.7,0.5,1,1.5,0.6,2.4
					c-0.3,0.7-0.7,1.4-1.2,2.1c-0.6,0.8-1.2,1.6-1.8,2.4c-1.8,2.5-3.2,5.2-3.9,8.2c-0.7,2.6-0.6,5.2,0.1,7.7c0.5,1.7,1.2,3.3,2,4.8
					c2.9,5.6,7,10.3,11.6,14.5c6.6,5.9,14.3,9.7,22.9,11.7c5.5,1.2,11.1,1.4,16.7,1.2c2.7-0.1,5.4-0.3,8.1-0.6
					c2.3-0.2,4.6-0.6,6.9-0.9c8.2-1.2,16.1-3.5,24-5.8c9.1-2.6,18.2-5.1,27.5-6.9c3.2-0.6,6.4-1.1,9.6-1.6c0.2,0,0.5-0.1,0.8-0.1
					c0-0.3,0-0.5-0.1-0.8c-0.2-1.9-0.4-3.8-0.6-5.8c-0.3-3.3-0.5-6.6-0.7-9.8c-0.2-2.5-0.6-5-1.5-7.4c-0.7-2-1.9-3.6-3.7-4.9
					c-0.2-0.1-0.4-0.3-0.6-0.4c-0.1,0-0.2-0.1-0.3-0.1c-0.1,0.4,0,0.7,0.1,1.1c0.5,3.2,1,6.5,1.5,9.7c0,0.3,0.1,0.6,0.1,0.8
					c0,2.5-1.2,4.1-3.6,4.8c-1.1,0.3-2.2,0.4-3.3,0.3c-1.4-0.1-2.4-0.8-2.9-2c-0.3-0.7-0.7-1.5-0.8-2.2c-0.6-2.9-1.1-5.8-1.7-8.7
					c-0.1-0.4-0.1-0.7-0.2-1.2c-0.2,0.2-0.3,0.4-0.3,0.5c-0.6,1.2-1.1,2.4-1.7,3.6c-1.2,2.3-2.8,4.3-4.9,5.8
					c-2.1,1.6-4.3,1.8-6.8,0.9c-1.4-0.5-2.6-1.4-3.6-2.6c-1.6-2-2.5-4.2-3.1-6.7C206.9,190.8,206.8,190.4,206.7,189.8z M151.2,182.6
					c0.1,0,0.1,0,0.2,0c0.1-0.3,0.3-0.6,0.4-0.8c1.6-3.8,2.7-7.7,3.8-11.6c0.9-3.7,1.6-7.4,2-11.1c0.4-3.8-0.3-7.5-1.7-11.1
					c-0.4-1-1-2-1.6-2.9c-0.2-0.4-0.6-0.8-1-1.1c-1.3-1.1-2.5-0.9-3.5,0.4c-0.7,0.9-1.2,2-1.5,3.1c-0.5,1.7-0.7,3.5-0.8,5.3
					c-0.3,4.8-0.1,9.6,0.5,14.3c0.5,4.3,1.4,8.4,2.5,12.6C150.7,180.6,151,181.6,151.2,182.6z M255.9,219.9c0.1,0.6,0.2,1.1,0.3,1.6
					c0.6,2.9,1.5,5.7,3.1,8.3c1.1,1.9,2.5,3.6,4.3,4.9c1.7,1.3,3.8,2,5.9,1.6c3.2-0.5,5.6-3.8,5.4-7.2c-0.1-2-1.1-3.7-2.5-5
					c-1.3-1.2-2.9-2-4.5-2.7c-3.7-1.4-7.6-1.7-11.5-1.6C256.1,219.9,256.1,219.9,255.9,219.9z M235.6,129.6
					c-0.3,0.4-0.6,0.8-0.7,1.3c-0.2,0.5-0.4,1.1-0.5,1.6c-0.6,2.7-0.7,5.4-0.6,8.2c0.3,4.5,0.6,9,0.9,13.5c0.1,0.7,0.2,1.4,0.2,2.2
					c0.1,0,0.1,0,0.2,0c0.1-0.3,0.3-0.6,0.4-0.9c0.6-1.9,1.3-3.9,1.9-5.8c0.7-2.6,1-5.3,1.3-8c0.2-2.2,0.1-4.3-0.2-6.4
					c-0.3-1.5-0.7-3-1.5-4.3C236.7,130.4,236.3,129.9,235.6,129.6z"/>
				<path class="st54" d="M275.2,191.9c0.1-3.6,0.2-7.2,0.3-10.8c0,0-0.1,0-0.1-0.1c-0.1,0.1-0.2,0.3-0.4,0.4
					c-0.8,1.1-1.6,2.3-2.5,3.4c-0.9,1-1.8,2-2.8,2.9c-2,1.8-4.8,2.2-7.3,0.9c-0.9-0.5-1.7-1.1-2.4-1.9c-2.3-2.5-3.5-5.4-4.2-8.7
					c-0.5-2.2-0.7-4.4-0.7-6.6c0-1,0.1-2.1,0.1-3.1c0.1-1.1,0.6-1.8,1.6-2.2c0.9-0.3,1.8-0.6,2.7-0.8c0.3-0.1,0.7-0.1,1.1-0.1
					c1.4-0.1,2.6,0.4,3.4,1.6c0.5,0.7,0.9,1.5,1.2,2.4c0.6,2,1.1,4.1,1.7,6.1c0.4,1.4,0.8,2.8,1.3,4.2c0.1,0.2,0.2,0.5,0.3,0.7
					c0.6,1.2,1.7,1.5,2.8,0.8c0.7-0.5,1.1-1.1,1.5-1.8c1-1.6,1.5-3.4,2-5.2c0.9-3.2,1.3-6.6,1.5-9.9c0.1-1.4,0.1-2.7,0.3-4.1
					c0.1-1.2,0.8-2.1,1.9-2.7c0.7-0.3,1.4-0.6,2.1-0.8c1-0.3,1.8,0,2.6,0.7c0.6,0.6,1,1.3,1.2,2.1c0.3,1.2,0.6,2.5,0.7,3.7
					c0.2,2.2,0.3,4.5,0.5,6.7c0.1,1.8,0.3,3.7,0.5,5.5c0.3,2.6,0.5,5.1,0.4,7.7c0,0.2,0,0.4,0,0.7c0.3-0.2,0.6-0.3,0.8-0.5
					c3.4-2.2,6.3-4.9,9.1-7.9c0.5-0.5,1-1.1,1.6-1.6c0.9-0.8,1.7-0.7,2.5,0.1c0.5,0.5,0.6,1.1,0.2,1.7c-0.4,0.6-0.9,1.3-1.4,1.9
					c-2.2,2.4-4.4,4.7-6.8,6.8c-1.7,1.5-3.6,2.9-5.6,4.1c-0.4,0.2-0.6,0.5-0.6,1c-0.2,3.5-0.6,6.9-1.6,10.2
					c-0.9,3.3-2.3,6.3-4.3,9.1c-1.2,1.7-2.6,3.1-4.5,4c-2,1-4.2,1.4-6.4,0.8c-2.2-0.6-4.2-1.6-5.7-3.4c-1.6-1.9-1.9-4.2-1.3-6.5
					c0.4-1.6,1.3-3,2.4-4.3c1.3-1.6,2.9-2.9,4.7-4c1.5-1,3.1-1.8,4.7-2.8C274.6,192.2,274.9,192.1,275.2,191.9z M274.9,194.9
					c-0.4,0.2-0.6,0.3-0.7,0.4c-1.8,1.3-3.7,2.5-5.5,3.9c-0.6,0.4-1.2,1-1.7,1.5c-1,1-1.7,2.2-2,3.6c-0.1,0.5-0.1,1,0,1.5
					c0.3,1,0.9,1.8,1.8,2.4c1.7,1.1,3.3,0.9,4.6-0.8c0.2-0.3,0.4-0.6,0.6-0.9c0.4-0.9,0.8-1.7,1.2-2.6c0.6-1.8,1-3.6,1.2-5.5
					C274.7,197.3,274.8,196.2,274.9,194.9z"/>
				<path class="st54" d="M325.2,158.4c0,7.4-2.7,13.9-7.1,19.7c-1,1.4-2.2,2.6-3.3,3.9c-1.6,1.9-3.3,3.8-4.9,5.8
					c-0.6,0.7-1.1,1.5-1.4,2.4c-0.7,2.1-1.4,4.1-2.1,6.2c-0.4,1.1-1.1,1.6-2.1,1.5c-1-0.1-1.7-0.7-1.7-1.7c-0.1-1.5,0-2.9,0.2-4.4
					c0.6-3.6,1.9-7,3.5-10.3c1.9-3.8,3.9-7.7,5.8-11.5c1.3-2.6,2.5-5.3,3.3-8.1c0.5-2,0.9-4,0.8-6c0-1.7-0.4-3.4-1.1-4.9
					c-1.8-3.9-5.9-4.7-8.9-3.6c-3.1,1.1-4.7,3.5-5.4,6.6c-0.4,2-0.3,3.9,0.3,5.9c0.3,1.2,1,2.1,2,2.8c0.2,0.2,0.5,0.4,0.7,0.6
					c0.4,0.4,0.4,0.8,0.2,1.3c-0.2,0.5-0.6,0.8-1,0.7c-0.5,0-1-0.1-1.5-0.2c-0.9-0.3-1.6-1-2.2-1.7c-1.3-1.5-2-3.3-2.4-5.2
					c-0.7-3.8,0-7.3,2.1-10.5c1.9-2.8,4.2-5,7.4-6.2c4.6-1.8,8.9-1.4,12.8,1.6c1.4,1.1,2.5,2.5,3.3,4.1c1.5,3.2,2.4,6.5,2.6,10
					C325.1,157.4,325.1,157.9,325.2,158.4z"/>
			</g>
			<path class="st54" d="M296.6,206.9c0-1.1,0.4-2.1,1.1-3c1.4-1.7,3.4-2.2,5.5-2.2c1.3,0,2.3,0.7,3.2,1.6c1.7,1.8,2.1,4.6,0.9,6.8
				c-1.1,1.9-3.3,3.1-5.6,2.6C298.7,212.1,296.6,209.7,296.6,206.9z"/>
		</g>
		<g>
			<path class="st2" d="M279.3,94.8c-0.3,1.4-0.5,2.8-0.8,4.2c-1.1,5.8-2.3,11.6-3.4,17.4c-0.1,0.7-0.4,1.5-0.6,2.2
				c-0.6,1.9-1.9,2.7-3.9,2.5c-1.9-0.3-3.8-0.8-5.6-1.6c-1.5-0.6-2.1-1.7-2-3.4c0.2-1.7,0.4-3.4,0.8-5.1c1.4-7.1,2.9-14.1,4.4-21.2
				c0.8-3.8,1.4-7.6,2.2-11.4c0.2-1.2,0.6-2.4,1-3.6c0.3-1.1,1.1-1.8,2.3-2c2-0.4,4.1-0.4,6.1,0c1.3,0.3,2,1,2.2,2.2
				c0.2,1.4,0.5,2.7,0.6,4.1c0.7,7.5,1.5,15.1,2.6,22.6c0.6,4.1,1.2,8.2,1.8,12.3c0.2,1.1,0.4,2.2,0.6,3.3c0,0.2,0.1,0.4,0.2,0.7
				c0.1-0.2,0.2-0.4,0.2-0.6c2.4-8.1,5.2-16.1,7.9-24.1c1.3-3.9,2.5-7.8,3.7-11.7c0.2-0.5,0.3-1,0.6-1.4c0.5-0.9,1.4-1.3,2.3-1
				c0.9,0.3,1.4,1.2,1.3,2.2c0,0.4-0.2,0.9-0.3,1.3c-2.8,9.4-5.9,18.7-9,28c-1.4,4.2-2.6,8.4-4,12.7c-0.2,0.5-0.4,1.1-0.6,1.6
				c-0.4,0.8-1.1,1.3-2.1,1.3c-1,0-1.6-0.6-2-1.4c-0.8-1.7-1.4-3.4-1.9-5.2c-1.5-5.2-2.5-10.4-3.2-15.7c-0.4-3-0.8-6-1.2-8.9
				c0-0.2-0.1-0.3-0.1-0.5C279.4,94.8,279.4,94.8,279.3,94.8z"/>
			<path class="st2" d="M229.5,110.9c0.4,0,0.7,0,1,0c1.6,0.1,3.3,0.2,4.9,0.4c1.2,0.1,1.9,1,1.9,2.1c0,1.1-0.9,1.9-2,2
				c-0.1,0-0.2,0-0.3,0c-4.1,0-8.2-0.1-12.2-0.2c-1.1,0-2.3-0.4-3.4-0.7c-1-0.3-1.5-1.1-1.8-2c-0.2-0.8-0.3-1.7-0.3-2.5
				c0-3.3,0-6.5,0.1-9.8c0.2-5.8,0.4-11.6,0.6-17.4c0.2-3.3,0.5-6.6,0.7-9.9c0.1-1.4,0.2-2.8,0.3-4.2c0.1-2.2,1-3.3,3.2-3.6
				c1.4-0.2,2.8-0.3,4.2-0.4c1.3,0,2.2,0.7,2.8,1.9c0.5,1,0.7,2,0.8,3.1c0.2,2.2,0.3,4.5,0.4,6.7c0.2,7.5-0.2,15-0.4,22.5
				c-0.1,3.6-0.3,7.3-0.4,10.9C229.5,110.2,229.5,110.5,229.5,110.9z"/>
			<path class="st2" d="M200.2,102.5c1.4-0.3,2.7-0.5,3.9-0.8c0.2,0,0.5-0.1,0.8,0c0.9,0.1,1.5,0.8,1.5,1.6c0.1,0.9-0.5,1.5-1.4,1.8
				c-1.2,0.3-2.4,0.6-3.6,1c-0.3,0.1-0.5,0.2-0.9,0.3c0.1,1.5,0.2,3,0.4,4.5c1.9-0.2,3.7-0.4,5.6-0.5c0.4,0,0.9,0,1.3,0.1
				c0.8,0.2,1.2,0.9,1.3,1.6c0,0.8-0.4,1.4-1.1,1.7c-0.2,0.1-0.5,0.2-0.7,0.2c-2.4,0.3-4.9,0.7-7.3,1.3c-0.4,0.1-0.8,0.1-1.3,0.2
				c-1.3,0.2-2.6,0.4-3.9,0.6c-0.4,0.1-0.9,0.1-1.4,0.1c-1.5,0.1-2.6-0.6-3.1-2.1c-0.3-0.9-0.5-1.9-0.6-2.8
				c-0.7-4.6-1.3-9.3-1.9-13.9c-0.6-4.4-1.1-8.7-1.5-13.1c-0.4-3.6-0.6-7.1-0.8-10.7c0-0.4,0-0.7,0-1.1c0-1.8,0.8-3,2.3-3.9
				c0.5-0.3,1.1-0.5,1.7-0.6c2.8-0.8,5.7-1.1,8.6-1.5c0.5-0.1,1-0.1,1.5-0.2c0.3,0,0.5-0.1,0.8-0.1c0.9,0,1.5,0.6,1.7,1.4
				c0.2,0.8-0.2,1.6-1,1.9c-0.7,0.2-1.4,0.4-2.1,0.5c-0.9,0.2-1.8,0.4-2.8,0.6C198.2,81.2,198.8,91.9,200.2,102.5z"/>
			<path class="st2" d="M162.3,77.7c2.5,6.4,3.5,13,4.7,19.5c0.6,3.1,1.1,6.3,1.7,9.5c0,0.2,0.1,0.4,0.2,0.6
				c1.1-0.3,2.3-0.6,3.4-0.9c0.3-0.1,0.6-0.1,0.9-0.1c0.7,0,1.3,0.4,1.6,1.1c0.3,0.7,0.1,1.5-0.5,1.9c-0.3,0.2-0.6,0.4-1,0.5
				c-0.9,0.3-1.9,0.6-2.8,0.9c-0.3,0.1-0.6,0.2-1,0.3c0.3,1.7,0.6,3.3,1,5c0.2-0.1,0.4-0.1,0.6-0.1c1.5-0.5,3-1.1,4.5-1.6
				c1.4-0.5,2.6,0.1,2.9,1.6c0.2,1-0.1,1.9-1,2.4c-0.6,0.3-1.2,0.5-1.8,0.6c-3.6,0.7-7.2,1.4-10.8,2.1c-0.5,0.1-1,0.2-1.4,0.2
				c-1.2,0.1-2.1-0.4-2.7-1.4c-0.3-0.6-0.6-1.2-0.7-1.8c-0.8-3.2-1.6-6.5-2.4-9.7c-1.4-5.7-2.8-11.3-4-17c-0.7-3.3-1.2-6.7-1.8-10.1
				c-0.3-1.7,0.5-3,1.8-4.1c0.9-0.7,1.9-1.1,3-1.4c3-0.9,6-1.8,9.2-2.3c1-0.2,1.8,0.2,2.1,1.1c0.3,0.8-0.1,1.7-0.9,2.1
				c-0.6,0.3-1.3,0.5-1.9,0.7C164.1,77.2,163.2,77.4,162.3,77.7z"/>
			<path class="st2" d="M252.5,117.3c-1.1-0.2-2.2-0.3-3.3-0.5c-0.3,0-0.6-0.1-0.9-0.2c-1.5-0.5-2.3-1.6-2.2-3.1
				c0-1.4,0.1-2.8,0.2-4.2c0.3-4.1,0.7-8.1,1-12.2c0.3-3.2,0.6-6.4,0.9-9.6c0.5-4.8,1.1-9.6,1.7-14.4c0.1-1,0.4-2,0.7-2.9
				c0.6-1.7,1.8-2.4,3.6-2.2c1.3,0.2,2.7,0.3,4,0.5c0.6,0.1,1.1,0.4,1.6,0.6c1.3,0.7,1.9,1.9,1.8,3.4c-0.2,1.5-0.4,3-0.6,4.5
				c-0.8,6-1.7,11.9-2.5,17.9c-0.7,5-1.2,10-1.9,15c-0.2,1.5-0.5,2.9-0.7,4.4c-0.1,0.4-0.2,0.7-0.3,1
				C255.1,116.8,254.1,117.4,252.5,117.3z"/>
			<path class="st2" d="M142.7,114.7c0.3-0.2,0.6-0.3,0.8-0.4c1-0.4,2-0.7,3-1.1c0.2-0.1,0.5-0.1,0.8-0.1c0.9,0,1.5,0.5,1.7,1.4
				c0.2,0.8-0.2,1.5-0.9,1.9c-0.2,0.1-0.5,0.2-0.7,0.3c-1.1,0.5-2.2,0.9-3.3,1.4c0.1,0.3,0.2,0.6,0.3,0.9c0.5,1.5,1,2.9,1.4,4.4
				c0.3,0.9,0.1,1.8-0.7,2.4c-0.8,0.6-1.6,1.2-2.4,1.7c-0.8,0.4-1.6,0.7-2.4,1c-1,0.4-1.8,0.1-2.4-0.7c-0.6-0.8-1.1-1.6-1.5-2.5
				c-0.9-1.8-1.7-3.7-2.4-5.5c-2-4.9-3.8-9.8-5.8-14.7c-1.7-4.2-3.6-8.4-5.4-12.6c-0.6-1.5-0.4-2.5,1-3.3c1.2-0.8,2.5-1.4,3.8-2
				c0.9-0.5,1.9-0.9,2.8-1.4c1.5-0.7,3.1-1.4,4.6-2.1c0.5-0.2,0.9-0.3,1.4-0.1c0.6,0.2,1.1,0.7,1.1,1.4c0.1,0.8-0.2,1.4-0.8,1.7
				c-0.9,0.5-1.8,1-2.7,1.4c-0.3,0.2-0.7,0.3-0.9,0.5C136.2,97.3,139.5,105.9,142.7,114.7z"/>
			<path class="st2" d="M320,84.4c-0.1,3.3-1.3,6.1-3.6,8.4c-0.7,0.8-1.6,1.4-2.6,1.6c-0.3,0.1-0.6,0.1-0.9,0.1
				c-1.6-0.1-2.4-1.5-1.7-2.9c0.3-0.5,0.7-1.1,1.1-1.5c0.5-0.6,0.8-1.2,1.1-1.9c0.6-1.9,0.8-3.8,0.5-5.7c-0.4-2.3,0.9-3,2.6-3.1
				c2-0.1,3,0.7,3.4,2.7C319.8,82.9,319.9,83.7,320,84.4z"/>
		</g>
	</g>
	<g>
		<g>
			<g>
				<path class="st2" d="M260.4,278.3c5.6-2.5,8.8-5.6,8.8-8.8c0-8.9-24.1-16.1-53.9-16.1s-53.9,7.2-53.9,16.1
					c0,3.2,3.1,6.2,8.5,8.7c-12.9,20.7-15.3,30.7-15.3,42.3c0,7.5,1.4,22,14.9,32.5v3.9c0,5.7,4.6,10.3,10.3,10.3h73.5
					c5.7,0,10.3-4.6,10.3-10.3v-4.4c13.6-10.9,14.7-25.3,14.9-29.1C278.7,317.5,278.1,296.9,260.4,278.3z"/>
				<g>
					<path class="st57" d="M192.3,299.6c3.3,1.4,4.9,1.2,2.9,5.4c-2.1,4.1-3.9,9.7,0.1,23c3.8,12.5,18.4,14.1,28.6,11.6c0,0,0,0,0,0
						c0.3-0.1,0.6-0.2,0.9-0.3c0.3-0.1,0.6-0.2,0.9-0.2c0,0,0,0,0-0.1c9.8-3.6,20.9-13,17.1-25.5c-4-13.3-8.6-16.9-12.7-19.2
						c-4-2.3-2.6-3.1-0.6-6c2-3-4.1-8.3-5.8-5.3c0,0-2.4,3.3-4.7,6.8c-2.2,3.5-0.7,4.7,2,6c2.7,1.3,8.1,2.3,12.4,16.5
						c4.9,16.1-26.1,25.1-30.9,9.4c-4.3-14.2-0.4-18,1.1-20.6c1.5-2.6,2.1-4.4-1.7-6.1c-3.8-1.7-7.7-3-7.7-3
						C191.1,290.4,189,298.2,192.3,299.6z"/>
					<g>
						
							<ellipse transform="matrix(0.7119 -0.7022 0.7022 0.7119 -170.3652 252.5194)" class="st59" cx="222.6" cy="333.9" rx="2.7" ry="2.7"/>
						
							<ellipse transform="matrix(0.7119 -0.7022 0.7022 0.7119 -162.2644 258.7716)" class="st59" cx="234.3" cy="327.2" rx="2.7" ry="2.7"/>
						
							<ellipse transform="matrix(0.7119 -0.7022 0.7022 0.7119 -174.4731 242.6682)" class="st59" cx="208.6" cy="334" rx="2.7" ry="2.7"/>
					</g>
				</g>
			</g>
			<g>
				<path class="st54" d="M261.7,268.3c0-2.4-4.7-4.3-10.5-4.3c-3.7,0-6.9,0.8-8.7,1.9c-4.2-0.4-9-0.8-14.3-1c0-0.1,0-0.2,0-0.4
					c0-2.4-4.7-4.3-10.5-4.3c-5.8,0-10.5,1.9-10.5,4.3c0,0.1,0,0.1,0,0.2c-3,0.1-5.9,0.2-8.7,0.3c-1.3-1.7-5.3-3-10-3
					c-5.8,0-10.5,1.9-10.5,4.3c0,0.2,0,0.4,0.1,0.6c-5.6,0.9-9,2.1-9,3.4c0,3.1,20.1,5.6,44.9,5.6c20.8,0,38.2-1.8,43.3-4.1
					C260,270.9,261.7,269.7,261.7,268.3z"/>
				<ellipse class="st57" cx="222.3" cy="270.6" rx="10.5" ry="4.3"/>
				<ellipse class="st54" cx="235.5" cy="266.3" rx="10.5" ry="4.3"/>
				<ellipse class="st54" cx="247.3" cy="267.4" rx="10.5" ry="4.3"/>
				<path class="st57" d="M247.9,262c-0.7,0-1.3,0-1.9,0.1c-0.5-2.2-5-3.9-10.4-3.9c-5.8,0-10.5,1.9-10.5,4.3
					c0,2.4,4.7,4.3,10.5,4.3c0.7,0,1.3,0,1.9-0.1c0.5,2.2,5,3.9,10.4,3.9c5.8,0,10.5-1.9,10.5-4.3C258.3,263.9,253.7,262,247.9,262z
					"/>
				<ellipse class="st57" cx="179.7" cy="266.3" rx="10.5" ry="4.3"/>
				<path class="st57" d="M212.5,256c-4.9,0-9,1.4-10.1,3.2c-0.1,0-0.2,0-0.3,0c-5.8,0-10.5,1.9-10.5,4.3c0,2.4,4.7,4.3,10.5,4.3
					c4.9,0,9-1.4,10.1-3.2c0.1,0,0.2,0,0.3,0c5.8,0,10.5-1.9,10.5-4.3S218.3,256,212.5,256z"/>
				<ellipse class="st54" cx="200" cy="268.3" rx="9.8" ry="4"/>
			</g>
		</g>
		<g>
			<path class="st62" d="M97.2,155.3c3.8-2.3,6-4,7.9-8c-6.2,5.3-12,6.6-12.9,2.2c-0.6-2.7,1.3-4.4,2.5-4.4c-4.2-1.5-4.1-4-3.1-5.8
				c1-2,5.8-1.7,9.4,0.2c-5.6-5.8-6.1-9.2-4-10.5c2.2-1.3,4.4,0.1,5.5,1c1.5-4.5,3.6-4.5,4.7-4.5c1.1,0.1,4.3,0.1,2,11
				c6.5-7.4,8.6-7,10.1-5.2c1.6,1.8,0,4.4-0.4,5.1c4,0.6,5.7,2,5.7,4c0,4.3-10.4,4.2-12.2,4c8.1,4,11.1,5.9,9.7,9.2
				c-1.2,2.8-5.3,1.4-6.1,1.2c1,3.3,0.2,5.3-1.8,5.7c-3.1,0.6-7.2-4-7.1-10.6c-2.4,3-4.9,6.9-7,9c-0.7,0.7-1.9,0.8-2.8,0.2
				c-0.1-0.1-0.2-0.1-0.2-0.2C95.9,158,95.9,156.1,97.2,155.3z"/>
			<path class="st62" d="M338,120.8c-2.5-2.4-4.3-3.9-7.8-4.5c5.4,3.7,7.5,8,4.3,9.6c-2,1-3.7-0.1-3.9-1.1c-0.3,3.5-2.2,3.9-3.9,3.6
				c-1.8-0.4-2.5-4.1-1.7-7.3c-3.3,5.5-5.9,6.6-7.3,5.2c-1.4-1.4-0.8-3.4-0.3-4.4c-3.8-0.2-4.2-1.9-4.4-2.7
				c-0.2-0.8-0.8-3.3,8.1-3.8c-7-3.5-7.1-5.2-6.1-6.8c1.1-1.6,3.4-0.9,4-0.7c-0.3-3.2,0.4-4.8,2-5.2c3.3-0.9,5.3,7.2,5.5,8.6
				c1.4-7.1,2.3-9.8,5.2-9.4c2.4,0.4,2.2,3.8,2.1,4.5c2.4-1.4,4-1.2,4.7,0.3c1.1,2.3-1.6,6.3-6.8,7.6c2.8,1.3,6.3,2.4,8.4,3.6
				c0.7,0.4,1,1.3,0.7,2.1c0,0.1-0.1,0.1-0.1,0.2C340.3,121.3,338.8,121.7,338,120.8z"/>
		</g>
	</g>
</g>
</svg>
