<?xml version="1.0" encoding="utf-8"?>
<!-- Generator: Adobe Illustrator 21.1.0, SVG Export Plug-In . SVG Version: 6.00 Build 0)  -->
<svg version="1.1" id="Calque_1" xmlns="http://www.w3.org/2000/svg" xmlns:xlink="http://www.w3.org/1999/xlink" x="0px" y="0px"
	 viewBox="0 0 432 432" style="enable-background:new 0 0 432 432;" xml:space="preserve">
<style type="text/css">
	.st0{fill:#3B4F20;}
	.st1{fill:#8CB225;}
	.st2{fill:#020203;}
	.st3{fill:#4A5C2D;}
	.st4{fill:#FFFFFF;}
	.st5{fill:#E2CF1B;}
	.st6{fill:#718A2A;}
	.st7{fill:#DFBB20;}
	.st8{fill:#EAC839;}
	.st9{fill:#1B1B1B;}
	.st10{fill:#8EC045;}
	.st11{fill:#066938;}
	.st12{fill:#E5AD30;}
	.st13{fill:#4E4D4D;}
	.st14{fill:#8BB226;}
	.st15{fill:#CD1A25;}
	.st16{fill:#4B6426;}
	.st17{fill:#7D9E3C;}
	.st18{fill:#3C4F20;}
	.st19{fill:#384A1F;}
	.st20{fill:#E7E6E6;}
	.st21{fill:#D4A624;}
	.st22{fill:#F7F0E3;}
	.st23{fill:#D2A206;}
	.st24{fill:#CE9835;}
	.st25{fill:#E5D9C2;}
	.st26{fill:#E2AE42;}
	.st27{fill:#EEDBBE;}
	.st28{fill:#F9EA31;}
	.st29{fill:#EB6518;}
	.st30{fill:#0A7132;}
	.st31{fill:#FFE109;}
	.st32{fill:#D76013;}
	.st33{fill:#BBA763;}
	.st34{fill:#7FA22A;}
	.st35{fill:#5B321B;}
	.st36{fill:#4A2615;}
	.st37{fill:#D6AD08;}
	.st38{fill:#F7BBBD;}
	.st39{fill:#D76324;}
	.st40{fill:#607829;}
	.st41{fill:#715C3B;}
	.st42{fill:#644F34;}
	.st43{fill:#89704C;}
	.st44{fill:#B2A38F;}
	.st45{fill:#A59076;}
	.st46{fill:#FFDE0D;}
	.st47{fill:#34AA4A;}
	.st48{fill:#75388D;}
	.st49{fill:#BBBBBB;}
	.st50{fill:#A9A9AA;}
	.st51{fill:#06993B;}
	.st52{fill:#CDCCCC;}
	.st53{fill:#4D2563;}
	.st54{fill:#E3B320;}
	.st55{fill:#0B9541;}
	.st56{fill:#264D23;}
	.st57{fill:#FDC834;}
	.st58{fill:#8C633A;}
	.st59{fill:#B5A059;}
	.st60{fill:#F2F2F2;}
	.st61{fill:#808181;}
	.st62{fill:#62A930;}
	.st63{fill:#A1C746;}
	.st64{fill:#85B04B;}
	.st65{fill:#5E802C;}
	.st66{fill:#BFD783;}
	.st67{fill:#EFC9AF;}
	.st68{fill:#343434;}
	.st69{fill:#EB5B28;}
	.st70{fill:#D1A98D;}
	.st71{fill:#E0A9B8;}
	.st72{fill:#754D24;}
	.st73{fill:#B2D17B;}
	.st74{fill:#62B338;}
	.st75{fill:#274E22;}
	.st76{fill:#CCDC81;}
	.st77{fill-rule:evenodd;clip-rule:evenodd;fill:#85B04B;}
	.st78{fill:#509733;}
	.st79{fill:#203F1E;}
	.st80{fill:#20963A;}
	.st81{fill:#62246B;}
	.st82{fill:#FDCA02;}
	.st83{fill:#B4CD50;}
	.st84{fill:#5C792A;}
	.st85{fill:#C29347;}
	.st86{fill:#4D5C22;}
	.st87{fill:none;}
	.st88{fill:#E19C11;}
	.st89{fill:#E5C997;}
	.st90{fill:#009245;}
	.st91{fill:#48AE4D;}
	.st92{fill:#049348;}
	.st93{fill:#04683B;}
	.st94{fill:#F8AE4C;}
	.st95{fill:#C57B39;}
	.st96{fill:#231F20;}
	.st97{fill:#BC2333;}
	.st98{fill:#EF7A7B;}
	.st99{fill:#46AE51;}
	.st100{fill:#07924B;}
	.st101{fill-rule:evenodd;clip-rule:evenodd;fill:#231F20;}
	.st102{fill:#279A9A;}
	.st103{fill:#8E3189;}
	.st104{fill:#9F6E8E;}
	.st105{fill:#3C3C3B;}
	.st106{fill:#00A69C;}
	.st107{fill:#D5DB41;}
	.st108{fill:#E04542;}
	.st109{fill:#9F1F3B;}
	.st110{fill:#EB5C35;}
	.st111{fill:#F9B233;}
	.st112{fill:#008D36;}
	.st113{fill:#F39200;}
	.st114{fill:#F2D8BD;}
	.st115{fill:#3AAA35;}
	.st116{fill:#95C11F;}
	.st117{fill:#7F5FA5;}
	.st118{fill:#5FA55F;}
	.st119{fill:#A55F8F;}
	.st120{fill:#229538;}
	.st121{fill:#622369;}
	.st122{fill:#FCC804;}
	.st123{fill:#628FB8;}
	.st124{fill:#B2B2B2;}
	.st125{fill:#63B8A4;}
	.st126{fill:#FDCE6C;}
	.st127{fill:#C8DADC;}
	.st128{fill:#ED6B6E;}
	.st129{fill:#EC6365;}
	.st130{fill:#8FC14D;}
	.st131{fill:#FECE6C;}
	.st132{fill:#037132;}
	.st133{fill:#B5CD25;}
	.st134{fill:#137E35;}
	.st135{fill:#7DBA28;}
	.st136{fill:#50AE32;}
	.st137{fill:#04612D;}
	.st138{fill:#F0828B;}
	.st139{fill:#63348B;}
	.st140{fill:#CF75AC;}
	.st141{fill:#895B7E;}
	.st142{fill:#AD94C4;}
	.st143{fill:#C581AB;}
	.st144{fill:#D1BAB0;}
	.st145{fill:#EF7B7C;}
	.st146{fill:#F7C0C2;}
	.st147{fill:#4F1C31;}
	.st148{fill:#9C3760;}
	.st149{fill:#A8768F;}
	.st150{fill:#A04170;}
	.st151{fill:#6CB863;}
</style>
<g>
	<g>
		<g>
			<g>
				<path class="st55" d="M122.5,203.4c-0.5-0.9-1-1.8-1.6-2.5c-0.3-0.4-0.5-0.8-0.8-1.1c-0.3-0.4-0.5-0.7-0.8-1
					c-1.1-1.3-2.5-2.5-4.4-3.7c1.2,1.7,2.1,3.3,2.8,4.8c0.7,1.5,1.2,2.8,1.3,3.9c0.1,0.6,0.1,1.1,0,1.6c0,0.2-0.1,0.5-0.2,0.7
					c-0.1,0.2-0.2,0.4-0.3,0.6c-0.5,0.7-1.2,1.2-2.4,1.4c-1.4,0.2-2.6-0.1-3.3-0.7c-0.8-0.6-1.2-1.4-1.2-2c-1.7,4.1-4.3,4-6.2,3
					c-0.5-0.3-0.9-0.8-1.1-1.5c-0.2-0.7-0.3-1.6-0.2-2.5c0.2-1.9,1-4.1,2.1-5.9c-3.2,2.6-5.8,4.2-7.7,4.7c-1.9,0.5-3.1,0-3.7-1.3
					c-0.6-1.3-0.5-2.5-0.1-3.6c0.1-0.3,0.2-0.5,0.3-0.8c0.1-0.2,0.3-0.5,0.4-0.7c0.3-0.4,0.6-0.8,0.9-1.1c-4.5-2.2-4.2-4.8-4-6
					c0.1-0.6,0.4-1.8,1.9-2.3c1.6-0.5,4.4-0.2,9.9,1.9c-1.6-2-2.8-3.8-3.5-5.2c-0.4-0.7-0.7-1.4-0.9-1.9c-0.2-0.6-0.3-1.1-0.4-1.5
					c-0.2-1.8,0.6-2.7,1.7-3.3c1.1-0.6,2.2-0.3,3.2,0.2c0.9,0.5,1.7,1.2,2,1.5c0.2-0.5,0.4-1,0.6-1.4c0.2-0.4,0.4-0.8,0.7-1.1
					c0.5-0.7,0.9-1.2,1.4-1.6c0.9-0.8,1.9-0.9,3-0.6c1.1,0.3,1.7,1.2,2,2.4c0.2,0.6,0.2,1.2,0.3,1.9c0,0.3,0,0.7,0,1.1
					c0,0.4,0,0.7,0,1.1c-0.2,2.9-1,5.9-1.2,6.8c0.3-0.5,0.7-0.9,1-1.3c0.3-0.4,0.7-0.8,1-1.2c0.6-0.7,1.2-1.4,1.8-2
					c0.6-0.6,1.1-1.1,1.6-1.5c0.5-0.4,1-0.8,1.4-1.1c1.8-1.1,3.3-1.1,4.8,0c0.6,0.5,1,1,1.1,1.6c0,0.1,0,0.3,0.1,0.4
					c0,0.1,0,0.3,0,0.4c0,0.3-0.1,0.6-0.1,0.9c-0.3,1.1-1,2.2-1.2,2.5c3.6-0.1,5.4,1,5.4,2.9c0,1.4-1.2,2.8-3.4,3.7
					c-1.1,0.5-2.4,0.8-3.9,1c-1.5,0.2-3.1,0.2-4.8-0.1c1.4,1.4,3,2.8,4.6,4.1c0.8,0.6,1.5,1.3,2.2,1.9c0.3,0.3,0.7,0.6,1,0.9
					c0.3,0.3,0.6,0.6,0.9,0.8c0.7,0.7,0.7,1.8,0,2.5c-0.1,0.1-0.1,0.1-0.2,0.2C125.2,204.8,123.3,204.6,122.5,203.4z"/>
			</g>
			<g>
				<path class="st55" d="M177,97.9c0.3-0.5,0.6-0.9,0.9-1.3c0.3-0.4,0.5-0.8,0.8-1.2c0.5-0.8,0.9-1.5,1.3-2.3
					c0.8-1.6,1.3-3.4,1.5-5.6c-0.3,0.4-0.5,0.9-0.8,1.3c-0.3,0.4-0.5,0.8-0.8,1.2c-0.5,0.8-1,1.5-1.6,2.1c-0.5,0.6-1,1.2-1.5,1.6
					c-0.3,0.2-0.5,0.4-0.8,0.6c-0.2,0.2-0.5,0.4-0.7,0.5c-1.9,1.3-3.7,1.1-5-0.9c-1.6-2.4-0.5-4.7,0.6-5.2c-4.5,0.1-5.5-2.3-5.3-4.5
					c0.1-1.2,1.4-2.1,3.1-2.8c0.9-0.3,1.9-0.6,3-0.6c1.1-0.1,2.2,0,3.3,0.1c-1.9-1-3.4-1.9-4.7-2.7c-1.2-0.8-2.1-1.6-2.8-2.4
					c-1.2-1.5-1.3-2.8-0.3-3.9c0.5-0.5,1-0.9,1.6-1.1c0.6-0.2,1.1-0.3,1.7-0.4c1.1-0.1,2.2,0.2,3,0.5c0.1-5.1,2.6-5.8,3.8-6.1
					c0.6-0.1,1.8-0.5,2.9,0.7c1.1,1.2,2,3.9,2.3,9.8c0.3-0.6,0.6-1.1,0.9-1.7c0.3-0.5,0.6-1,0.9-1.4c0.6-0.9,1.1-1.6,1.6-2.3
					c1-1.3,1.9-2.1,2.6-2.6c0.8-0.5,1.5-0.6,2.1-0.6c0.6,0.1,1.2,0.4,1.7,0.7c1,0.8,1.2,1.9,1.2,3c-0.1,1.1-0.4,2-0.6,2.4
					c2.2-0.1,3.7,0.2,4.8,0.7c1.1,0.6,1.6,1.4,1.8,2.5c0.2,1.1-0.4,2-1.3,2.8c-0.9,0.8-2.2,1.4-3.6,1.9c-0.7,0.2-1.4,0.5-2.1,0.6
					c-0.7,0.2-1.3,0.4-1.9,0.5c-1.2,0.3-2.2,0.5-2.7,0.5c1.1,0.3,2.2,0.5,3.1,0.8c0.9,0.3,1.8,0.5,2.6,0.8c1.5,0.6,2.7,1.1,3.6,1.7
					c1.8,1.2,2.3,2.5,2,4.3c-0.3,1.6-1.5,2.2-2.6,2.3c-0.6,0.1-1.2,0.1-1.7,0c-0.5,0-0.9-0.1-1.1-0.1c1.6,3.2,1.3,5.4-0.4,6.2
					c-0.6,0.3-1.4,0.3-2.2,0c-0.4-0.1-0.8-0.4-1.3-0.6c-0.4-0.3-0.9-0.6-1.3-1c-1.7-1.6-3.4-4.1-4.4-7.5c-0.4,0.9-0.7,1.9-1,2.9
					c-0.3,1-0.6,2-0.9,2.9c-0.5,2-1,3.8-1.6,5.2c-0.4,1-1.3,1.3-2.3,1c-0.1,0-0.2-0.1-0.3-0.1C176.8,100.9,176.2,99.1,177,97.9z"/>
			</g>
			<g>
				<path class="st55" d="M303.8,125.8c4.1,0.8,7,1.2,11.3-0.2c-1-0.1-2-0.3-2.9-0.4c-0.9-0.2-1.8-0.3-2.6-0.5
					c-1.6-0.4-2.8-1-3.8-1.6c-1.9-1.2-2.5-2.9-1.3-4.9c1.5-2.5,4.1-2.5,5-1.6c-2-4-0.2-5.9,1.9-6.7c1.1-0.4,2.5,0.3,3.8,1.7
					c0.3,0.3,0.7,0.7,1,1.1c0.3,0.4,0.6,0.9,0.8,1.3c0.5,0.9,0.9,2,1.2,3c0.2-4.2,0.7-7.2,1.5-8.9c0.8-1.7,2-2.3,3.4-1.9
					c2.7,0.9,3.4,3.7,3.5,5.2c0.6-0.3,1.1-0.4,1.6-0.6c0.5-0.1,0.9-0.2,1.4-0.3c0.8-0.1,1.5,0,2,0.2c1.1,0.4,1.7,1.1,2.1,1.6
					c0.4,0.5,1.2,1.4,0.6,2.9c-0.6,1.5-2.7,3.5-7.9,6.2c2.6,0.1,4.6,0.4,6.2,0.8c0.8,0.2,1.5,0.4,2.1,0.6c0.3,0.1,0.6,0.2,0.8,0.3
					c0.2,0.1,0.4,0.2,0.6,0.4c1.5,1,1.7,2.2,1.4,3.5c-0.3,1.3-1.2,1.9-2.2,2.3c-1,0.4-2,0.4-2.4,0.5c0.5,1,0.9,1.8,1.1,2.6
					c0.2,0.8,0.3,1.5,0.3,2.1c-0.1,1.2-0.6,2.1-1.5,2.7c-1,0.6-2,0.5-3.1,0c-1.1-0.5-2.2-1.4-3.2-2.5c-0.5-0.5-1-1.1-1.5-1.6
					c-0.2-0.3-0.4-0.5-0.7-0.8c-0.2-0.3-0.4-0.5-0.6-0.8c-0.8-1-1.4-1.8-1.6-2.2c0.2,1.1,0.4,2.2,0.6,3.1c0.2,1,0.2,1.9,0.3,2.7
					c0.1,1.6,0.1,2.9,0,4c-0.1,0.5-0.2,1-0.4,1.4c-0.2,0.4-0.4,0.8-0.6,1c-0.5,0.6-1.2,1-2.1,1.2c-1.5,0.3-2.6-0.4-3.2-1.4
					c-0.7-1-1-2.2-1.1-2.6c-1.1,1.4-2.2,2.3-3.2,2.6c-0.5,0.2-0.9,0.2-1.4,0.2c-0.4-0.1-0.8-0.2-1.2-0.5c-1.1-0.9-1.3-2.8-0.5-5.1
					c0.7-2.2,2.3-4.8,5-7.1c-2,0.1-4.1,0.4-6,0.7c-2,0.3-3.9,0.7-5.4,0.7c-1,0-1.8-0.6-1.9-1.6c0-0.1,0-0.2,0-0.3
					C301,126.9,302.4,125.5,303.8,125.8z"/>
			</g>
		</g>
		<g>
			<g>
				<path class="st56" d="M122.7,138.4c0.1-2.1,0.2-3.9-0.1-5.6c-0.3-1.8-0.7-3.5-1.7-5.5c0,1,0,2,0,2.9c0,0.9-0.1,1.8-0.2,2.6
					c-0.2,1.6-0.6,2.9-1.1,4c-0.9,2.1-2.5,2.9-4.7,2c-2.7-1.1-3-3.7-2.3-4.7c-3.7,2.5-5.8,1-6.9-0.9c-0.6-1,0-2.5,1.1-4
					c0.3-0.4,0.6-0.7,1-1.1c0.4-0.4,0.8-0.7,1.2-1c0.9-0.6,1.8-1.2,2.8-1.7c-4.2,0.4-7.2,0.3-9-0.3c-1.8-0.6-2.6-1.7-2.4-3.1
					c0.5-2.8,3.1-3.9,4.7-4.3c-0.7-1.1-1-2-1.2-2.8c-0.2-0.8-0.2-1.5-0.1-2c0.2-1.1,0.8-1.8,1.3-2.3c0.4-0.4,1.3-1.4,2.8-1
					c1.6,0.4,3.9,2.2,7.2,7c-0.2-2.6-0.2-4.6-0.1-6.3c0.1-1.6,0.4-2.8,0.8-3.6c0.8-1.6,1.9-2,3.2-1.9c1.3,0.1,2.1,0.9,2.6,1.9
					c0.5,0.9,0.7,1.9,0.8,2.3c0.9-0.6,1.7-1.1,2.4-1.5c0.7-0.3,1.4-0.5,2-0.6c1.2-0.1,2.1,0.3,2.8,1.1c0.7,0.9,0.8,1.9,0.4,3.1
					c-0.2,0.6-0.5,1.1-0.8,1.8c-0.3,0.6-0.7,1.2-1.2,1.8c-0.9,1.2-1.9,2.3-2.8,3.2c-0.8,0.9-1.6,1.6-1.9,1.9c1.1-0.4,2.1-0.7,3-1
					c0.9-0.3,1.8-0.5,2.6-0.7c1.6-0.4,2.9-0.6,3.9-0.6c1.1,0,1.9,0.2,2.6,0.6c0.7,0.4,1.1,1.1,1.4,1.9c0.1,0.4,0.2,0.7,0.2,1
					c0,0.3,0,0.6-0.1,0.9c-0.2,0.6-0.6,1.1-1,1.4c-0.9,0.8-2,1.3-2.4,1.4c1.6,0.9,2.6,1.9,3.1,2.8c0.2,0.5,0.4,0.9,0.3,1.3
					c0,0.4-0.1,0.9-0.4,1.3c-0.7,1.2-2.6,1.6-4.9,1.2c-2.3-0.4-5.1-1.6-7.7-3.9c0.4,1.9,1,4,1.6,5.9c0.3,1,0.6,1.9,0.9,2.8
					c0.3,0.9,0.5,1.7,0.6,2.4c0.2,1-0.4,1.9-1.4,2.1c-0.1,0-0.2,0-0.3,0.1c-0.7,0.2-1.4-0.1-2-0.5
					C123.1,139.8,122.7,139.1,122.7,138.4z"/>
			</g>
			<g>
				<path class="st56" d="M244.5,93.2c2-0.8,3.6-1.5,5.1-2.5c1.5-0.9,2.8-2.1,4.3-3.8c-0.9,0.5-1.8,0.9-2.7,1.2
					c-0.4,0.2-0.8,0.3-1.3,0.5c-0.4,0.2-0.8,0.3-1.2,0.4c-1.6,0.5-2.9,0.8-4.1,0.7c-1.1-0.1-2.1-0.3-2.7-0.8c-0.6-0.6-1-1.4-1-2.6
					c-0.1-2.9,2.1-4.3,3.3-4.1c-3.9-2.3-3.4-4.8-2.1-6.6c0.7-0.9,2.3-1.1,4.2-0.7c1.8,0.5,3.9,1.6,5.5,3c-2.2-3.6-3.3-6.4-3.5-8.3
					c-0.2-1.9,0.5-3.1,1.8-3.4c1.3-0.4,2.6-0.1,3.6,0.5c1,0.5,1.8,1.3,2.3,2c2.8-4.2,5.3-3.4,6.5-3.1c0.3,0.1,0.7,0.2,1.2,0.6
					c0.4,0.3,0.8,0.8,0.9,1.6c0.3,1.6-0.4,4.4-3.3,9.5c2.3-1.3,4.1-2.2,5.7-2.7c0.8-0.3,1.5-0.5,2.1-0.6c0.6-0.1,1.1-0.2,1.6-0.2
					c1.8,0,2.6,0.9,3.1,2.1c0.5,1.2,0,2.3-0.6,3.1c-0.6,0.8-1.5,1.5-1.8,1.7c1.9,1,3.1,2.2,3.7,3.2c0.6,1.1,0.6,2.1,0.2,3
					c-0.5,1-1.4,1.5-2.6,1.7c-0.6,0.1-1.2,0.1-1.9,0c-0.7-0.1-1.4-0.2-2.1-0.3c-1.4-0.3-2.9-0.7-4-1.2c-0.6-0.2-1.1-0.4-1.6-0.6
					c-0.4-0.2-0.8-0.3-1-0.4c0.4,0.4,0.8,0.8,1.2,1.2c0.2,0.2,0.4,0.4,0.5,0.6c0.2,0.2,0.3,0.4,0.5,0.6c0.6,0.7,1.2,1.4,1.7,2.1
					c1,1.3,1.7,2.4,2.1,3.3c0.8,2,0.6,3.4-0.7,4.7c-0.6,0.6-1.2,0.8-1.7,0.8c-0.6,0.1-1.2-0.1-1.7-0.3c-1.1-0.5-2-1.3-2.3-1.6
					c-0.2,1.8-0.6,3.1-1.3,3.9c-0.6,0.8-1.4,1.1-2.4,1c-1.4-0.1-2.6-1.6-3.2-3.9c-0.6-2.3-0.7-5.4,0.4-8.7c-1.6,1.2-3.2,2.6-4.7,3.9
					c-0.7,0.7-1.5,1.3-2.2,1.9c-0.7,0.6-1.3,1.2-1.9,1.6c-0.8,0.6-1.9,0.5-2.5-0.3c-0.1-0.1-0.1-0.1-0.2-0.2
					C242.7,95.7,243.2,93.8,244.5,93.2z"/>
			</g>
			<g>
				<path class="st56" d="M306.9,186.9c0.4,0.4,0.8,0.7,1.1,1c0.4,0.3,0.7,0.7,1,1c0.7,0.6,1.4,1.2,2.1,1.6c1.5,1,3.1,1.7,5.3,2.3
					c-1.6-1.3-3-2.6-4.1-3.8c-0.5-0.6-1-1.2-1.4-1.8c-0.4-0.6-0.7-1.1-1-1.6c-1-2.1-0.5-3.8,1.6-4.8c2.6-1.3,4.8,0.1,5,1.4
					c0.1-1.1,0.4-2,0.8-2.7c0.4-0.7,0.7-1.2,1.2-1.5c0.9-0.7,2.1-0.7,3.2-0.4c1.2,0.3,1.9,1.7,2.3,3.5c0.2,0.9,0.3,2,0.2,3
					c-0.1,1.1-0.3,2.2-0.6,3.2c2.5-3.5,4.4-5.6,6.1-6.7c1.7-1,3-0.8,3.9,0.2c0.5,0.5,0.8,1.1,0.9,1.7c0.1,0.6,0.2,1.2,0.1,1.8
					c-0.1,1.1-0.5,2.2-0.9,2.9c2.5,0.4,3.9,1.3,4.6,2.2c0.7,0.9,0.8,1.8,0.9,2.5c0.1,0.6,0.2,1.9-1.1,2.8c-1.3,0.9-4.2,1.5-10,0.9
					c1.1,0.8,2,1.5,2.8,2.1c0.8,0.7,1.4,1.3,2,1.9c1.1,1.2,1.8,2.2,2.2,3c0.4,0.8,0.5,1.5,0.3,2.1c-0.2,0.6-0.5,1.1-1,1.6
					c-0.9,0.9-2.1,1-3.1,0.7c-1-0.2-1.9-0.7-2.3-0.9c-0.5,4.3-1.9,6.1-4.1,6.1c-2.3,0-3.4-2.7-4-5.5c-0.1-0.4-0.1-0.7-0.2-1.1
					c-0.1-0.4-0.1-0.7-0.2-1.1c-0.1-0.7-0.2-1.4-0.3-2c-0.1-1.2-0.1-2.2-0.1-2.7c-0.9,2.2-1.7,3.9-2.4,5.4c-0.8,1.4-1.5,2.5-2.2,3.3
					c-1.4,1.6-2.8,2-4.6,1.3c-1.5-0.5-1.9-1.8-1.9-3c0-0.3,0-0.6,0.1-0.9c0-0.3,0.1-0.5,0.1-0.8c0.1-0.5,0.2-0.9,0.3-1.1
					c-3.4,1.1-5.5,0.5-6-1.2c-0.2-0.7-0.1-1.4,0.3-2.2c0.4-0.8,1-1.6,2-2.3c1.8-1.5,4.6-2.8,8.1-3.3c-0.8-0.5-1.7-0.9-2.7-1.4
					c-0.9-0.4-1.9-0.9-2.8-1.3c-1.9-0.8-3.6-1.6-4.9-2.3c-0.4-0.3-0.7-0.6-0.8-1.1c-0.1-0.4-0.1-0.9,0.1-1.3c0-0.1,0.1-0.2,0.1-0.2
					C303.9,186.3,305.8,185.9,306.9,186.9z"/>
			</g>
		</g>
	</g>
	<g>
		<g>
			<g>
				<path class="st62" d="M209.2,346.9c-6.7-0.5-6.6-3.9-8.7,9.8c-0.7,4-10.6-1.5-12.1,3.2s0.9,7.8,17.2,7.1s11.2-16.7,10.1-19.2
					C214.6,345.3,209.2,346.9,209.2,346.9z"/>
				<path class="st62" d="M232.5,346.9c6.7-0.5,6.6-3.9,8.7,9.8c0.7,4,10.6-1.5,12.1,3.2s-0.9,7.8-17.2,7.1S225,350.4,226,347.9
					C227.1,345.3,232.5,346.9,232.5,346.9z"/>
			</g>
			<g>
				<g>
					<path class="st56" d="M238.7,318.4c0-9.2-6.9-9.4-20.7-9.4c-11.8,0-15.1,2.3-15.9,7.7l-2.5,34.6c-0.2,3,2.6,5.6,6.3,5.8
						l5.6,0.3c3.7,0.2,6.8-2.1,7-5.2l1.8-24.7l1.8,24.7c0.2,3,3.4,5.3,7,5.2l5.6-0.3c3.7-0.2,6.5-2.8,6.3-5.8L238.7,318.4z"/>
				</g>
				<path class="st55" d="M291.8,262c-7.9,4.6-26.3,10.8-32.4,12.8c-1.1,0.4-8.1,3.3-8.6,4.4c-4,10.6-2.3,38.7-8.7,45.6
					c-3.6,3.8-42.3,1-42.3,1c-2.3,0.2-3.6-2.6-1.9-4.3c9.5-9.1-7.7-26.2-6-39.5c0.1-1.2-0.6-2.3-1.8-2.6c-9.2-2.6-31.7-12-40-16
					c-1.2-0.6-1.7-1.9-1.2-3.1c0.7-1.9,1.9-4.8,3.4-7.7c0.6-1.2,2.1-1.7,3.3-1.1c8.3,4,37.2,10.2,49.5,9.6c0.1,0,0.3,0,0.4,0
					c0.4,0.1,0.8,0.1,1.2,0.2c10.4,4.4,15.3,4.8,26-1c0.3,0,0.6,0.1,0.9,0.1c0.8,0.1,1.6,0.1,2.6,0.1c11.9-0.1,37.4-5.3,45.5-9.4
					c0.9-0.4,1.9-0.3,2.7,0.3c1.7,1.4,4.6,3.8,7.8,6.6C293.4,259.1,293.2,261.2,291.8,262z"/>
				<path class="st54" d="M239.4,268.4c-3.3,2.8-16.1,32.7-19.1,43.1c-1.5-5.5-12.5-35.1-16.8-43.6c0.5-1.3,1-4.3,1.6-6.9
					c0.1,0,0.3,0,0.4,0c0.4,0.1,0.8,0.1,1.2,0.2c10.4,4.4,15.3,4.8,26-1c0.3,0,0.6,0.1,0.9,0.1c0.8,0.1,1.6,0.1,2.6,0.1
					C237,263.2,238.1,266.6,239.4,268.4z"/>
				<path class="st56" d="M246.2,266.3c-2.3-1.7-9.9-6.3-13.9-9c-0.1-0.1-0.2,0-0.2,0.1c0,1,0.3,5.2,2.4,9.5c0,0,0,0.1,0,0.1
					c-2.9,3.7-12.3,22.2-14.2,43.9c-1.9-21.7-11.9-39.8-14.8-43.6c0,0,0-0.1,0-0.1c2-4.2,2.3-8.4,2.4-9.4c0-0.1-0.1-0.2-0.2-0.1
					c-4,2.6-11.6,7.2-13.9,8.9c-0.1,0-0.1,0.1,0,0.2c10.6,12.4,22.8,33.5,26.5,46.2c0,0,0,0,0,0c0,0.1,0,0.1,0.1,0.1c0,0,0,0,0,0
					c0,0,0,0,0.1,0c0,0,0,0,0.1,0c0,0,0,0,0,0c0,0,0,0,0,0c0,0,0,0,0,0c3.7-12.8,15.2-34.3,25.8-46.7
					C246.3,266.4,246.3,266.3,246.2,266.3z"/>
			</g>
			<g>
				<path class="st67" d="M153,261.2c3.9-4.3,0.2-13-1.2-17.2c-1.6-4.7-3.2-3-3.1-0.1c0.6,12.6-6.7-6.7-8.8-5.9
					c-2.6,1,3.4,9.2,3.4,10.3c0,1.2-7.3-8.2-9.1-6.1c-1.7,2,8.1,9.4,7.6,10.1c-0.5,0.7-9.2-5.7-10.1-3.3c-0.7,2,9.6,5.3,9.6,7
					s-6.5-1.8-6.9,0.5C134.1,257.7,150,264.4,153,261.2z"/>
				<path class="st67" d="M284.9,260.1c-3.9-4.3-0.2-13,1.2-17.2c1.6-4.7,3.2-3,3.1-0.1c-0.6,12.6,6.7-6.7,8.8-5.9
					c2.6,1-3.4,9.2-3.4,10.3c0,1.2,7.3-8.2,9.1-6.1c1.7,2-8.1,9.4-7.6,10.1c0.5,0.7,9.2-5.7,10.1-3.3c0.7,2-9.6,5.3-9.6,7
					s6.5-1.8,6.9,0.5C303.8,256.7,287.8,263.4,284.9,260.1z"/>
			</g>
		</g>
		<g>
			<g>
				<path class="st67" d="M250.1,229.2c4-19.1-7.3-28.8-29.1-29.8c-28.9-1.4-40.2,11.3-35.8,26.1c0.4,1.3,0.8,2.7,1.2,4.2
					c-1.8,0.9-3,2.7-3,4.9c0,3,2.5,5.5,5.5,5.5c0.2,0,0.4,0,0.5,0c4.2,12.7,11.3,25.4,28.5,25.4c15.4,0,18.7-6.9,23.4-14.9
					c2.2-3.9,4-7.5,5.4-10.9c0.6,0.2,1.1,0.3,1.8,0.3c3.1,0,5.5-2.4,5.5-5.5C254,232,252.4,229.9,250.1,229.2z"/>
				<g>
					<g>
						
							<ellipse transform="matrix(0.8129 -0.5824 0.5824 0.8129 -98.2175 160.6397)" class="st68" cx="200.9" cy="233.2" rx="1.6" ry="1.6"/>
						
							<ellipse transform="matrix(0.8129 -0.5824 0.5824 0.8129 -92.0102 179.9606)" class="st68" cx="234.1" cy="233.2" rx="1.6" ry="1.6"/>
					</g>
					<g>
						<path class="st68" d="M201.4,252.6c3.1,3.8,7.5,6.2,12.3,6.9c1.4,0.2,2-1.9,0.6-2.1c-4.5-0.6-8.5-2.8-11.4-6.3
							C202,250,200.5,251.5,201.4,252.6L201.4,252.6z"/>
					</g>
				</g>
				<g>
					<g>
						<path class="st69" d="M211.4,220.6c-1.9-0.5-3.8-1-5.6-1.7c-1.5-0.5-3.1-1.4-4.7-1.4c-2.5,0.1-4.8,2.8-6.6,4.3
							c-1.1,0.9,0.5,2.5,1.6,1.6c1-0.8,1.9-1.6,2.9-2.4c1.7-1.3,3.3-0.8,5.2-0.3c2.3,0.6,4.4,1.5,6.7,2.1
							C212.1,223.1,212.7,220.9,211.4,220.6L211.4,220.6z"/>
					</g>
					<g>
						<path class="st69" d="M222.1,220.6c1.9-0.5,3.8-1,5.6-1.7c1.5-0.5,3.1-1.4,4.7-1.4c2.5,0.1,4.8,2.8,6.6,4.3
							c1.1,0.9-0.5,2.5-1.6,1.6c-1-0.8-1.9-1.6-2.9-2.4c-1.7-1.3-3.3-0.8-5.2-0.3c-2.3,0.6-4.4,1.5-6.7,2.1
							C221.3,223.1,220.7,220.9,222.1,220.6L222.1,220.6z"/>
					</g>
				</g>
			</g>
			<path class="st70" d="M216.9,232.4c2.3-0.8,4.1,8.6,5.8,8.8s4.6,1.3,3.8,3.3c-0.8,2.1-9.8,4.8-10.1-4.9
				C216.2,236,215.6,232.9,216.9,232.4z"/>
			<g>
				<circle class="st71" cx="200.5" cy="244.9" r="2.6"/>
				<circle class="st71" cx="236" cy="244.9" r="2.6"/>
			</g>
			<path class="st69" d="M189.5,238.2c4.4-1.5,7,22.6,26.5,23.6c19.6,1,26.2-22.6,29.3-23.6c3.1-1,6.9,0.8,4.9,6.2
				c-2,5.4-27.6,25.1-21.8,37.5c1,3.4-17.5,6.2-33-19C186.2,247.7,181.5,240.9,189.5,238.2z"/>
			<path class="st69" d="M186.9,230.2c-4,0.5-9.5-9-4.6-19.7c4.8-10.8,16.1-17,33.8-16.6s32.9,5.4,37,19.7c4.1,14.3-3,9-5.6,5.8
				c-2.6-3.2-12.7-12.9-15.1-11.7c-2.3,1.2,7.7,6.7,6.2,8.4c-1.6,1.6-10.7-3.7-13.5-6.1c-2.8-2.4-8.6-5.6-10.8-3.4
				c-2.2,2.2,13.6,7.1,12.2,9.1c-1.4,2-11.4,3.5-18.4-4.6c-2-2.6-4.2-6-5-7.8c-1.1,6.1-4.8,10.7-7.4,12.7c-2.5,2-2.6-4.6-2.1-7.8
				c0.4-3-5.7,2.8-5.4,8.7C188.6,222.8,191,229.7,186.9,230.2z"/>
		</g>
		<g>
			<path class="st55" d="M246.7,198.4c0.2-5.3,0.6-11.9,1.1-18.4c0.6-7.3,1.4-14.5,2.5-20.2c2.5-12.6,1.7-16-7.7-20.7
				c-9.4-4.7-17.9-5.8-29.5-5.6c-11.5,0.3-25.1,3.4-31.6,9.6c-6.5,6.3-7.1,8.3-4.4,18.6c1.2,4.4,2.7,12.2,4.1,20
				c1.2,6.8,2.4,13.6,3.1,18.2c-10.8,2.9-17.6,7.1-17.5,11.6c0.2,8.1,23-4.5,50.3-5.1c27.3-0.6,48.6,10.9,48.5,2.9
				C265.4,204.7,258.1,200.8,246.7,198.4z"/>
			<g>
				<path class="st58" d="M181.2,181.8c17.9-6.1,25.8-6.5,37.8-6.8c10.7-0.2,21.6,2.5,28.8,4.9c-0.6,6.7-0.9,13.5-1.1,18.9
					c-19.1-3.5-42.6-3.3-62.3,1.7C183.6,195.9,182.5,188.9,181.2,181.8z"/>
				<g>
					<path class="st54" d="M221.1,201.2l-11.4,0.3c-5.4,0.2-10-4.2-10.1-9.6l-0.3-11.4c-0.2-5.4,4.2-10,9.6-10.1l11.4-0.3
						c5.4-0.2,10,4.2,10.1,9.6l0.3,11.4C230.9,196.5,226.6,201,221.1,201.2z M208.9,173.1c-3.9,0.1-7,3.4-6.9,7.2l0.3,11.4
						c0.1,3.9,3.4,7,7.2,6.9l11.4-0.3c3.9-0.1,7-3.4,6.9-7.2l-0.3-11.4c-0.1-3.9-3.4-7-7.2-6.9L208.9,173.1z"/>
				</g>
			</g>
		</g>
	</g>
</g>
</svg>
