<?xml version="1.0" encoding="UTF-8"?>
<svg width="35" height="37" version="1.1" viewBox="0 0 74 82" xmlns="http://www.w3.org/2000/svg" xmlns:cc="http://creativecommons.org/ns#" xmlns:dc="http://purl.org/dc/elements/1.1/" xmlns:rdf="http://www.w3.org/1999/02/22-rdf-syntax-ns#">
<metadata>
<rdf:RDF>
<cc:Work rdf:about="">
<dc:format>image/svg+xml</dc:format>
<dc:type rdf:resource="http://purl.org/dc/dcmitype/StillImage"/>
<dc:title/>
</cc:Work>
</rdf:RDF>
</metadata>
<g transform="translate(0 -214.98)">
<g transform="matrix(.26458 0 0 .26458 -20.447 198.85)">
<g fill="#8ec045">
<path class="st10" d="m313.8 132.6c-2 1.6-2.8 4-2.9 6.6-1.7-2.5-4-4.6-7.1-4.5-2.1 0-4.2 1.1-4.8 3.3-0.5 2 0.4 3.8 1.7 5.2-2.4 0.4-4.4 2-5.2 4.4-0.6 1.9 0 3.7 1.8 4.7 1.9 1.1 4.3 1.4 6.6 1.1-1.2 1.5-2 3.2-2.1 5.2-0.1 2.4 1.2 5 3.8 5.4 2.1 0.3 3.8-0.8 5.1-2.3 0.7 2.3 2.4 4.2 4.9 4.7 2 0.4 3.7-0.4 4.5-2.3 1.6-3.8 0.1-8.7-2.3-12.3 2.9 1.6 5.4 4 7.5 6.5 1.8 2 4.4 4.9 4.7 7.8-0.3 0.6-0.2 1.3 0.6 1.6 2.4 0.9 1.4-2.7 1-3.5-2.7-5.8-7-10.6-12.3-14.1 4.2-0.9 8.5-3.4 10.3-7 0.8-1.8 0.6-3.6-1-4.9-2-1.7-4.8-1.7-7.1-0.6 0.2-1.8-0.1-3.6-1.5-4.9-1.7-2-4.3-1.6-6.2-0.1z"/>
<path class="st10" d="m130.4 157.4c-0.8-2.5-2.8-4-5.1-5.1 3-0.7 5.7-2 6.8-5 0.8-2 0.5-4.3-1.4-5.6-1.7-1.2-3.7-1-5.5-0.3 0.4-2.4-0.2-4.9-2.2-6.5-1.6-1.3-3.5-1.3-5-0.1-1.8 1.4-2.9 3.5-3.5 5.8-1-1.7-2.3-3-4.1-3.8-2.2-1-5.1-0.7-6.4 1.6-1.1 1.8-0.7 3.8 0.3 5.6-2.4-0.2-4.8 0.8-6.1 2.8-1.1 1.7-1 3.6 0.5 5.1 3 2.8 8.1 3.3 12.3 2.3-2.6 2.1-5.7 3.5-8.7 4.7-2.5 0.9-6.2 2.3-9 1.6-0.4-0.5-1.1-0.7-1.7 0-1.7 1.9 2 2.3 2.9 2.2 6.4-0.4 12.4-2.7 17.6-6.3-0.7 4.2 0 9.2 2.8 12.1 1.3 1.4 3.2 1.9 4.9 0.9 2.3-1.3 3.3-3.9 3.1-6.4 1.6 0.9 3.4 1.2 5.1 0.4 2.5-1.2 3.1-3.8 2.4-6z"/>
<path class="st10" d="m230.3 88.2c-0.8-2.5-2.8-4-5.1-5.1 3-0.7 5.7-2 6.8-5 0.8-2 0.5-4.3-1.4-5.6-1.7-1.2-3.7-1-5.5-0.3 0.4-2.4-0.2-4.9-2.2-6.5-1.6-1.3-3.5-1.3-5-0.1-1.8 1.4-2.9 3.5-3.5 5.8-1-1.7-2.3-3-4.1-3.8-2.2-1-5.1-0.7-6.4 1.6-1.1 1.8-0.7 3.8 0.3 5.6-2.4-0.2-4.8 0.8-6.1 2.8-1.1 1.7-1 3.6 0.5 5.1 3 2.8 8.1 3.3 12.3 2.3-2.6 2.1-5.7 3.5-8.7 4.7-2.5 0.9-6.2 2.3-9 1.6-0.4-0.5-1.1-0.7-1.7 0-1.7 1.9 2 2.3 2.9 2.2 6.4-0.4 12.4-2.7 17.6-6.3-0.7 4.2 0 9.2 2.8 12.1 1.3 1.4 3.2 1.9 4.9 0.9 2.3-1.3 3.3-3.9 3.1-6.4 1.6 0.9 3.4 1.2 5.1 0.4 2.5-1.1 3.1-3.7 2.4-6z"/>
<path class="st10" d="m122 285.6c-0.8-2.5-2.8-4-5.1-5.1 3-0.7 5.7-2 6.8-5 0.8-2 0.5-4.3-1.4-5.6-1.7-1.2-3.7-1-5.5-0.3 0.4-2.4-0.2-4.9-2.2-6.5-1.6-1.3-3.5-1.3-5-0.1-1.8 1.4-2.9 3.5-3.5 5.8-1-1.7-2.3-3-4.1-3.8-2.2-1-5.1-0.7-6.4 1.6-1.1 1.8-0.7 3.8 0.3 5.6-2.4-0.2-4.8 0.8-6.1 2.8-1.1 1.7-1 3.6 0.5 5.1 3 2.8 8.1 3.3 12.3 2.3-2.6 2.1-5.7 3.5-8.7 4.7-2.5 0.9-6.2 2.3-9 1.6-0.4-0.5-1.1-0.7-1.7 0-1.7 1.9 2 2.3 2.9 2.2 6.4-0.4 12.4-2.7 17.6-6.3-0.7 4.2 0 9.2 2.8 12.1 1.3 1.4 3.2 1.9 4.9 0.9 2.3-1.3 3.3-3.9 3.1-6.4 1.6 0.9 3.4 1.2 5.1 0.4 2.5-1.1 3.1-3.7 2.4-6z"/>
<path class="st10" d="m347 297.2c-0.8-2.5-2.8-4-5.1-5.1 3-0.7 5.7-2 6.8-5 0.8-2 0.5-4.3-1.4-5.6-1.7-1.2-3.7-1-5.5-0.3 0.4-2.4-0.2-4.9-2.2-6.5-1.6-1.3-3.5-1.3-5-0.1-1.8 1.4-2.9 3.5-3.5 5.8-1-1.7-2.3-3-4.1-3.8-2.2-1-5.1-0.7-6.4 1.6-1.1 1.8-0.7 3.8 0.3 5.6-2.4-0.2-4.8 0.8-6.1 2.8-1.1 1.7-1 3.6 0.5 5.1 3 2.8 8.1 3.3 12.3 2.3-2.6 2.1-5.7 3.5-8.7 4.7-2.5 0.9-6.2 2.3-9 1.6-0.4-0.5-1.1-0.7-1.7 0-1.7 1.9 2 2.3 2.9 2.2 6.4-0.4 12.4-2.7 17.6-6.3-0.7 4.2 0 9.2 2.8 12.1 1.3 1.4 3.2 1.9 4.9 0.9 2.3-1.3 3.3-3.9 3.1-6.4 1.6 0.9 3.4 1.2 5.1 0.4 2.5-1.2 3.2-3.8 2.4-6z"/>
<path class="st10" d="m226.4 354.8c-0.8-2.5-2.8-4-5.1-5.1 3-0.7 5.7-2 6.8-5 0.8-2 0.5-4.3-1.4-5.6-1.7-1.2-3.7-1-5.5-0.3 0.4-2.4-0.2-4.9-2.2-6.5-1.6-1.3-3.5-1.3-5-0.1-1.8 1.4-2.9 3.5-3.5 5.8-1-1.7-2.3-3-4.1-3.8-2.2-1-5.1-0.7-6.4 1.6-1.1 1.8-0.7 3.8 0.3 5.6-2.4-0.2-4.8 0.8-6.1 2.8-1.1 1.7-1 3.6 0.5 5.1 3 2.8 8.1 3.3 12.3 2.3-2.6 2.1-5.7 3.5-8.7 4.7-2.5 0.9-6.2 2.3-9 1.6-0.4-0.5-1.1-0.7-1.7 0-1.7 1.9 2 2.3 2.9 2.2 6.4-0.4 12.4-2.7 17.6-6.3-0.7 4.2 0 9.2 2.8 12.1 1.3 1.4 3.2 1.9 4.9 0.9 2.3-1.3 3.3-3.9 3.1-6.4 1.6 0.9 3.4 1.2 5.1 0.4 2.6-1.2 3.2-3.8 2.4-6z"/>
</g>
<g fill="#066938">
<path class="st11" d="m111.6 199.8c-2.6 0-4.6 1.5-6.4 3.4 0.2-3.1-0.3-6-2.8-8-1.7-1.3-4-1.7-5.8-0.3-1.6 1.3-2.1 3.3-1.8 5.2-2.1-1.1-4.7-1.2-6.8 0.2-1.7 1.1-2.2 2.9-1.5 4.8 0.8 2.1 2.5 3.8 4.5 5-1.9 0.5-3.6 1.3-4.8 2.8-1.6 1.8-2.1 4.7-0.3 6.5 1.4 1.5 3.5 1.7 5.4 1.3-0.8 2.2-0.6 4.8 0.9 6.7 1.3 1.6 3.2 2 5 0.9 3.5-2 5.5-6.8 5.8-11.1 1.3 3 1.7 6.5 1.9 9.7 0.2 2.7 0.4 6.6-1.1 9.1-0.6 0.2-1 0.9-0.5 1.6 1.3 2.1 2.7-1.3 2.9-2.2 1.5-6.2 1.1-12.7-1-18.7 3.9 1.9 8.8 2.6 12.4 0.8 1.8-0.9 2.7-2.5 2.3-4.5-0.6-2.6-2.8-4.3-5.2-4.8 1.3-1.3 2.2-2.9 1.9-4.8-0.3-2.3-2.6-3.7-5-3.6z"/>
<path class="st11" d="m328.4 210.9c-2 1.6-2.8 4-2.9 6.6-1.7-2.5-4-4.6-7.1-4.5-2.1 0-4.2 1.1-4.8 3.3-0.5 2 0.4 3.8 1.7 5.2-2.4 0.4-4.4 2-5.2 4.4-0.6 1.9 0 3.7 1.8 4.7 1.9 1.1 4.3 1.4 6.6 1.1-1.2 1.5-2 3.2-2.1 5.2-0.1 2.4 1.2 5 3.8 5.4 2.1 0.3 3.8-0.8 5.1-2.3 0.7 2.3 2.4 4.2 4.9 4.7 2 0.4 3.7-0.4 4.5-2.3 1.6-3.8 0.1-8.7-2.3-12.3 2.9 1.6 5.4 4 7.5 6.5 1.8 2 4.4 4.9 4.7 7.8-0.3 0.6-0.2 1.3 0.6 1.6 2.4 0.9 1.4-2.7 1-3.5-2.7-5.8-7-10.6-12.3-14.1 4.2-0.9 8.5-3.4 10.3-7 0.8-1.8 0.6-3.6-1-4.9-2-1.7-4.8-1.7-7.1-0.6 0.2-1.8-0.1-3.6-1.5-4.9-1.7-1.9-4.3-1.6-6.2-0.1z"/>
<path class="st11" d="m308.3 340.5c-0.5-1.7-1.9-2.7-3.4-3.4 2-0.5 3.8-1.4 4.6-3.3 0.5-1.3 0.3-2.9-0.9-3.8-1.1-0.8-2.5-0.7-3.7-0.2 0.3-1.6-0.2-3.3-1.5-4.3-1-0.9-2.3-0.9-3.4 0-1.2 0.9-1.9 2.3-2.3 3.9-0.7-1.1-1.5-2-2.7-2.6-1.5-0.7-3.4-0.4-4.3 1.1-0.7 1.2-0.4 2.6 0.2 3.7-1.6-0.1-3.2 0.5-4.1 1.9-0.8 1.2-0.6 2.4 0.4 3.4 2 1.9 5.4 2.2 8.3 1.6-1.7 1.4-3.8 2.4-5.9 3.1-1.7 0.6-4.2 1.6-6 1.1-0.3-0.3-0.7-0.5-1.1 0-1.1 1.3 1.3 1.5 2 1.5 4.3-0.3 8.4-1.8 11.8-4.3-0.5 2.9 0 6.2 1.9 8.1 0.9 1 2.1 1.3 3.3 0.6 1.5-0.9 2.2-2.6 2.1-4.3 1.1 0.6 2.3 0.8 3.4 0.3 1.4-0.8 1.8-2.5 1.3-4.1z"/>
<path class="st11" d="m126.8 310.2c-1.6 0.8-2.4 2.2-2.9 3.9-0.8-1.9-1.9-3.6-4-4-1.4-0.3-2.9 0.1-3.6 1.5-0.6 1.2-0.3 2.6 0.4 3.7-1.6 0-3.2 0.6-4.1 2.1-0.7 1.2-0.5 2.4 0.5 3.4 1.1 1 2.6 1.5 4.2 1.7-1 0.8-1.8 1.8-2.1 3.1-0.4 1.6 0.1 3.4 1.7 4.1 1.3 0.5 2.6 0 3.7-0.8 0.1 1.6 1 3.1 2.5 3.8 1.3 0.6 2.5 0.3 3.3-0.9 1.6-2.3 1.3-5.7 0.3-8.4 1.6 1.5 2.9 3.4 4 5.3 0.9 1.6 2.2 3.9 2 5.8-0.3 0.3-0.3 0.8 0.2 1.1 1.4 0.9 1.3-1.6 1.2-2.2-0.9-4.2-3-8-6-11 2.9 0 6.1-1 7.7-3.1 0.8-1 0.9-2.3 0.1-3.4-1.1-1.4-2.9-1.8-4.6-1.4 0.4-1.1 0.5-2.4-0.2-3.4-1-1.5-2.8-1.6-4.3-0.9z"/>
<path class="st11" d="m138.4 82.8c-1.6 0.8-2.4 2.2-2.9 3.9-0.8-1.9-1.9-3.6-4-4-1.4-0.3-2.9 0.1-3.6 1.5-0.6 1.2-0.3 2.6 0.4 3.7-1.6 0-3.2 0.6-4.1 2.1-0.7 1.2-0.5 2.4 0.5 3.4 1.1 1 2.6 1.5 4.2 1.7-1 0.8-1.8 1.8-2.1 3.1-0.4 1.6 0.1 3.4 1.7 4.1 1.3 0.5 2.6 0 3.7-0.8 0.1 1.6 1 3.1 2.5 3.8 1.3 0.6 2.5 0.3 3.3-0.9 1.6-2.3 1.3-5.7 0.3-8.4 1.6 1.5 2.9 3.4 4 5.3 0.9 1.6 2.2 3.9 2 5.8-0.3 0.3-0.3 0.8 0.2 1.1 1.4 0.9 1.3-1.6 1.2-2.2-0.9-4.2-3-8-6-11 2.9 0 6.1-1 7.7-3.1 0.8-1 0.9-2.3 0.1-3.4-1.1-1.4-2.9-1.8-4.6-1.4 0.4-1.1 0.5-2.4-0.2-3.4-1.1-1.4-2.9-1.6-4.3-0.9z"/>
<path class="st11" d="m293 87.8c-1.1-1.3-2.7-1.8-4.5-1.9 1.7-1.2 3-2.7 2.9-4.8 0-1.4-0.8-2.8-2.3-3.2-1.4-0.3-2.6 0.3-3.5 1.3-0.3-1.6-1.4-3-3-3.4-1.3-0.4-2.5 0.1-3.1 1.3-0.7 1.3-0.9 2.9-0.7 4.5-1-0.8-2.2-1.3-3.5-1.3-1.6 0-3.3 0.9-3.5 2.6-0.2 1.4 0.6 2.6 1.6 3.4-1.5 0.5-2.8 1.7-3.1 3.3-0.3 1.4 0.3 2.5 1.6 3 2.6 1 5.9 0 8.2-1.7-1 2-2.6 3.7-4.2 5.1-1.3 1.2-3.2 3-5.2 3.3-0.4-0.2-0.9-0.1-1 0.4-0.5 1.6 1.8 0.9 2.4 0.6 3.9-1.9 7-4.9 9.3-8.5 0.6 2.8 2.4 5.7 4.9 6.8 1.2 0.5 2.5 0.3 3.3-0.7 1.1-1.4 1-3.3 0.3-4.8 1.2 0.1 2.4-0.1 3.3-1.1 1.1-1.2 0.9-3-0.2-4.2z"/>
</g>
<path class="st9" d="m295.2 255.7c-2.3-11.5-15.7-20.7-26.3-12.6-10.8 8.3-6.7 22.7 2.8 29.9 2.2 1.7 5.7 0.3 7-1.8 1.6-2.6 0.3-5.3-1.8-7-2.5-2-4.6-5.3-4.2-8.6 0.4-2.8 2.7-5.6 5.7-5.3 8.5 1 7.5 13.5 6.2 19.3-3.2 14.5-14.1 27.1-29.2 27.6 0.1-3.9-0.1-7.6-0.3-10.6-2-25.1-7.3-34.9-8.1-46.8 36.6-15.8 52.3-59.5 30.4-94.2 0.8-5.5 4.4-44.3-0.3-42.4-10.4 4.3-19.9 10.1-28.3 17.5-33.1-15.4-58-1.7-60.3-2.1-0.1 0-32.4-25.2-32.9-18.4-2.3 30.4 2.9 40.1 0.6 44.6-21.6 43-6.2 75.5 24 91.7-5.8 17.8-10.4 36.6-10.3 55.5 0.1 13.1 2.6 22.5 6.2 28.3-4.4 1.9-3.8 9.9 2.1 9.9 1.3 0 2.3-0.4 3.1-1 0.6 1.8 2.2 3.3 4.7 3.3 2.7 0 4.3-1.7 4.8-3.7 0.5 0.2 1.1 0.3 1.8 0.3 5.2 0 6.3-6.4 3.3-9.1 0.1-0.3 0.3-0.6 0.4-0.9 7.3 1.5 15.1 1.5 22.4 0.7 3-0.3 5.9-1 8.5-2.2 0.6 1.6 1.2 3.1 2 4.5-2.1 3-0.8 8.3 4 8.3 1.1 0 2-0.3 2.7-0.7l0.6 0.3c0.6 1.8 2.2 3.3 4.7 3.3 2.7 0 4.3-1.7 4.8-3.7 0.3 0.2 0.6 0.3 1 0.4 0.5 0.1 1 0.2 1.4 0.3 1.4 0.3 2.7 0.2 4-0.5 1.1-0.6 2.1-1.8 2.4-3.1s0.2-2.8-0.5-4c-0.5-0.8-1.2-1.5-2.1-2 1.5-3.8 2.4-8.4 2.9-13.1 24.8-0.1 45-27.5 40.1-51.9z" fill="#1b1b1b"/>
<g fill="#e5ad30">
<path class="st12" d="m183.4 120.3c-0.1 0.1-0.3 0.2-0.4 0.4 0-0.3-0.1-0.6-0.3-0.9-6-6.5-13.4-11.1-21.9-13.5-0.7-0.2-1.7 0.4-1.6 1.2 1.1 9.1 1.5 18.2 1.3 27.4 0 1.3 1.8 1.7 2.4 0.6 2.8-5 5.9-9.3 11.9-10.4 3.5-0.6 7.9-0.2 10.5-3 1-1.2-0.8-3-1.9-1.8z"/>
<path class="st12" d="m252.4 123.7c0.1 0.1 0.2 0.2 0.4 0.3 0-0.3 0.1-0.6 0.3-0.8 5.6-6.1 12.6-10.4 20.5-12.7 0.7-0.2 1.6 0.4 1.5 1.2-1 8.5-1.4 17.1-1.2 25.6 0 1.2-1.7 1.6-2.2 0.6-2.7-4.7-5.5-8.7-11.1-9.7-3.3-0.6-7.4-0.2-9.8-2.8-1.2-1.2 0.5-2.9 1.6-1.7z"/>
</g>
<path class="st12" d="m189.5 151.4c-9.5 0-17.1 8-17.1 18s7.7 18 17.1 18c9.5 0 17.1-8 17.1-18s-7.7-18-17.1-18zm0.4 31.7c-5.8 0-10.6-6.1-10.6-13.7s4.7-13.7 10.6-13.7 10.6 6.1 10.6 13.7c0 7.5-4.8 13.7-10.6 13.7z" fill="#e5ad30"/>
<g fill="#fff">
<path class="st4" d="m188 168.1c1.6 0 3.5-0.4 3.5-2.5s-0.7-3.7-2.3-3.7-3.5 1.7-3.5 3.7 0.7 2.5 2.3 2.5z"/>
<path class="st4" d="m192.2 168.7c-2.1-0.8-5.4 0.5-6.4 3.2s-0.3 3.6 1.8 4.4 4.8 1.1 5.8-1.6 0.9-5.3-1.2-6z"/>
</g>
<path class="st12" d="m242.5 150.5c-9.5 0-17.1 8-17.1 18s7.7 18 17.1 18c9.5 0 17.1-8 17.1-18s-7.6-18-17.1-18zm0.5 31.7c-5.8 0-10.6-6.1-10.6-13.7s4.7-13.7 10.6-13.7 10.6 6.1 10.6 13.7c-0.1 7.6-4.8 13.7-10.6 13.7z" fill="#e5ad30"/>
<g fill="#fff">
<path class="st4" d="m241.1 167.3c1.6 0 3.5-0.4 3.5-2.5s-0.7-3.7-2.3-3.7-3.5 1.7-3.5 3.7 0.7 2.5 2.3 2.5z"/>
<path class="st4" d="m245.3 167.8c-2.1-0.8-5.4 0.5-6.4 3.2s-0.3 3.6 1.8 4.4 4.8 1.1 5.8-1.6 0.9-5.2-1.2-6z"/>
</g>
<path class="st13" d="m236.8 200.1c-3.5-3.6-8.4-4.3-13.1-3.5 0.1-0.2 0.1-0.5 0.1-0.7 0-3.3-4.8-2.6-8.6-2.6s-9.4-0.7-9.4 2.6c0 0.4 0.1 0.9 0.3 1.3-4.1-0.5-8.3 0.3-11.4 3.4-3 3.2-3.8 8.1-1.7 12 2.3 4.2 7 5.6 11.5 5.6 3.3 9.4 18.2 9.7 21.8 0.3 0-0.1 0.1-0.2 0.1-0.4 4.9 0.3 10.2-1 12.5-5.7 2.2-4.1 1.1-9.1-2.1-12.3zm-41.7 10.8c-1.4-3.1-0.5-6.7 2-8.9 3.3-2.9 7.9-2.7 11.9-1.6 2 1.5 4.3 2.8 5.6 3.1 0.3 2.7 0.6 6-0.8 8.4-1.5 2.6-4.8 3.4-7.6 3.7-4.1 0.4-9.2-0.5-11.1-4.7zm12.2 7.1c0.1 0 0.1 0 0 0 3.2-0.4 6.6-1.5 8.4-4.3 0.3-0.4 0.5-0.8 0.7-1.2 1.3 2.6 3.7 4.5 7.6 5.3-2.6 7-13.8 6.6-16.7 0.2zm29.7-7.4c-1.6 4.3-6.4 5.3-10.5 5-2.9-0.2-6.4-0.9-8-3.7-1.5-2.6-1.1-5.9-0.8-8.7v-0.4c1.4-0.7 3-1.9 4.1-3.2 4.2-1.2 8.8-1.4 12.3 1.5 2.8 2.3 4.2 6.1 2.9 9.5z" fill="#4e4d4d"/>
<g fill="#4e4d4d">
<path class="st13" d="m302.6 193.6c-16.9 1.3-33.7 4.3-50 8.9-1.4 0.4-0.8 2.6 0.6 2.2 16.1-4.6 32.7-7.6 49.4-8.9 1.4 0 1.5-2.3 0-2.2z"/>
<path class="st13" d="m288 211c-11.3-1-22.5-1.7-33.8-2.2-1.5-0.1-1.5 2.2 0 2.3 11.3 0.5 22.6 1.2 33.8 2.2 1.5 0.1 1.5-2.2 0-2.3z"/>
<path class="st13" d="m278.5 229.3c-6.6-5-13.6-9.3-21.1-12.8-1.3-0.6-2.5 1.4-1.2 2 7.5 3.5 14.5 7.8 21.1 12.8 1.2 0.9 2.3-1.1 1.2-2z"/>
<path class="st13" d="m129.4 193.6c16.9 1.3 33.7 4.3 50 8.9 1.4 0.4 0.8 2.6-0.6 2.2-16.1-4.6-32.7-7.6-49.4-8.9-1.4 0-1.5-2.3 0-2.2z"/>
<path class="st13" d="m144 211c11.3-1 22.5-1.7 33.8-2.2 1.5-0.1 1.5 2.2 0 2.3-11.3 0.5-22.6 1.2-33.8 2.2-1.5 0.1-1.5-2.2 0-2.3z"/>
<path class="st13" d="m153.5 229.3c6.6-5 13.6-9.3 21.1-12.8 1.3-0.6 2.5 1.4 1.2 2-7.5 3.5-14.5 7.8-21.1 12.8-1.2 0.9-2.3-1.1-1.2-2z"/>
</g>
</g>
</g>
</svg>
