<?xml version="1.0" encoding="utf-8"?>
<!-- Generator: Adobe Illustrator 21.1.0, SVG Export Plug-In . SVG Version: 6.00 Build 0)  -->
<svg version="1.1" id="Calque_1" xmlns="http://www.w3.org/2000/svg" xmlns:xlink="http://www.w3.org/1999/xlink" x="0px" y="0px"
	 viewBox="0 0 432 432" style="enable-background:new 0 0 432 432;" xml:space="preserve">
<style type="text/css">
	.st2{fill:#020203;}
	.st52{fill:#CDCCCC;}
	.st54{fill:#E3B320;}
	.st57{fill:#FDC834;}
	.st59{fill:#B5A059;}
</style>
<g>
	<g>
		<g>
			<g>
				<path class="st2" d="M260.4,278.3c5.6-2.5,8.8-5.6,8.8-8.8c0-8.9-24.1-16.1-53.9-16.1s-53.9,7.2-53.9,16.1
					c0,3.2,3.1,6.2,8.5,8.7c-12.9,20.7-15.3,30.7-15.3,42.3c0,7.5,1.4,22,14.9,32.5v3.9c0,5.7,4.6,10.3,10.3,10.3h73.5
					c5.7,0,10.3-4.6,10.3-10.3v-4.4c13.6-10.9,14.7-25.3,14.9-29.1C278.7,317.5,278.1,296.9,260.4,278.3z"/>
				<g>
					<path class="st57" d="M192.3,299.6c3.3,1.4,4.9,1.2,2.9,5.4c-2.1,4.1-3.9,9.7,0.1,23c3.8,12.5,18.4,14.1,28.6,11.6c0,0,0,0,0,0
						c0.3-0.1,0.6-0.2,0.9-0.3c0.3-0.1,0.6-0.2,0.9-0.2c0,0,0,0,0-0.1c9.8-3.6,20.9-13,17.1-25.5c-4-13.3-8.6-16.9-12.7-19.2
						c-4-2.3-2.6-3.1-0.6-6c2-3-4.1-8.3-5.8-5.3c0,0-2.4,3.3-4.7,6.8c-2.2,3.5-0.7,4.7,2,6c2.7,1.3,8.1,2.3,12.4,16.5
						c4.9,16.1-26.1,25.1-30.9,9.4c-4.3-14.2-0.4-18,1.1-20.6c1.5-2.6,2.1-4.4-1.7-6.1c-3.8-1.7-7.7-3-7.7-3
						C191.1,290.4,189,298.2,192.3,299.6z"/>
					<g>
						
							<ellipse transform="matrix(0.7119 -0.7022 0.7022 0.7119 -170.3652 252.5194)" class="st59" cx="222.6" cy="333.9" rx="2.7" ry="2.7"/>
						
							<ellipse transform="matrix(0.7119 -0.7022 0.7022 0.7119 -162.2644 258.7716)" class="st59" cx="234.3" cy="327.2" rx="2.7" ry="2.7"/>
						
							<ellipse transform="matrix(0.7119 -0.7022 0.7022 0.7119 -174.4731 242.6682)" class="st59" cx="208.6" cy="334" rx="2.7" ry="2.7"/>
					</g>
				</g>
			</g>
			<g>
				<path class="st54" d="M261.7,268.3c0-2.4-4.7-4.3-10.5-4.3c-3.7,0-6.9,0.8-8.7,1.9c-4.2-0.4-9-0.8-14.3-1c0-0.1,0-0.2,0-0.4
					c0-2.4-4.7-4.3-10.5-4.3c-5.8,0-10.5,1.9-10.5,4.3c0,0.1,0,0.1,0,0.2c-3,0.1-5.9,0.2-8.7,0.3c-1.3-1.7-5.3-3-10-3
					c-5.8,0-10.5,1.9-10.5,4.3c0,0.2,0,0.4,0.1,0.6c-5.6,0.9-9,2.1-9,3.4c0,3.1,20.1,5.6,44.9,5.6c20.8,0,38.2-1.8,43.3-4.1
					C260,270.9,261.7,269.7,261.7,268.3z"/>
				<ellipse class="st57" cx="222.3" cy="270.6" rx="10.5" ry="4.3"/>
				<ellipse class="st54" cx="235.5" cy="266.3" rx="10.5" ry="4.3"/>
				<ellipse class="st54" cx="247.3" cy="267.4" rx="10.5" ry="4.3"/>
				<path class="st57" d="M247.9,262c-0.7,0-1.3,0-1.9,0.1c-0.5-2.2-5-3.9-10.4-3.9c-5.8,0-10.5,1.9-10.5,4.3
					c0,2.4,4.7,4.3,10.5,4.3c0.7,0,1.3,0,1.9-0.1c0.5,2.2,5,3.9,10.4,3.9c5.8,0,10.5-1.9,10.5-4.3C258.3,263.9,253.7,262,247.9,262z
					"/>
				<ellipse class="st57" cx="179.7" cy="266.3" rx="10.5" ry="4.3"/>
				<path class="st57" d="M212.5,256c-4.9,0-9,1.4-10.1,3.2c-0.1,0-0.2,0-0.3,0c-5.8,0-10.5,1.9-10.5,4.3c0,2.4,4.7,4.3,10.5,4.3
					c4.9,0,9-1.4,10.1-3.2c0.1,0,0.2,0,0.3,0c5.8,0,10.5-1.9,10.5-4.3S218.3,256,212.5,256z"/>
				<ellipse class="st54" cx="200" cy="268.3" rx="9.8" ry="4"/>
			</g>
		</g>
	</g>
</g>
</svg>
