<svg xmlns="http://www.w3.org/2000/svg" viewBox="0 0 200 170" width="200" height="170">
<style>
  .a{
    fill:#fdc834;
  }
  .b{
    fill:#b5a059;
  }
  .c{
    fill:#e3b320;
  }
</style>
  <style type="text/css">
    
	.st1{fill:#8CB225;}
	.st54{fill:#E3B320;}
	.st57{fill:#FDC834;}
	.st58{fill:#8C633A;}
	.st59{fill:#B5A059;}

  </style>
  <g transform="matrix(1.5428393 0 0 1.4343034 -234.19415 -360.15418)">
      <path class="st2" d="m260.4 278.3c5.6-2.5 8.8-5.6 8.8-8.8 0-8.9-24.1-16.1-53.9-16.1-29.8 0-53.9 7.2-53.9 16.1 0 3.2 3.1 6.2 8.5 8.7-12.9 20.7-15.3 30.7-15.3 42.3 0 7.5 1.4 22 14.9 32.5v3.9c0 5.7 4.6 10.3 10.3 10.3h73.5c5.7 0 10.3-4.6 10.3-10.3v-4.4c13.6-10.9 14.7-25.3 14.9-29.1 0.2-5.9-0.4-26.5-18.1-45.1z" fill="#020203"/>
        <path class="st57" d="m192.3 299.6c3.3 1.4 4.9 1.2 2.9 5.4-2.1 4.1-3.9 9.7 0.1 23 3.8 12.5 18.4 14.1 28.6 11.6 0 0 0 0 0 0 0.3-0.1 0.6-0.2 0.9-0.3 0.3-0.1 0.6-0.2 0.9-0.2 0 0 0 0 0-0.1 9.8-3.6 20.9-13 17.1-25.5-4-13.3-8.6-16.9-12.7-19.2-4-2.3-2.6-3.1-0.6-6 2-3-4.1-8.3-5.8-5.3 0 0-2.4 3.3-4.7 6.8-2.2 3.5-0.7 4.7 2 6 2.7 1.3 8.1 2.3 12.4 16.5 4.9 16.1-26.1 25.1-30.9 9.4-4.3-14.2-0.4-18 1.1-20.6 1.5-2.6 2.1-4.4-1.7-6.1-3.8-1.7-7.7-3-7.7-3-3.1-1.6-5.2 6.2-1.9 7.6z" class="a"/>
          <circle transform="matrix(0.7119 -0.7022 0.7022 0.7119 -170.3652 252.5194)" class="st59" cx="222.6" cy="333.9" r="2.7" class="b"/>
          <circle transform="matrix(0.7119 -0.7022 0.7022 0.7119 -162.2644 258.7716)" class="st59" cx="234.3" cy="327.2" r="2.7" class="b"/>
          <circle transform="matrix(0.7119 -0.7022 0.7022 0.7119 -174.4731 242.6682)" class="st59" cx="208.6" cy="334" r="2.7" class="b"/>
      <path class="st54" d="m261.7 268.3c0-2.4-4.7-4.3-10.5-4.3-3.7 0-6.9 0.8-8.7 1.9-4.2-0.4-9-0.8-14.3-1 0-0.1 0-0.2 0-0.4 0-2.4-4.7-4.3-10.5-4.3-5.8 0-10.5 1.9-10.5 4.3 0 0.1 0 0.1 0 0.2-3 0.1-5.9 0.2-8.7 0.3-1.3-1.7-5.3-3-10-3-5.8 0-10.5 1.9-10.5 4.3 0 0.2 0 0.4 0.1 0.6-5.6 0.9-9 2.1-9 3.4 0 3.1 20.1 5.6 44.9 5.6 20.8 0 38.2-1.8 43.3-4.1 2.7-0.9 4.4-2.1 4.4-3.5z" class="c"/>
      <path class="st57" d="m247.9 262c-0.7 0-1.3 0-1.9 0.1-0.5-2.2-5-3.9-10.4-3.9-5.8 0-10.5 1.9-10.5 4.3 0 2.4 4.7 4.3 10.5 4.3 0.7 0 1.3 0 1.9-0.1 0.5 2.2 5 3.9 10.4 3.9 5.8 0 10.5-1.9 10.5-4.3-0.1-2.4-4.7-4.3-10.5-4.3z" class="a"/>
      <path class="st57" d="m212.5 256c-4.9 0-9 1.4-10.1 3.2-0.1 0-0.2 0-0.3 0-5.8 0-10.5 1.9-10.5 4.3 0 2.4 4.7 4.3 10.5 4.3 4.9 0 9-1.4 10.1-3.2 0.1 0 0.2 0 0.3 0 5.8 0 10.5-1.9 10.5-4.3 0-2.4-4.7-4.3-10.5-4.3z" class="a"/>
  </g>
</svg>
 