<svg width="8.7312cm" height="8.4667cm" version="1.1" viewBox="0 0 87.312494 84.666669" xmlns="http://www.w3.org/2000/svg" xmlns:cc="http://creativecommons.org/ns#" xmlns:dc="http://purl.org/dc/elements/1.1/" xmlns:rdf="http://www.w3.org/1999/02/22-rdf-syntax-ns#" xmlns:xlink="http://www.w3.org/1999/xlink">
<defs>
<linearGradient id="a" x1="124.57" x2="135.49" y1="77.751" y2="80.969" gradientTransform="matrix(.83417 0 0 .78036 -33.896 194.97)" gradientUnits="userSpaceOnUse">
<stop stop-color="#219B5B" offset="0"/>
<stop stop-color="#219B5B" stop-opacity="0" offset="1"/>
</linearGradient>
</defs>
<metadata>
<rdf:RDF>
<cc:Work rdf:about="">
<dc:format>image/svg+xml</dc:format>
<dc:type rdf:resource="http://purl.org/dc/dcmitype/StillImage"/>
<dc:title/>
</cc:Work>
</rdf:RDF>
</metadata>
<g transform="translate(0 -212.33)">
<g transform="matrix(.22071 0 0 .20647 -2.7167 209.27)" fill="#219B5B">
<path class="st74" d="m319.7 256.8c0.2 0.1 0.4 0.1 0.5 0.2 5.1 4.3 8.2 9.8 9.9 16.2 1.4 5.2 0.9 10.3-0.6 15.4-1.6 5.4-4.2 10.2-7.8 14.5-7.8 9.2-17.6 14.9-29.4 17.2-3.3 0.6-6.6 1-10 1-4.8-0.1-9.5-1.1-14-2.7-12-4.3-21.7-11.7-29.1-22-4.3-5.9-7.5-12.3-10.1-19.1-3.2-8.6-5.6-17.5-7-26.6-0.9-5.9-1.5-11.8-1.9-17.7-0.2-3.7-0.4-7.4-0.5-11.2-0.2-5.9 0.2-11.8 0.8-17.7 0.1-1.2 0.2-2.3 0.2-3.5 0-0.8 0.3-1.5 0.9-2 0.4-0.4 0.8-0.7 1.3-1.1 0.6-0.5 1.3-1 2-1.5 6.8-4.5 13.3-9.2 20.4-13.2 8.6-5 17.3-9.6 26.5-13.4 6.5-2.7 13.2-4.5 20-5.9 4.7-1 9.4-1.7 14.2-2.2 8.2-0.7 16.4-0.3 24.3 2.2 2.6 0.8 5.1 1.7 7.5 2.9 11.5 5.7 19.2 14.6 22.9 27 1.4 4.6 2.1 9.3 1.8 14.2-0.2 5-1.3 9.9-3.1 14.6-3.5 9.5-9.1 17.5-16.7 24.1-4.7 4.2-10.3 6.7-16.3 8.4-2.2 0.6-4.5 1.1-6.7 1.6 0.1 0.1 0 0.2 0 0.3zm-14.8 0.3c-0.3-0.2-0.5-0.3-0.6-0.3-4.9-2.6-8.3-6.4-10.2-11.6-1.8-4.8-1.9-9.7-1-14.7 0.8-4.2 2.4-8.1 4.8-11.5 2.5-3.7 5.3-7.2 8-10.8 3.2-4.1 4.5-8.7 3.6-13.8-0.6-3.8-3.1-7.3-8.1-7.7-1.7-0.1-3.3 0.2-4.6 1.4-2.5 2.2-4.1 4.9-4.6 8.1-0.4 2.3 0.2 4.4 1.9 6.1 1.6 1.7 3.7 2.1 5.8 1.1 1.1-0.5 1.7-1.4 2.2-2.4 0.4-0.9 0.1-1.7-0.3-2.5-0.4-0.7-0.3-1.3 0.2-1.7 0.5-0.5 1.1-0.5 1.7-0.2 1.2 0.5 2.1 1.4 2.5 2.7 0.7 2.1 0.3 4-1.2 5.7-3 3.3-6.8 4.3-11 3-2.8-0.8-5-2.4-6.3-5.1-2.5-5.2-1.7-12 2.1-16.1 0.2-0.2 0.3-0.4 0.6-0.8-0.4 0.1-0.6 0.1-0.8 0.2-5.3 1.6-10.6 3.1-15.9 4.9-12 4-23.8 8.6-35.5 13.3-1.8 0.7-3.5 1.5-5.3 2.2-0.6 0.2-0.9 0.7-0.9 1.3 0 0.7-0.1 1.4 0 2.1 0.1 3 0.8 5.8 1.9 8.6 2 5.2 4.7 9.8 8.9 13.5 3.8 3.4 8.3 5.7 13.1 7.2 3.8 1.1 7.7 1.5 11.7 0.9 5.2-0.8 8.8-3.5 10.4-8.6s1.6-10.2-0.1-15.2c-0.9-2.8-2.5-5.1-4.8-6.9-1.1-0.9-2.3-1.4-3.8-1.6-1.4-0.2-2.8-0.1-4.2 0.2-3.8 0.9-6.4 3.1-7.2 7-0.1 0.4-0.2 0.7-0.2 1.1-0.4 3.4 0.3 6.4 2.6 8.9 0.4 0.5 0.9 0.8 1.6 0.9 1 0.2 2.1 0.3 3.2 0s2 0.5 1.9 1.6c0 0.6-0.3 1.2-0.8 1.7-0.8 0.9-1.7 1.4-2.9 1.7-2.7 0.5-5.2-0.1-7.3-1.9-2.8-2.4-4.4-5.5-4.6-9.3-0.2-3.9 0.8-7.4 2.6-10.8 1.3-2.4 3.1-4.4 5.6-5.7 3.3-1.7 6.7-2.2 10.3-1.5 4 0.8 7.4 2.9 10 6.1 3.1 3.7 4.9 7.9 5.7 12.6 0.7 3.8 0.5 7.6-0.8 11.2-2 5.7-6 9.5-11.4 11.9-0.5 0.2-0.9 0.4-1.4 0.6l0.6 0.3c2.8 1.1 5.5 2.6 8 4.3 6.7 4.6 11.2 10.7 13.6 18.4 0.1 0.2 0.1 0.4 0.2 0.7 1.6-2 3-4.1 4.6-6 1.6-1.8 3.6-3.3 5.9-4.8zm13.1-46.4c0.1 0.1 0.1 0.2 0.1 0.2 0.3 0.1 0.6 0.2 0.9 0.3 2.8 1 4.9 2.7 6.4 5.2 0.5 1 1 1.9 1.5 2.9 1.1 2.5 1.4 5.2 1 7.9-0.7 4.1-3.4 6.8-7 8.6-3 1.6-8.5 0.5-10.4-3.5-0.1-0.3-0.3-0.6-0.4-0.8-0.7-1.2-0.7-2.6-0.5-3.9 0.1-0.5 0.3-0.9 0.9-1 0.5-0.1 0.9 0.2 1.1 0.6s0.5 0.9 0.6 1.4c0.5 1.5 1.5 2.5 2.8 3.3 1.5 0.9 3.1 1 4.7 0.2 2.1-1.1 3.2-2.8 3.8-5 0.1-0.5 0.2-1.1 0.1-1.7-0.9-4.2-3.6-6.8-7.6-8.1-1.1-0.3-2.2-0.3-3.3-0.1-3 0.6-5.5 2.3-7.4 4.7-3.1 3.9-4.4 8.4-4.2 13.3 0.1 2.5 0.5 4.9 1.1 7.3 0.9 3.6 2.8 6.5 5.7 8.8 2.5 2 5.2 2.2 8.1 1.2 2.6-0.9 5.2-2.1 7.6-3.4 5.8-3 10.4-7.2 13.5-12.9 0.7-1.3 1.4-2.5 2-3.8 2.3-5 4-10.2 5-15.6 0.8-4.3 1.4-8.7 1-13.1-0.1-1.5-0.4-3.1-0.8-4.7l-0.4 0.4c-2.4 3.3-5.6 5.5-9.4 6.9-2.5 0.9-5.2 1.4-7.8 1.9-2.4 0.5-4.7 0.9-7 1.7-0.7 0.3-1.2 0.6-1.7 0.8zm-64.1 74c-0.1-0.2-0.1-0.3-0.2-0.5-2.1-4-2.9-8.3-2.2-12.8 0.8-5.4 3.7-9.6 8.4-12.5 1.7-1 3.5-1.6 5.5-1.4 4 0.3 7.8 3.3 8.9 7.2 0.7 2.6 0.2 5-1.3 7.1-0.4 0.7-1.1 1.1-1.9 1.3-0.6 0.2-1.1 0-1.4-0.5-0.3-0.4-0.3-1 0-1.5 0.2-0.3 0.4-0.5 0.6-0.7 0.8-0.7 1-1.7 0.8-2.7-0.3-1.6-1.1-2.9-2.6-3.8-3.1-1.8-6.9-1.1-9 1.9-1.6 2.2-2.4 4.8-2.2 7.5 0.4 5.2 2.8 9.4 7 12.5 1.2 0.9 2.5 1.5 4 1.8 1 0.2 2 0.4 3.1 0.4 4.6 0.2 8.5-1.4 11.4-5 2.5-3.1 3.8-6.7 4-10.6 0.2-2.8-0.7-5.2-2.1-7.6-1.4-2.2-3.1-4.1-5.1-5.8-4.6-3.8-9.8-6.6-15.3-9.1-4.4-2-8.7-4-13.1-6-0.1 0-0.2-0.1-0.3-0.1l-0.1 0.1v0.8c0.1 1.8 0 3.6-0.6 5.3-0.8 2.5-2 4.8-4.1 6.5-2.6 2-5.5 2.6-8.6 1.1-0.1 0-0.2-0.1-0.5-0.2 1.5 4.1 3.1 8 5 11.7 3.1 6 6.8 11.2 11.9 15.6zm60.3-25.7h-0.8c-0.3 0-0.7 0.1-1 0.1-3.4 0.7-6.4 2.3-9.2 4.3-2.4 1.7-4.2 4-5.6 6.6-0.2 0.3-0.3 0.6-0.4 0.9-1 2.6-1.4 5.3-1.1 8.1 0.4 2.7 1.5 5 3.8 6.6 4.1 2.8 8.5-0.3 9.3-3.8 0.3-1.3 0.2-2.5-0.7-3.5-1.1-1.2-2.5-1.3-3.7-0.2-0.3 0.3-0.5 0.6-0.8 0.8-0.8 0.8-1.9 0.5-2.2-0.6-0.2-0.6-0.1-1.2 0.2-1.8 0.9-2.1 3.5-3.6 5.7-3.2 2.6 0.5 4.4 1.9 5.4 4.4 1 2.4 0.8 4.8-0.5 7.1-1.2 2.2-3 3.8-5.2 5-3.2 1.8-6.5 1.7-9.8 0.3-2.5-1.1-4.1-3-5.1-5.5-0.1-0.3-0.3-0.6-0.4-1-0.5 0.7-0.8 1.3-1.2 1.9l-1.2 1.8c-4 5.5-9.7 7.8-16.3 8.2-2.1 0.1-4.1-0.4-6.1-0.9-0.3-0.1-0.7-0.2-1-0.3 0.8 0.7 1.6 1.3 2.6 1.8 6.7 3.4 13.6 6.1 21 7.1 2.8 0.4 5.7 0.7 8.6 0.3 2.1-0.3 4.1-0.7 5.9-1.7 4.8-2.7 8.3-6.6 10.5-11.6 1.6-3.7 2.5-7.5 2.8-11.5 0.4-5.1-0.2-10.2-1.7-15.1-0.5-1.5-1.1-3.1-1.8-4.6zm2.1-52c0.5-0.2 0.7-0.3 1-0.4 2-0.9 4.1-1.4 6.3-1.8 1.7-0.3 3.4-0.5 5.1-0.9 2.7-0.6 5.2-1.6 7.4-3.3 2.1-1.6 3.3-3.7 3.6-6.3 0.2-1.3-0.2-2.3-1.2-3.1-0.4-0.3-0.9-0.7-1.3-0.9-2.8-1.1-5-0.3-6.2 2.2-0.2 0.4-0.2 0.9-0.3 1.4 0 0.7 0.3 1.2 1 1.4 0.6 0.2 1.2 0.2 1.7 0.2 0.4 0 0.8 0.1 1 0.5s0.2 0.8-0.1 1.2c-0.3 0.6-0.9 0.9-1.5 1-1.6 0.4-3.1-0.2-4.1-1.5-0.9-1.2-1.1-2.6-1.1-4 0.1-2.5 1.3-4.5 3.1-6.2 1.1-1 2.4-1.8 3.9-2.2-0.1-0.1-0.1-0.2-0.2-0.3-0.3-0.2-0.5-0.3-0.8-0.5-3.7-1.9-7.7-2.7-11.8-2.8-4-0.1-7.9 0.3-11.8 0.8-0.4 0.1-0.9 0.2-1.5 0.3 0.3 0.2 0.4 0.3 0.5 0.4 2.1 1.1 3.7 2.7 4.9 4.7 3.8 5.9 4.6 12.2 2.5 18.9 0.2 0.3 0.1 0.6-0.1 1.2zm-82.4 40.6c0.2-0.5 0.3-0.8 0.4-1.1 0.4-0.6 0.7-1.4 1.2-1.9 2.2-2.4 6.1-1.9 7.6 1 0.4 0.7 0.5 1.5 0.3 2.3-0.1 0.4-0.4 0.7-0.8 0.7-0.3 0-0.6-0.2-0.9-0.4-0.2-0.1-0.2-0.4-0.3-0.6-0.6-1.2-1.7-1.4-2.7-0.6-0.3 0.2-0.5 0.5-0.7 0.8-1.4 2-0.1 5.4 2.3 6 0.4 0.1 0.8 0.1 1.2 0.1 1.4-0.2 2.6-0.8 3.6-1.8 2.3-2.4 1.9-6.5 0.3-8.2-0.9-1-1.9-2-2.9-2.9-0.7-0.6-1.5-1.2-2.2-1.8-4.7-3.7-8.1-8.3-10.4-13.8-0.1-0.2-0.2-0.4-0.2-0.6 0.3 7.8 1.9 15.3 4.2 22.8z"/>
<path class="st74" d="m217.2 92.2c0.3-0.4 0.5-0.6 0.7-0.8 3.9-4.7 8.1-9.1 13-12.9 6.8-5.4 14.4-8.7 23-9.6 11.5-1.2 21.9 1.6 30.7 9.2 6.4 5.6 10.3 12.6 11.6 21.1 1.1 7.5 0.2 14.7-2.2 21.8-2 6.1-5 11.7-8.5 17-5.1 7.8-11.2 14.7-18.1 21-10.3 9.4-21.4 17.8-33.4 25-5.2 3.1-10.3 6.3-15.7 9.1-0.7 0.4-1.5 0.8-2.3 1.1-1.9 1-3.8 1.1-5.8 0.6-2.9-0.8-5.7-1.9-8.4-3.2-8.6-4.1-16.6-9.2-23.8-15.5-6.2-5.5-12.1-11.4-17.4-17.9-3.2-3.9-6-8.1-8.7-12.3-3.4-5.1-6.5-10.4-9.3-15.9-3.4-6.7-5.7-13.7-6.6-21.1-1.4-11.5 1.3-21.9 8.9-30.9 2.8-3.3 6.1-6 10-7.9 5.4-2.8 11.2-4.5 17.3-5.1 5.2-0.5 10.2 0.1 15.2 1.4 7.4 2 14 5.4 19.6 10.7 3.4 3.2 6.1 6.9 8.1 11.1 0.8 1.3 1.5 2.6 2.1 4zm44.6 13.3c-0.6-1.1-0.8-2.2-1-3.3-0.3-2 0.3-3.8 1.6-5.3 0.7-0.8 1.8-0.6 2.2 0.3 0.1 0.2 0.1 0.4 0.2 0.5 0.2 0.7 0.4 1.3 0.6 2 0.7 2 3 3.2 4.7 2.5 1.6-0.7 2.7-1.8 2.9-3.6 0.3-2.1-0.2-4.1-1.3-5.9-0.8-1.3-2-2.2-3.5-2.6-3.4-0.8-6.6-0.3-9.6 1.6-1.8 1.1-3.2 2.6-4.5 4.2-2.2 2.9-3.7 6.2-4.9 9.6-0.7 2.2-1.5 4.4-2.3 6.6-0.7 2.1-1.8 4-3.1 5.8-1.7 2.2-3.7 4-6.4 4.9-3.3 1.1-6.6 1.6-10.2 0.9-3.5-0.7-6.4-2.2-8.7-4.9-1-1.2-2-2.5-2.8-3.9-2.9-4.7-4-9.8-2.9-15.3 0.3-1.4 0.8-2.7 1.2-4.3 0 0-0.1 0-0.2-0.1-3.4-3-6.9-5.7-10.6-8.2-3.8-2.5-7.8-4.4-12.1-5.8-0.2-0.1-0.4-0.1-0.8-0.2l0.4 0.4c3.4 3.3 5.7 7.4 7.1 11.9 1.2 3.9 1.5 8 1.2 12.1-0.3 4.6-1.2 9-2.8 13.3-0.1 0.2-0.1 0.3-0.1 0.5h0.3c0.2 0 0.4 0 0.7-0.1 3.3-0.4 6.5-0.3 9.7 0.7 7.8 2.3 13.1 7.1 15.2 15.1 0 0.1 0.1 0.2 0.2 0.3 0.2-0.2 0.3-0.3 0.3-0.5 1.8-2.5 4.1-4.4 6.8-5.8 3.7-2 7.6-2.5 11.6-1.4 2.8 0.7 5.4 2 8 3.5s5.2 3 7.9 4.4c1.3 0.7 2.6 1.1 4 1.5 3.7 1.1 7.5-0.5 8.8-4.6 0-0.1 0.1-0.2 0.1-0.3 1.3-3.6 1.3-7.2 0.6-10.9-0.4-2.2-1.1-4.2-2.5-6-1.4-1.9-3.1-3.4-5.3-4.1-2.3-0.7-5.1 0.2-6.3 2.2-1.6 2.8-1.9 5.7-0.7 8.7 0.8 2 2.5 2.4 3.9 2.5 0.6 0 1.1-0.2 1.5-0.6 0.5-0.5 0.8-1 0.8-1.7 0-0.8 0.6-1.4 1.3-1.4s1.2 0.5 1.4 1.3c0.2 1.2 0 2.2-0.7 3.2-1.4 1.9-3.4 2.7-5.7 2.3-3-0.6-5.2-2.5-6.4-5.4-1.4-3.7-1.2-7.3 0.6-10.8 1.5-3 4-4.7 7.2-5.5 0.8-0.2 1.5-0.2 2.4-0.3zm-90.2 49.3c0.1 0 0.1-0.1 0.2-0.1-0.1-0.2-0.1-0.4-0.2-0.6-0.2-1.1-0.5-2.1-0.6-3.2-0.4-2.9 0.1-5.7 0.9-8.4 1-3.6 2.6-7 4.5-10.2 1.7-2.9 3.5-5.7 5.2-8.6 1.7-2.8 3.4-5.6 4.7-8.6 2.8-6.4 3.4-12.9 2-19.7-1.2-5.6-4.6-9.6-9.8-11.9-1.8-0.8-3.8-1.1-5.8-0.7-2.6 0.4-4.9 1.5-7.1 2.8-1.6 1-2.9 2.2-3.9 3.7-3 4.3-3.8 9.1-2.6 14.2 0.5 2.2 1.4 4.1 2.9 5.8 2.2 2.6 6.1 3.5 9 2.1 3-1.4 4.8-3.7 5.3-7 0.3-2.2-0.8-4.2-2.8-5.1-1.4-0.7-2.5-0.4-3.5 0.8-0.1 0.1-0.2 0.2-0.3 0.4-0.6 0.7-1.3 0.9-2 0.6s-1.1-1-1-1.8c0.1-0.7 0.2-1.4 0.5-2 2.3-4.2 8.7-5.8 12.4-1.5 1.8 2.1 2.7 4.5 2.8 7.2 0.1 5.9-3.9 11.4-9.6 13.2-0.3 0.1-0.7 0.2-1.2 0.4l1 1c2.5 2.6 3.4 5.5 2.3 9-0.5 1.6-1.6 2.8-2.9 4-1 0.9-2.2 1.4-3.5 1.6-2.2 0.2-4.4-1.2-5.1-3.3-0.3-0.9-0.4-1.7 0-2.6 0.2-0.5 0.5-0.8 1-0.8s0.7 0.3 1 0.9c0.2 0.6 0.5 1.2 0.8 1.7 1.2 1.4 2.8 1.6 4.2 0.1 1.7-1.8 1.6-5.2-0.1-7-1.9-2-6.5-2.8-9-0.1-1.1 1.2-1.9 2.5-2.5 3.9-2.1 5-1.4 9.9 1.1 14.4 3.1 5.5 7.1 10.4 11.2 15.1 0.2 0.1 0.4 0.2 0.5 0.3zm40.1 3.2c-0.6 0.1-0.9 0.2-1.3 0.3-3.5 0.7-6.7 0.1-9.5-2.3-2.2-1.8-3.3-4.1-3.6-6.9-0.1-0.5 0-1.1 0.1-1.7 0.3-1 1.2-1.3 2.1-0.9 0.6 0.3 1 0.8 1.3 1.3 0.2 0.5 0.5 1.1 0.7 1.6 1.2 3.5 5 4.6 7.4 4.1 1.8-0.4 3.5-1.2 4.8-2.6 2-2.2 3.1-4.8 3-7.7-0.1-5.3-2.5-9.5-7-12.4-1.6-1-3.4-1.8-5.2-2.3-2.3-0.6-4.5-0.9-6.9-0.5-3.5 0.6-6.5 2.2-9 4.7-5.1 5.1-6.7 11.4-5.8 18.4 0.3 2.8 1.4 5.5 2.6 8 3.3 7.1 8.2 12.8 14.3 17.6 0.1 0.1 0.2 0.1 0.4 0.2 0-0.5-0.1-0.9-0.1-1.3 0-2.6 0.8-5 2.3-7.1 1.4-2.1 3.1-4 4.9-5.8 1.4-1.3 2.6-2.7 3.9-4 0.2-0.1 0.4-0.4 0.6-0.7zm57.2-72.1c0-0.1 0.1-0.1 0.1-0.2-0.2-0.1-0.3-0.2-0.5-0.3-4-3.4-8.6-5.3-13.8-5.6-4.4-0.3-8.7 0.4-12.9 1.8-5 1.7-9.6 4.2-13.9 7.3-2.4 1.7-4.4 3.9-6.2 6.3-0.3 0.3-0.5 0.7-0.7 1.1-1.6 3.3-2.4 6.7-2 10.4 0.5 3.6 1.9 6.7 4.6 9.1 1.6 1.5 3.6 2.3 5.7 2.6 0.8 0.1 1.6 0.1 2.4-0.1 2.1-0.5 3.5-1.9 4.5-3.8 0.7-1.3 1.1-2.8 1.3-4.3 0.2-2.2 0.1-4.4-0.9-6.4-0.7-1.5-1.7-2.6-3.3-3.2-2.4-0.9-4.5 0-5.6 2.3-0.4 1-0.6 2-0.6 3.1 0 0.4 0 0.8-0.2 1.2-0.2 0.5-0.6 0.9-1.2 0.9-0.6 0.1-1.1-0.2-1.4-0.7-0.2-0.3-0.3-0.7-0.4-1.1-0.2-1.1-0.2-2.2 0-3.3 0.9-5 5-7.6 9.3-7.5 3.2 0.1 5.8 1.4 7.8 3.9 1.2 1.5 2.1 3.1 2.7 4.8 0.1 0.2 0.2 0.5 0.3 0.8 0.1-0.1 0.2-0.1 0.2-0.2 0.1-0.3 0.2-0.5 0.3-0.8 2.1-6.1 6-11 11.1-14.9 3.1-2.4 6.6-3.7 10.6-3.6 0.9 0.1 1.8 0.3 2.7 0.4zm-33.3 45.7v0.2c0.1 0 0.3 0.1 0.4 0.1 3.9 1.2 6.5 3.8 7.8 7.6 1.4 3.9 0.7 7.5-1.8 10.8-2.3 3.1-5.7 2.8-8.2 1.5-0.4-0.2-0.8-0.6-1.1-1-0.4-0.6-0.3-1.3 0.1-1.7 0.5-0.5 1.1-0.5 1.7-0.1 0.3 0.2 0.5 0.4 0.8 0.5s0.6 0.2 0.9 0.2c1.3-0.2 2.4-0.8 3.1-2 0.7-1.1 0.9-2.3 0.8-3.6-0.3-4-4.8-7.2-8.7-6.2-2.2 0.5-4 1.6-5.4 3.4-2.4 2.9-3.4 6.2-2.8 10 0.7 4.7 2.6 8.7 6.2 11.8 2.3 2 5 3.3 8 3.9 0.8 0.2 1.4 0 2.1-0.5 3.5-2.5 6.8-5.1 10.1-7.8 5.5-4.6 10.4-9.8 14.5-15.8 0.2-0.3 0.4-0.6 0.6-1-0.2 0-0.3 0-0.4 0.1-2.4 0.8-4.8 0.6-7.2-0.2-2.3-0.7-4.3-1.9-6.3-3.3-1.7-1.2-3.5-2.5-5.3-3.6-2.1-1.3-4.3-2.4-6.7-2.9-0.8-0.2-2-0.4-3.2-0.4zm-17.7 26.9c-0.2 0.2-0.3 0.3-0.5 0.4-1.8 1.6-3.7 3.2-5.5 4.8l-2.7 2.1c-2 1.7-3.6 3.6-4.7 6-0.2 0.4-0.3 0.8-0.3 1.2-0.3 3.1 1.3 6.2 4 7.7 1.8 0.9 3.5 0.9 5.1-0.3 1.7-1.2 2.6-3 2.2-5.1-0.2-1-0.6-2-1.6-2.5-1.1-0.6-2.3-0.2-2.8 0.9-0.1 0.2-0.2 0.5-0.3 0.7-0.4 0.7-1.2 0.6-1.6 0-0.2-0.4-0.3-0.8-0.3-1.2 0-2.1 1.7-4.2 3.7-4.6 2.3-0.4 4.1 0.4 5.5 2.1 1.7 2.1 2.4 4.6 1.9 7.3 0 0.3-0.1 0.5-0.2 1 3.4-2 6.6-3.8 9.9-5.7-6.2-3.1-9.6-8.3-11.8-14.8zm-56.5-43.5c-0.2-0.1-0.2-0.2-0.4-0.3-1.8-1.2-3.2-2.8-4.3-4.6-2-3.3-2.9-7.1-3-10.9-0.2-4.3 0.9-8.4 3.1-12.1 0.1-0.2 0.3-0.5 0.4-0.8-0.4 0.1-0.6 0.3-0.8 0.5-2.3 2.1-4.1 4.7-5.3 7.6-1.8 4.1-2.2 8.4-2 12.9 0.4 6.3 1.8 12.4 4.1 18.3 0.1 0.2 0.2 0.5 0.4 0.9 1-5 3.1-9.2 7.8-11.5zm114.6 1.9c1-4.6 1.4-9.3 0.8-14.2-2.2 2.7-4.5 4.8-7.9 5.5 3.2 2.4 5.5 5.3 7.1 8.7z"/>
<path class="st74" d="m103.3 252.6c-1 0-1.8 0.1-2.7 0-4.8-0.4-9.1-2.1-13.1-4.7-3.8-2.4-6.8-5.6-9.6-9.2-4.1-5.3-6.9-11.2-8.1-17.9-0.8-4.1-0.8-8.2-0.2-12.3 1-7.4 4-13.9 8.8-19.7 3.3-3.9 7.3-6.8 11.8-9.2 4.4-2.3 9.2-3.8 14-4.9 5.3-1.1 10.7-1.8 16.1-1.5 3.8 0.2 7.6 0.5 11.4 1 14.4 1.8 28.2 6.2 41.7 11.4 9.8 3.8 19.5 7.6 29.3 11.4l2.1 0.9c1.3 0.6 2 1.7 1.9 3.2 0 0.8-0.1 1.6-0.1 2.3-0.5 4.6-1.1 9.3-2 13.8-1.5 8.4-3.7 16.7-6.5 24.7-3.4 9.8-7.2 19.5-12 28.7-3.5 6.8-7.6 13.1-12.7 18.9-3 3.4-6.3 6.5-10 9.2-5.9 4.4-12.6 7-19.8 8.2-4 0.7-8.1 0.7-12.1 0-3.5-0.6-6.9-1.9-10-3.6-5.2-2.7-9.9-6-13.7-10.6-3.9-4.8-6.8-10-7.9-16.2-0.6-3.1-0.6-6.3-0.4-9.4 0.4-4.7 1.7-9.2 3.4-13.6 0.1 0 0.2-0.4 0.4-0.9zm48.3-57.9c0.2 0.3 0.4 0.5 0.5 0.8 1 1.6 1.6 3.3 1.6 5.1 0.2 5.9-3.8 10.5-9.6 11.2-2.5 0.3-4.6-0.5-6.3-2.4-2.1-2.5-2-5.7-0.6-8.2 0.4-0.7 1-1.3 1.8-1.6 0.7-0.3 1.4-0.4 2.1-0.1 0.9 0.4 1.1 1.2 0.5 2-0.1 0.2-0.3 0.3-0.4 0.5-1.8 2.5 0.1 5.2 2.1 5.8 0.3 0.1 0.6 0.1 0.8 0 0.9-0.2 1.8-0.5 2.6-1.1 2.3-2 3-4.5 2.3-7.4-0.7-3-3.2-4.8-6.3-4.6-2.1 0.2-3.9 0.9-5.5 2.1-1.8 1.3-3.2 2.9-4.2 4.8-1.6 2.8-2.6 5.9-3.1 9.1-0.4 2.6 0 5 1.1 7.3 0.6 1.3 1.4 2.4 2.2 3.5 2 2.4 4.4 4.2 7.1 5.6 3.4 1.7 6.9 3.2 10.4 4.8h0.3c-0.2-1.2-0.4-2.3-0.5-3.4-0.2-4.1 0.6-8.1 2.5-11.8 1.9-3.9 4.9-6.8 8.9-8.5 2.5-1.1 5.1-1.6 7.7-0.9 4.4 1.1 7.3 3.8 8.9 8.1 0.5 1.3 0.8 2.7 0.7 4-0.3 4.4-2.4 7.7-6.1 10-2.3 1.4-4.6 1-6.7-0.5-0.3-0.2-0.5-0.5-0.7-0.8-0.3-0.5-0.2-1 0.1-1.3s0.8-0.4 1.3-0.1c0.2 0.1 0.4 0.2 0.5 0.4 0.9 0.6 1.8 0.6 2.7 0.1 2-1.1 3.4-3.9 3-6.1-0.6-3.3-3.8-5.5-7.1-4.8-1.8 0.4-3.3 1.3-4.5 2.7-2.7 3.1-3.9 6.7-3.6 10.7 0.2 3.4 1.9 6 4.9 7.6 3.1 1.7 6.4 1.6 9.5-0.3 1.7-1 3.1-2.4 4.2-4.1 1.5-2.4 2.7-5 3.6-7.6 1.1-3.2 2.2-6.5 3.4-9.7 1.1-3 2.8-5.7 5.2-7.9 0.1-0.1 0.1-0.2 0.2-0.4-12.3-5.7-24.7-9.8-37.5-12.6zm-17.6 72.2c-0.4 0.3-0.7 0.6-1 0.9-1.7 1.4-3.7 2.5-5.9 2.9-3.7 0.6-6.9-1.2-8.2-4.7-0.1-0.2-0.2-0.5-0.2-0.7-0.1-0.5 0.3-1 0.7-1.2 0.4-0.1 0.9 0.1 1.1 0.6l0.3 0.9c0.4 0.9 1 1.5 1.9 1.8 1.1 0.4 2.3 0.5 3.5 0.3 2.4-0.5 4.4-1.8 5.8-3.9 3.1-4.7 2.7-11-1.4-15.3-1.1-1.2-2.4-2-4-2.3-3.1-0.5-6.1 0.1-8.7 1.9-4.1 2.8-7.1 6.4-8.7 11.1-0.7 2-1.2 4-1 6.1 0.1 2.2 0.6 4.3 1.2 6.4 1.3 4.9 3.3 9.4 6.4 13.5 3.1 4 6.9 7.1 11.8 8.7 4.2 1.4 8.6 1.7 13 1.3 0.4 0 0.8-0.1 1.3-0.2-0.6-0.8-1.2-1.4-1.6-2.2-1.1-1.9-1.6-3.9-1.5-6.1 0.1-2.1 1-3.8 2.7-5.1 2-1.5 5-1.1 6.6 0.8 0.5 0.6 0.8 1.4 0.7 2.2 0 0.4-0.2 0.8-0.7 0.9-0.4 0.1-0.7-0.1-1-0.4-0.2-0.3-0.4-0.6-0.7-0.9-0.5-0.6-1.2-0.9-2-0.7-1.1 0.2-1.9 0.8-2.2 1.9-0.6 2.3 0.7 5.2 2.9 6.4 1.1 0.6 2.3 1 3.5 0.5 0.9-0.3 1.8-0.7 2.6-1.3 1.7-1.3 2.5-3.1 2.1-5.3-0.4-2.3-1.5-4.2-3.4-5.7-1.2-1-2.6-1.8-3.9-2.6-2.3-1.4-4.7-2.8-6.9-4.3-2.3-1.5-4-3.4-4.9-6.1-0.1 0.1-0.1 0-0.2-0.1zm2.3-75.3c-0.2 0-0.3-0.1-0.4-0.1-4.5-0.7-9.1-1.1-13.6-1.2-5.7-0.2-11.4 0.2-17 1.4-6.2 1.4-11.8 4-16.5 8.4-3.3 3.1-5.6 6.8-6.6 11.2-1.5 6.5-1 12.8 1.4 19 2 5.1 5.2 9.1 10 11.9 0.5 0.3 0.9 0.5 1.4 0.7 3 1.3 6.2 1.9 9.4 2.7 1.5 0.4 3.5-0.6 4.1-2.2 0.7-1.7 1-3.4 0.6-5.2-0.6-3.6-2.7-6.3-5.7-8.2-1.3-0.9-2.7-1.2-4.3-1.1-2 0.2-3.5 1-4.4 2.9-0.5 1.1-0.2 2.5 0.6 3.3 0.9 0.9 2.2 1 3.4 0.4 0.2-0.1 0.4-0.2 0.6-0.4 0.8-0.5 1.4-0.2 1.7 0.6 0.3 0.9 0 1.9-0.8 2.5-1.1 0.8-2.3 1.2-3.6 0.8-2.8-0.8-4.4-2.7-5-5.4-0.9-3.8 0.9-8.8 5.1-10.8 0.3-0.2 0.7-0.3 1.1-0.5l-0.4-0.4c-3.8-3.9-5.2-8.7-4.5-14 0.5-4.2 2.7-7.6 5.9-10.3 4.9-4.1 12.5-5.4 18.8 0.1 2.4 2.1 4.1 4.6 5.4 7.5 0.7 1.6 1.2 3.3 1.9 4.9 0.1-0.2 0.1-0.4 0.2-0.7 0.3-1.8 0.7-3.6 1.4-5.3 2-5.2 4.9-9.6 9.9-12.3-0.2 0-0.2-0.1-0.1-0.2zm21 95.1l0.6-0.6c1.1-1.5 2.3-3.1 3.3-4.7 1.2-1.8 2.1-3.8 2.7-5.9 1.3-4.5 1.5-9 0.7-13.6-0.6-3.4-1.8-6.5-3.9-9.3-2.6-3.4-6-5.6-10.1-6.5-3.4-0.7-6.4 0.6-8.2 3.6-0.3 0.5-0.5 0.9-0.7 1.4-1.3 2.9-1.3 5.9-0.1 8.8 0.6 1.5 1.6 2.7 3.1 3.5 1.4 0.8 3 1 4.5 0.2 1.9-1 3.4-4 3.1-6.1-0.2-1.3-1.2-2.1-2.5-2-0.2 0-0.4 0.1-0.6 0.1-0.8 0-1.3-0.7-0.9-1.4 0.2-0.4 0.5-0.8 0.9-1 0.9-0.6 1.9-0.6 2.9-0.3 2 0.6 3.1 2 3.5 3.9 0.9 3.7-0.2 6.8-3.1 9.2-3.2 2.6-7.8 2.8-11.4 0.5-0.2-0.2-0.5-0.3-0.7-0.4 0 0.1-0.1 0.1-0.1 0.2 0.7 0.8 1.3 1.6 2 2.3 1.6 1.7 3.5 3 5.5 4.2 1.2 0.7 2.4 1.4 3.6 2.2 2 1.4 3.7 3.1 4.8 5.3 0.9 2.1 1.4 4.1 1.1 6.4zm-43.8-45.6c0.1-0.2 0.3-0.4 0.4-0.6 1.9-3 3.4-6.1 4.4-9.5 0.6-1.9 0.9-3.8 1-5.8 0.2-3.8 0-7.6-0.6-11.4-0.5-3-1.4-5.9-2.9-8.6-1.4-2.3-3.1-4.3-5.4-5.7-2.4-1.5-4.9-1.6-7.4-0.2-0.9 0.5-1.8 1.2-2.5 1.9-2.8 3.1-4.2 6.8-3.6 11 0.3 2.1 1.1 3.9 2.6 5.4 1.1 1.1 2.5 1.7 4.1 1.5 3.8-0.4 6.4-4.9 4.9-8.5-0.6-1.4-1.3-1.6-2.6-0.9h-0.1c-1 0.5-1.8 0-1.8-1.1 0-0.8 0.4-1.4 0.9-2 1.8-1.9 5-2.4 7.2 0.2 1.4 1.7 2.1 3.7 1.9 5.9-0.4 4.8-2.8 8.4-7.1 10.7-0.1 0.1-0.3 0.2-0.4 0.3 2.8 2 4.6 4.6 5.8 7.8 1.1 3.1 1.6 6.2 1.2 9.6zm23.8 8.2c1.9-3.8 4.7-6.6 8.7-8.1 4.1-1.4 8-0.8 11.9 0.9-0.3-0.3-0.6-0.6-1-0.8-3-2.1-6.2-3.7-9.6-5.1-3.7-1.5-7.3-3.1-10.7-5-1.5-0.8-3-1.7-4.5-2.8-2.6-1.9-4.8-4.2-6.1-7.2 0-0.1-0.1-0.2-0.3-0.4-0.4 7.1-1.9 13.8-5.3 20 7.8-1.2 13.4 1.4 16.9 8.5zm28-4.9v0.2c0.1 0.2 0.3 0.4 0.4 0.6 1.8 3 3.2 6.1 4.2 9.5 1.2 4.4 1.7 9 1.6 13.5v1c0.2-0.1 0.2-0.1 0.3-0.2s0.2-0.3 0.3-0.4c7.2-11.3 12.8-23.4 16.7-36.3 1.4-4.7 2.8-9.3 3.6-14.2v-0.9c-0.3 0.4-0.4 0.5-0.5 0.7-1.2 1.7-2 3.7-2.8 5.6-1.2 2.8-2.4 5.7-3.8 8.5-2.7 5.5-7 9.2-12.6 11.4-1.7 0.7-3.4 1-5.2 0.9-0.8 0.2-1.5 0.1-2.2 0.1z"/>
<path class="st74" d="m206.8 280.5c0.3-6.7 0.4-13.6 0.8-20.4 0.4-6.5 0.6-13.1 0.7-19.6 0.1-5.3 0.5-10.5 1-15.7 0.6-6.2 1.5-12.4 2.5-18.6 0.1-0.6 0.2-1.2 0.4-1.8 0.1-0.4 0.3-0.8 0.6-1.2 0.8-1.1 2.3-0.9 2.8 0.4 0.2 0.4 0.2 0.9 0.2 1.4-0.1 3.8-0.2 7.7-0.2 11.5 0 5.8 0 11.6 0.1 17.4 0.1 4 0.2 8.1 0.5 12.1 0.3 4.4 0.6 8.7 1.1 13.1 0.5 4.7 1.2 9.4 1.9 14.1 1.1 6.8 2.4 13.6 4.2 20.3 4.4 16.6 10.2 32.7 17.5 48.3 2.1 4.5 4.1 9 5.6 13.7 0.3 1.1 0.6 2.2 0.8 3.3 0.3 1.9-0.3 3.4-2 4.4-2.1 1.3-4.3 2-6.7 2.6-3.6 0.8-7.2 1.2-10.9 1.5-1.4 0.1-2.9 0.1-4.3-0.3-1.9-0.5-3.5-1.5-4.5-3.1-0.7-1.2-1.4-2.4-2-3.7-1.9-4.2-3-8.6-3.7-13-1-5.8-1.9-11.6-2.7-17.4-0.7-5.1-1.3-10.2-1.8-15.3-0.5-5-0.9-10-1.2-15.1-0.3-6.4-0.5-12.6-0.7-18.9z"/>
</g>
<ellipse cx="46.378" cy="254.21" rx="42.88" ry="38.344" fill="none" stroke="url(#a)" stroke-width="2.9886"/>
<path transform="matrix(.83417 0 0 .78036 .092368 213.55)" d="m102.08 33.929-20-10.694 19.262-11.973z" fill="#219B5B"/>
</g>
</svg>
