<?xml version="1.0" encoding="utf-8"?>
<!-- Generator: Adobe Illustrator 21.1.0, SVG Export Plug-In . SVG Version: 6.00 Build 0)  -->
<svg version="1.1" id="Calque_1" xmlns="http://www.w3.org/2000/svg" xmlns:xlink="http://www.w3.org/1999/xlink" x="0px" y="0px"
	 viewBox="0 0 432 432" style="enable-background:new 0 0 432 432;" xml:space="preserve">
<style type="text/css">
	.st0{fill:#3B4F20;}
	.st1{fill:#8CB225;}
	.st2{fill:#020203;}
	.st3{fill:#4A5C2D;}
	.st4{fill:#FFFFFF;}
	.st5{fill:#E2CF1B;}
	.st6{fill:#718A2A;}
	.st7{fill:#DFBB20;}
	.st8{fill:#EAC839;}
	.st9{fill:#1B1B1B;}
	.st10{fill:#8EC045;}
	.st11{fill:#066938;}
	.st12{fill:#E5AD30;}
	.st13{fill:#4E4D4D;}
	.st14{fill:#8BB226;}
	.st15{fill:#CD1A25;}
	.st16{fill:#4B6426;}
	.st17{fill:#7D9E3C;}
	.st18{fill:#3C4F20;}
	.st19{fill:#384A1F;}
	.st20{fill:#E7E6E6;}
	.st21{fill:#D4A624;}
	.st22{fill:#F7F0E3;}
	.st23{fill:#D2A206;}
	.st24{fill:#CE9835;}
	.st25{fill:#E5D9C2;}
	.st26{fill:#E2AE42;}
	.st27{fill:#EEDBBE;}
	.st28{fill:#F9EA31;}
	.st29{fill:#EB6518;}
	.st30{fill:#0A7132;}
	.st31{fill:#FFE109;}
	.st32{fill:#D76013;}
	.st33{fill:#BBA763;}
	.st34{fill:#7FA22A;}
	.st35{fill:#5B321B;}
	.st36{fill:#4A2615;}
	.st37{fill:#D6AD08;}
	.st38{fill:#F7BBBD;}
	.st39{fill:#D76324;}
	.st40{fill:#607829;}
	.st41{fill:#715C3B;}
	.st42{fill:#644F34;}
	.st43{fill:#89704C;}
	.st44{fill:#B2A38F;}
	.st45{fill:#A59076;}
	.st46{fill:#FFDE0D;}
	.st47{fill:#34AA4A;}
	.st48{fill:#75388D;}
	.st49{fill:#BBBBBB;}
	.st50{fill:#A9A9AA;}
	.st51{fill:#06993B;}
	.st52{fill:#CDCCCC;}
	.st53{fill:#4D2563;}
	.st54{fill:#E3B320;}
	.st55{fill:#0B9541;}
	.st56{fill:#264D23;}
	.st57{fill:#FDC834;}
	.st58{fill:#8C633A;}
	.st59{fill:#B5A059;}
	.st60{fill:#F2F2F2;}
	.st61{fill:#808181;}
	.st62{fill:#62A930;}
	.st63{fill:#A1C746;}
	.st64{fill:#85B04B;}
	.st65{fill:#5E802C;}
	.st66{fill:#BFD783;}
	.st67{fill:#EFC9AF;}
	.st68{fill:#343434;}
	.st69{fill:#EB5B28;}
	.st70{fill:#D1A98D;}
	.st71{fill:#E0A9B8;}
	.st72{fill:#754D24;}
	.st73{fill:#B2D17B;}
	.st74{fill:#62B338;}
	.st75{fill:#274E22;}
	.st76{fill:#CCDC81;}
	.st77{fill-rule:evenodd;clip-rule:evenodd;fill:#85B04B;}
	.st78{fill:#509733;}
	.st79{fill:#203F1E;}
	.st80{fill:#20963A;}
	.st81{fill:#62246B;}
	.st82{fill:#FDCA02;}
	.st83{fill:#B4CD50;}
	.st84{fill:#5C792A;}
	.st85{fill:#C29347;}
	.st86{fill:#4D5C22;}
	.st87{fill:none;}
	.st88{fill:#E19C11;}
	.st89{fill:#E5C997;}
	.st90{fill:#009245;}
	.st91{fill:#48AE4D;}
	.st92{fill:#049348;}
	.st93{fill:#04683B;}
	.st94{fill:#F8AE4C;}
	.st95{fill:#C57B39;}
	.st96{fill:#231F20;}
	.st97{fill:#BC2333;}
	.st98{fill:#EF7A7B;}
	.st99{fill:#46AE51;}
	.st100{fill:#07924B;}
	.st101{fill-rule:evenodd;clip-rule:evenodd;fill:#231F20;}
	.st102{fill:#279A9A;}
	.st103{fill:#8E3189;}
	.st104{fill:#9F6E8E;}
	.st105{fill:#3C3C3B;}
	.st106{fill:#00A69C;}
	.st107{fill:#D5DB41;}
	.st108{fill:#E04542;}
	.st109{fill:#9F1F3B;}
	.st110{fill:#EB5C35;}
	.st111{fill:#F9B233;}
	.st112{fill:#008D36;}
	.st113{fill:#F39200;}
	.st114{fill:#F2D8BD;}
	.st115{fill:#3AAA35;}
	.st116{fill:#95C11F;}
	.st117{fill:#7F5FA5;}
	.st118{fill:#5FA55F;}
	.st119{fill:#A55F8F;}
	.st120{fill:#229538;}
	.st121{fill:#622369;}
	.st122{fill:#FCC804;}
	.st123{fill:#628FB8;}
	.st124{fill:#B2B2B2;}
	.st125{fill:#63B8A4;}
	.st126{fill:#FDCE6C;}
	.st127{fill:#C8DADC;}
	.st128{fill:#ED6B6E;}
	.st129{fill:#EC6365;}
	.st130{fill:#8FC14D;}
	.st131{fill:#FECE6C;}
	.st132{fill:#037132;}
	.st133{fill:#B5CD25;}
	.st134{fill:#137E35;}
	.st135{fill:#7DBA28;}
	.st136{fill:#50AE32;}
	.st137{fill:#04612D;}
	.st138{fill:#F0828B;}
	.st139{fill:#63348B;}
	.st140{fill:#CF75AC;}
	.st141{fill:#895B7E;}
	.st142{fill:#AD94C4;}
	.st143{fill:#C581AB;}
	.st144{fill:#D1BAB0;}
	.st145{fill:#EF7B7C;}
	.st146{fill:#F7C0C2;}
	.st147{fill:#4F1C31;}
	.st148{fill:#9C3760;}
	.st149{fill:#A8768F;}
	.st150{fill:#A04170;}
	.st151{fill:#6CB863;}
</style>
<g>
	<g>
		<path class="st56" d="M141.9,341.8c-0.7,0.3-1.4,0.6-2.1,0.9c-4,1.7-8.1,2.3-12.4,1.6c-5.3-0.8-10-3.1-14.2-6.3
			c-3.5-2.7-6-6.1-7.8-10.1c-2.2-4.8-3.1-9.8-2.9-15c0.1-3.6,0.4-7.2,0.5-10.8c0.1-2.8,0.2-5.7,0-8.5c-0.4-4.1-1.8-7.8-4.6-10.9
			c-0.7-0.8-1.5-1.6-2.2-2.4c-1.7-2-3.5-3.8-5-5.9c-3.6-5.1-4.7-10.8-3.9-16.8c0.4-3.1,1.4-5.9,2.4-8.8c0.5-1.3,1-2.7,1.5-4
			c0.3-0.7,0.2-1.2-0.2-1.8c-1.7-2.3-3.4-4.5-4.9-6.9c-4.2-6.3-5.9-13.3-5.6-20.8c0.1-2.8,0.9-5.6,1.7-8.3c0.1-0.2,0.1-0.4,0.2-0.6
			c-0.1-0.1-0.1-0.2-0.2-0.3c-0.1,0.1-0.2,0.3-0.3,0.4c-2.7,2.3-5.3,4.6-7.7,7.2c-2.1,2.4-3.8,5.2-5,8.2c-0.9,2.1-1.2,4.4-1.3,6.7
			c0,0.3-0.1,0.7-0.1,1c-0.2,0.6-0.7,1-1.3,1c-0.6,0-1.1-0.4-1.2-1.1c-0.1-0.3-0.1-0.6-0.1-0.9c-0.2-4,0.7-7.8,2.5-11.4
			c1.5-3.2,3.6-6,6-8.5c2.4-2.5,5.1-4.8,7.7-7c1.1-0.9,2.3-1.9,3.4-2.8c0.3-0.3,0.7-0.7,0.8-1.1c1.8-4.5,3.5-9.1,4.5-13.9
			c0.5-2.6,0.8-5.2,0.8-7.8c-0.1-2.8-0.8-5.4-1.9-7.9c-1.5-3.4-3.3-6.5-5.5-9.5c-1.4-1.9-2.7-3.8-4.1-5.8c-2.1-3.1-3.1-6.4-2.8-10.2
			c0.3-2.9,1.4-5.5,2.9-8c2.3-3.6,5.3-6.4,8.9-8.7c2.6-1.6,5.4-3,8.3-4.1c3.9-1.4,7.7-2.8,11.6-4.2c4.1-1.4,8.2-3,12-5
			c3.1-1.6,6-3.6,8.6-5.9c2.9-2.5,5-5.6,6.8-9c-0.2,0.1-0.5,0.2-0.7,0.3c-2.3,1.1-4.6,2.3-7,3.3c-2.8,1.2-5.8,2-8.9,1.9
			c-2.5,0-4.9-0.6-7.1-1.7c-0.9-0.5-1.7-1.1-2.4-1.9c-1.5-1.9-1.7-4.2-0.5-6.3c1-1.7,2.4-2.8,4.1-3.6c2.5-1.2,5.1-1.5,7.8-1.3
			c0.2,0,0.5,0,0.7,0c0.1,0,0.1,0,0.3-0.1c-0.2-0.3-0.4-0.5-0.7-0.7c-1.3-1.4-2.4-2.8-3.3-4.4c-0.6-1.1-1-2.2-1.1-3.5
			c-0.2-2.3,0.7-4,2.6-5.2c1.6-1,3.4-1.2,5.3-1c2.2,0.3,4.2,1.2,5.9,2.7c2.5,2.1,4.4,4.6,6,7.5c0.3,0.5,0.5,0.9,0.8,1.4
			c0,0,0.1,0,0.2,0.1c0-1.2,0-2.4-0.1-3.6c-0.2-2.4-0.3-4.8,0-7.2c0.3-2.5,1-4.9,2.6-7c0.7-0.9,1.5-1.6,2.4-2.2
			c2-1.1,3.9-0.8,5.5,0.9c1,1.2,1.7,2.6,2.1,4c0.6,2.3,0.7,4.7,0.6,7.1c0,0.3,0,0.5,0,1c0.3-0.2,0.5-0.4,0.7-0.6
			c2.4-2.1,5.2-3.5,8.3-4.3c1.7-0.4,3.3-0.5,5-0.1c4,1,6.3,5.2,4.6,9.4c-0.8,2.2-2.3,3.8-4.2,5c-2.3,1.5-4.8,2.7-7.4,3.6
			c-3.2,1.1-6.4,2-9.7,2.5c-0.3,0-0.6,0.1-0.9,0.3c0.7,0.2,1.4,0.4,2.1,0.7c3.6,1.3,6.8,3.1,9.6,5.6c1.3,1.2,2.5,2.6,3.3,4.2
			c0.5,1.1,0.8,2.3,0.8,3.6c-0.2,2.3-1.4,3.8-3.5,4.6c-1.5,0.6-3.1,0.6-4.7,0.2c-1.4-0.3-2.7-0.7-3.9-1.4c-0.2-0.1-0.5-0.2-0.8-0.4
			c0.1,0.4,0.1,0.6,0.2,0.9c0.4,1.2,0.7,2.5,0.6,3.8c-0.3,4.2-3.6,7-7.8,6.6c-2.5-0.2-4.3-1.6-5.6-3.7c-1-1.7-1.4-3.5-1.6-5.4
			c-0.3-2.4-0.1-4.8,0.2-7.2c0-0.2,0-0.5,0.1-0.9c-0.3,0.2-0.4,0.3-0.5,0.5c-2.1,2.5-4.6,4.5-7.3,6.2c-3.9,2.5-8.1,4.5-12.5,6.2
			c-3.8,1.4-7.7,2.8-11.5,4.3c-3.5,1.3-7,2.8-10.3,4.6c-3.9,2.1-7.2,4.9-9.7,8.7c-1.5,2.3-2.5,4.7-2.7,7.4c-0.2,2.2,0.2,4.3,1.2,6.2
			c0.9,1.7,1.9,3.3,2.9,4.9c1.6,2.5,3.4,4.9,4.9,7.5c2.3,3.9,4,8,4.7,12.5c0.7,4.3,0.3,8.5-1.1,12.6c-0.5,1.4-1,2.9-1.6,4.3
			c0,0.1-0.1,0.2-0.2,0.6c0.3-0.3,0.4-0.4,0.6-0.5c2.5-2.8,4.2-6,5.6-9.5c1.9-4.9,2.6-10.1,3-15.3c0.4-4.6,1-9.2,1.5-13.7
			c0.1-1.1,0.4-2.1,0.6-3.1c0.2-1.2,0.4-2.3,0.6-3.5c0.4-3.5,1.7-6.7,3.8-9.6c6.6-9.1,15.6-13.2,26.7-12.6c4.9,0.2,9.4,2,13.5,4.8
			c2,1.3,3.9,2.7,6,4c2.5,1.6,5.1,2.8,8.1,3.3c4.7,0.8,9.3,0.7,13.8-1c0.8-0.3,1.6-0.7,2.5-1.2c-1.4-0.1-2.5-0.1-3.6-0.3
			c-1.6-0.2-2.9-0.9-3.9-2.2c-1.2-1.5-1.3-3.2-0.2-4.8c0.9-1.4,2.3-2.3,3.8-2.9c0.4-0.1,0.7-0.2,1.2-0.4c-0.4-0.4-0.6-0.7-0.9-0.9
			c-0.9-0.9-1.7-1.9-2.2-3.2c-0.6-1.6-0.6-3.2,0.6-4.6c1.2-1.5,2.8-2,4.7-1.5c1,0.2,1.9,0.7,2.8,1.3c1.8,1.1,3.3,2.6,4.5,4.3
			c0.1,0.2,0.3,0.4,0.4,0.6c0,0,0.1,0,0.2,0.1c0-0.4,0.1-0.7,0.1-1c0.3-2.3,0.8-4.4,2-6.4c0.6-1,1.3-1.9,2.2-2.6
			c0.5-0.4,1-0.7,1.5-0.9c1.6-0.6,3,0,3.8,1.4c0.4,0.7,0.6,1.5,0.8,2.3c0.3,1.4,0.2,2.9-0.1,4.4c-0.1,0.4-0.1,0.8-0.2,1.2
			c0.5-0.2,0.9-0.3,1.2-0.4c2-0.6,3.9-0.6,5.8,0.4c2.5,1.4,3.2,4.5,1.6,6.8c-0.7,0.9-1.6,1.6-2.5,2.2c-3.1,1.8-6.4,2.5-9.9,2.6
			c-0.4,0-0.7,0-1.1,0c0,0,0,0-0.1,0.1c0.1,0.2,0.3,0.4,0.4,0.6c1.1,1.4,2.3,2.8,3.3,4.2c1,1.4,1.8,2.9,2.2,4.6
			c0.6,2.1,0.4,4.1-0.6,6c-0.4,0.7-0.9,1.3-1.5,1.8c-1.7,1.3-3.9,1.1-5.4-0.6c-0.9-1-1.5-2.3-1.9-3.6c-0.1-0.3-0.2-0.7-0.4-1.1
			c-0.5,0.6-0.9,1.1-1.4,1.5c-0.7,0.6-1.4,1.3-2.1,1.7c-1.9,1.1-3.7,0.3-4.5-1.7c-0.5-1.2-0.5-2.4-0.3-3.6c0-0.3,0.1-0.5,0.1-0.9
			c-0.3,0.1-0.5,0.2-0.8,0.3c-4.3,2.1-8.8,2.6-13.5,2.2c-5.9-0.6-11.3-2.6-16.5-5.2c-2.2-1.1-4.4-2.2-6.6-3.2
			c-2.3-1.1-4.7-1.8-7.2-2.2c-2.8-0.5-5.5-0.9-8.3-0.9c-1.9,0-3.8,0.2-5.7,0.9c-3.5,1.3-5.8,3.7-7.5,6.9c-1.6,3-2.4,6.2-3,9.5
			c-0.8,4.7-1.4,9.4-2.1,14.1c-0.6,4-1,8-1.7,12c-1.5,9-5.3,16.9-11.9,23.3c-1.8,1.7-3.7,3.3-5.5,5c-0.3,0.3-0.7,0.7-0.8,1.1
			c-2.3,6.1-3.8,12.3-3.3,18.9c0.3,4.6,1.6,9,4,13c1.2,1.9,2.5,3.7,3.8,5.6c0.1,0.2,0.3,0.3,0.5,0.5c1.4-3.3,2.7-6.6,3.3-10.3
			c-0.4,0.2-0.6,0.3-0.9,0.4c-0.6,0.2-1.1,0.5-1.7,0.6c-3.1,0.7-5.6-1.9-4.8-4.9c0.3-1.3,1.1-2.4,2.1-3.3c0.3-0.2,0.5-0.5,0.9-0.8
			c-0.3-0.2-0.6-0.4-0.8-0.6c-0.7-0.7-1.6-1.2-2.2-2c-1.5-1.9-0.8-4.1,1.6-4.9c2.1-0.7,4.1-0.2,6,0.8c0.6,0.3,1.1,0.7,1.8,1.1
			c-0.1-0.3-0.1-0.6-0.1-0.8c-0.2-1.5-0.5-2.9-0.6-4.4c-0.1-1.3,0.2-2.5,0.6-3.7c0.3-1,0.9-1.8,1.8-2.3c1.5-0.9,3-0.6,3.9,0.9
			c0.5,0.8,0.7,1.6,1,2.5c0.2,0.8,0.3,1.6,0.5,2.5c0.3-0.2,0.5-0.4,0.7-0.5c1-0.9,2.2-1.6,3.5-2c1.1-0.3,2.1-0.4,3.2-0.1
			c1.7,0.5,2.6,1.9,2.3,3.7c-0.3,1.9-1.1,3.5-2.5,4.8c-1.3,1.2-2.8,2.2-4.4,3.1c-0.3,0.2-0.6,0.3-1,0.5c0,0.1,0,0.2,0,0.2
			c0.4,0.1,0.9,0.2,1.3,0.3c1.7,0.5,3.2,1.3,4.4,2.6c0.3,0.3,0.5,0.7,0.7,1.1c0.9,1.7,0.2,3.6-1.6,4.3c-0.9,0.3-1.8,0.3-2.7,0.3
			c-0.4,0-0.7,0-1.2-0.1c0.2,0.4,0.3,0.7,0.4,1.1c0.5,1.4,0.8,2.9,0.3,4.4c-0.6,1.8-2.1,2.7-3.9,2.3c-1.6-0.3-2.8-1.1-3.8-2.3
			c-0.2-0.2-0.4-0.5-0.6-0.7c-0.6,1.8-1.1,3.5-1.8,5.2c-0.7,1.7-1.6,3.3-2.4,5c0.2,0.3,0.4,0.5,0.7,0.8c2.5,2.6,5,5.2,7.4,7.8
			c3.4,3.6,6.6,7.3,9.3,11.5c4.3,6.8,7,14.3,8.1,22.3c0.8,5.7,1.5,11.5,2.3,17.3c0.4,3.2,1.1,6.3,2,9.3c1.8,6.5,5,12.3,9.3,17.6
			c2,2.5,4.2,4.9,6.3,7.3c0.2,0.2,0.4,0.4,0.6,0.6c0.3-0.3,0.6-0.5,0.9-0.8c2.4-2.7,3.4-5.9,2.7-9.5c-0.5-2.6-1.9-4.6-4.4-5.9
			c-0.5-0.3-1.1-0.4-1.6-0.6c-1.3-0.5-1.7-1.3-1.3-2.3c0.5-1.2,1.8-1.8,2.9-1.2c0.8,0.4,1.7,0.9,2.4,1.6c3.2,2.9,5.2,6.5,5.1,11
			c-0.1,3.5-1.5,6.5-3.9,9c-0.2,0.2-0.5,0.5-0.8,0.8c0.9,0.9,1.8,1.8,2.8,2.6c2.3,1.9,4.6,3.9,7,5.7c3.2,2.4,6.1,5.1,8.9,7.9
			c0.7,0.7,1.4,1.4,2.2,2c0.2,0.2,0.4,0.4,0.6,0.6c0.6,0.8,0.6,1.6,0.1,2.3c-0.5,0.7-1.5,0.9-2.3,0.5c-0.5-0.2-0.9-0.6-1.3-0.9
			c-2.8-2.6-5.5-5.1-8.3-7.7c-3.7-3.4-7.3-6.9-10.9-10.3C142.7,342.6,142.3,342.2,141.9,341.8z M139.5,339.7
			c-0.3-0.3-0.6-0.6-0.8-0.8c-3.7-3.4-6.9-7.2-9.9-11.3c-5.3-7.5-8.5-15.8-9.8-24.9c-0.9-6.1-1.6-12.2-2.5-18.2
			c-0.6-4.1-1.7-8.1-3.3-11.9c-1.7-4-4.1-7.6-6.9-10.9c-3.8-4.7-7.7-9.2-11.6-13.8c-0.1-0.1-0.2-0.2-0.4-0.3
			c-0.2,0.4-0.3,0.7-0.5,1.1c-0.2,0.3-0.3,0.7-0.4,1c-1.8,4-2.7,8.2-2.6,12.7c0.1,5,1.7,9.4,5.1,13.1c0.9,1,1.9,2,2.8,3.1
			c1.7,1.9,3.4,3.8,5,5.8c2.9,3.6,4.5,7.7,4.9,12.3c0.2,2.5,0.3,5,0.3,7.5c0,4.4,0.2,8.7,1.2,13c1.2,5.4,3.4,10.2,7.1,14.3
			c4.3,4.7,9.5,7.9,15.8,9C135.2,340.6,137.3,340.4,139.5,339.7z"/>
		<path class="st56" d="M254.9,128.5c-0.7,0.4-1.2,0.7-1.8,1c-1.2,0.6-2.5,1-3.8,0.9c-3.3-0.2-5.4-2.5-5.1-5.8
			c0.2-2.5,1.2-4.7,2.9-6.7c1.4-1.6,3.2-2.9,5-4c0.3-0.2,0.6-0.3,0.9-0.5c0-0.1,0-0.1,0-0.2c-0.4,0-0.8-0.1-1.2-0.1
			c-3.8-0.4-7.2-1.5-10.2-3.8c-1.1-0.8-2.1-1.8-2.9-2.9c-2.6-3.5-1-7.6,3.3-8.6c2.1-0.5,4.2-0.2,6.2,0.4c0.3,0.1,0.7,0.2,1,0.3
			c0,0,0.1,0,0.2-0.1c-0.3-1-0.6-2-1-2.9c-0.7-2.2-0.7-4.5-0.1-6.7c0.3-1.3,1-2.4,1.9-3.3c1.6-1.5,3.4-1.9,5.5-1.1
			c1.4,0.5,2.5,1.4,3.5,2.5c1.9,2.2,3.2,4.7,4.1,7.5c1.2,3.7,1.6,7.6,1.6,11.5c0,0.2,0,0.3,0,0.7c0.3-0.4,0.5-0.6,0.6-0.9
			c1-1.4,2-2.8,3.1-4.1c1.5-1.8,3.4-3.1,5.7-3.9c0.8-0.3,1.7-0.4,2.6-0.4c2.2,0.1,3.9,1.8,4,4c0.1,1.4-0.1,2.7-0.5,3.9
			c-0.4,1.1-0.9,2.1-1.4,3.2c-0.2,0.4-0.4,0.7-0.6,1.2c0.8,0,1.5-0.1,2.2-0.1c2.6,0,5,0.6,7.1,2.2c3.7,2.6,4.1,6.8,1,10.1
			c-1.6,1.7-3.6,2.5-5.8,2.8c-4.5,0.7-8.6-0.5-12.3-2.9c-0.8-0.5-1.6-0.9-2.3-1.5c0.1,0.2,0.1,0.5,0.2,0.7c0.9,2.2,1.8,4.3,3.1,6.3
			c2.6,3.7,6,5.8,10.6,5.8c2.5,0,4.8-0.8,6.9-1.9c2.3-1.2,4.4-2.6,6.3-4.4c2.1-1.9,4.1-3.9,6.1-6c3.3-3.4,6.6-6.9,10.3-10
			c4.2-3.6,8.9-6.5,14.1-8.4c7.9-3,15.6-2.8,23.2,0.9c5.6,2.8,9.5,7.4,12,13.1c2.2,5.1,2.6,10.4,2.2,15.8c-0.3,4.9-1.4,9.6-2.7,14.3
			c-1.5,5.4-3.2,10.7-4.7,16.1c-1.9,6.7-3.1,13.5-3.4,20.5c-0.3,5.7,0.6,11.2,2.3,16.6c1.3,4.1,2.8,8.2,4.2,12.4
			c0.6,1.7,1.1,3.5,1.5,5.3c0.2,0.6,0.4,1.1,0.8,1.6c2.4,3.2,4.8,6.3,6.6,9.9c2,3.9,3,8.1,3.4,12.4c1,11.4-2.1,21.8-8.1,31.5
			c-3.7,6-8.4,11.1-13.5,15.9c-5.5,5.2-11.4,9.8-17.7,14.1c-5,3.3-9.8,6.9-14.1,11c-2.1,2-4,4.1-5.6,6.4c-2,3-3.2,6.3-3,9.9
			c0.2,3.8,1.6,6.9,4.8,9.1c0.5,0.4,1,0.7,1.5,1.1c0.7,0.6,0.8,1,0.5,1.6c-0.4,0.9-1.2,1.4-1.9,1.3c-0.3-0.1-0.6-0.2-0.9-0.3
			c-3.2-2.2-6-4.8-7.4-8.5c-1.1-2.7-1.1-5.5-0.7-8.4c0.7-4.3,2.4-8.1,5-11.5c3.3-4.3,7.1-8,11.2-11.4c1.9-1.6,3.9-3,5.8-4.5
			c5.6-4.3,11.2-8.4,16.7-12.8c5.7-4.5,10.7-9.9,14.6-16.1c3.5-5.5,5.9-11.5,6.5-18.1c0.5-4.4-0.1-8.8-1.5-13
			c-0.5-1.5-1.1-3-1.7-4.6c-0.1-0.2-0.2-0.3-0.4-0.6c-0.1,0.5-0.1,0.9-0.2,1.2c-1.1,8.5-3.5,16.5-7.8,24c-3,5.3-6.8,10-11.2,14.3
			c-5.3,5.2-11.2,9.7-17.4,13.8c-4,2.6-8,5.2-12,7.8c-0.8,0.5-1.1,1.1-1.2,2c-0.4,2.9-0.7,5.9-1.3,8.7c-1.2,6.3-4.2,11.6-9,16
			c-2.8,2.5-6,4.3-9.5,5.5c-2.3,0.8-4.6,1.3-6.9,2c-0.5,0.1-0.8,0.3-0.9,0.8c-0.9,2.4-1.5,4.9-1.9,7.4c-0.5,2.9-0.9,5.8-0.7,8.8
			c0.2,3.4,1.1,6.6,2.6,9.7c0.5,0.9,1,1.8,1.4,2.7c0.8,1.7,0.4,3-1.3,3.8c-1,0.5-2,0.3-2.7-0.6c0-0.1-0.1-0.1-0.1-0.2
			c-2.5-4-4.6-8-5-12.8c-0.3-3.7,0.1-7.5,1-11.1c0.7-2.5,1.5-4.9,2.3-7.3c0.1-0.3,0.2-0.6,0.3-1c-0.4-0.1-0.7-0.1-1.1-0.1
			c-1.8-0.4-3.7-0.7-5.5-1.1c-0.5-0.1-1.1-0.4-1.5-0.7c-0.9-0.6-1.2-1.4-0.8-2.5c0.4-1,1.2-1.6,2.3-1.3c0.8,0.2,1.5,0.4,2.2,0.6
			c1.7,0.5,3.5,0.7,5.3,0.6c0.8-0.1,1.2-0.3,1.6-1.1c3.7-7.5,8.4-14.4,14-20.6c2.8-3.1,5.8-5.9,8.9-8.7c0.5-0.5,0.8-1,0.9-1.7
			c0.6-4.7,1.4-9.4,2.7-13.9c2-6.9,5.2-13.3,9.2-19.3c0.6-0.9,1.3-1.9,1.9-2.8c0,0,0-0.1,0-0.3c-0.5,0-1,0-1.5,0
			c-1.5-0.1-2.9-0.4-4.2-1c-2.2-1.2-2.4-3.7-0.2-5c0.7-0.5,1.6-0.8,2.3-1.1c-0.5-1.2-1.1-2.4-1.6-3.7c-0.2-0.6-0.2-1.4-0.1-2.1
			c0.3-2,1.9-3.1,3.9-2.8c0.8,0.1,1.6,0.5,2.4,0.7c0.4,0.1,0.8,0.3,1.2,0.6c0-0.6,0-1,0.1-1.5c0.2-1.5,0.4-2.9,0.7-4.3
			c0.4-1.4,1.2-2.6,2.5-3.4c1.8-1.2,3.7-0.9,5.1,0.6c0.9,0.9,1.4,2.1,1.7,3.3c0.1,0.4,0.1,0.8,0.2,1.3c0.4-0.2,0.7-0.4,1.1-0.6
			c1.2-0.6,2.4-1.1,3.8-1.1c2.7,0.2,4.4,2.6,3.5,5.1c-0.3,0.8-0.8,1.6-1.3,2.3c-1.1,1.3-2.3,2.4-3.5,3.6c-0.2,0.2-0.5,0.5-0.8,0.8
			c0.7,0.1,1.2,0.2,1.8,0.4c1.4,0.3,2.7,0.8,3.8,1.7c1.9,1.6,1.7,3.7-0.5,5c-0.8,0.5-1.8,0.7-2.7,0.8c-0.7,0.1-1.5,0.1-2.3,0.2
			c0.3,0.5,0.5,0.8,0.8,1.2c0.6,1,1,2,0.9,3.2c-0.2,2.9-2.9,4.6-5.6,3.5c-1.1-0.4-2-1.2-2.7-2.1c-0.9-1.2-1.6-2.5-2.4-3.7
			c-0.2-0.3-0.3-0.6-0.6-1c-3.6,5.3-6.5,10.8-9.1,16.5c-2.1,4.6-3.3,9.5-4.2,14.7c0.3-0.2,0.4-0.3,0.6-0.4
			c6.1-4.9,12.1-9.8,18.1-14.8c3.9-3.2,7.6-6.7,10.9-10.6c6.6-7.7,10.1-16.7,11.2-26.7c0.5-4.3,0.4-8.6,0-12.8
			c-0.1-1.4-0.3-2.8-0.5-4.2c-0.1-0.5-0.3-1.1-0.7-1.5c-3.8-5.5-7.6-11-11.5-16.5c-3.4-4.8-6.6-9.6-9.2-14.9c-2.2-4.5-4-9.1-5.2-14
			c-1.1-4.3-1.2-8.8-0.7-13.2c0.4-3.9,1.2-7.8,2.6-11.5c0.1-0.1,0.1-0.3,0.1-0.4c0-0.1,0-0.1,0-0.2c-0.9,0.3-1.8,0.7-2.7,1
			c-1.1,0.4-2.3,0.5-3.5,0.4c-1.2-0.1-2.2-0.6-3-1.4c-1.1-1.1-1.2-2.3-0.2-3.5c0.5-0.6,1.1-1.1,1.7-1.7c-0.2-0.2-0.5-0.4-0.7-0.7
			c-0.9-0.9-1.6-1.9-1.9-3.1c-0.4-2.3,1-4,3.4-4c1.5,0,2.8,0.4,4.1,1.1c0.3,0.2,0.7,0.3,1.2,0.6c-0.1-0.3-0.2-0.5-0.3-0.7
			c-0.5-1-1.1-2.1-1.5-3.1c-0.5-1.1-0.7-2.3-0.5-3.5c0-0.4,0.1-0.8,0.3-1.2c0.7-2.1,2.8-2.8,4.5-1.3c0.9,0.8,1.6,1.8,2.3,2.7
			c0.4,0.5,0.6,1.1,1,1.7c0.2-0.3,0.4-0.5,0.6-0.8c0.9-1.3,1.9-2.4,3.4-3.1c0.2-0.1,0.4-0.2,0.6-0.3c1.5-0.5,2.9-0.5,4.2,0.6
			c1.2,1.1,1.4,2.5,1,4c-0.2,0.9-0.7,1.8-1.2,2.6c-0.6,1-1.4,1.9-2.1,2.9c-0.2,0.2-0.4,0.5-0.6,0.8c1.3-0.1,2.5-0.2,3.8-0.2
			c1.3,0,2.7,0.3,3.9,0.9c1.8,0.9,2.3,2.7,1.1,4.4c-0.7,1.1-1.8,1.7-3,2.1c-1,0.3-1.9,0.6-3,0.9c0.2,0.2,0.3,0.4,0.5,0.6
			c0.8,0.9,1.5,1.8,2,3c0.3,0.8,0.4,1.6,0.3,2.4c-0.2,2-1.8,3.3-3.8,3.2c-0.9,0-1.8-0.3-2.6-0.8c-1.8-1-3.4-2.3-4.6-3.9
			c-0.2-0.2-0.4-0.5-0.6-0.8c-0.1,0.2-0.2,0.3-0.2,0.4c-1.1,4.7-1.8,9.4-1.8,14.3c-0.1,7.2,1.6,13.9,4.9,20.3
			c3.1,6,6.9,11.6,11,16.9c1.1,1.5,2.3,3,3.4,4.4c0.1,0.2,0.3,0.4,0.6,0.7c0-0.5,0-0.7-0.1-0.9c-0.5-2.4-1-4.7-1.5-7.1
			c-2-9.5-2-19,0.1-28.5c1.3-5.8,2.7-11.6,4.1-17.3c1.1-4.6,2.1-9.3,2.5-14.1c0.3-3.6,0-7.2-0.8-10.8c-1.7-7.6-8.5-16.9-21-17.3
			c-6.7-0.2-12.7,1.8-18.2,5.4c-3.3,2.2-6.3,4.9-9.2,7.7c-1.9,1.9-3.7,3.9-5.6,5.7c-2.4,2.4-4.9,4.6-7.8,6.4
			c-3.3,2-6.8,3.2-10.7,3.2c-4.4,0-8.1-1.5-11.2-4.6c-1.2-1.2-2.1-2.6-3.2-3.9c-0.2-0.3-0.4-0.6-0.7-1c-0.1,0.4-0.1,0.7-0.2,1
			c-0.2,2.2-0.7,4.3-1.6,6.3c-0.3,0.6-0.6,1.3-1,1.8c-1.3,1.8-3.3,2.4-5.4,1.7c-2.2-0.8-3.6-2.3-4.2-4.5c-0.4-1.3-0.4-2.7-0.2-4.1
			C254.6,129.9,254.8,129.3,254.9,128.5z M287.1,323.6c5.6-1.9,10.1-5.3,13.4-10.2c2.4-3.6,5.2-11.1,4.9-13.2
			C297.2,306.3,291.9,314.8,287.1,323.6z"/>
	</g>
	<g>
		<path class="st55" d="M228.4,152.4c-1,0.9-1.8,1.9-2.7,2.6c-1.9,1.5-4,1.5-6.2,0.4c-2.3-1.2-2.8-3.5-1.3-5.6
			c0.5-0.7,1.2-1.4,1.8-2c0.2-0.2,0.4-0.4,0.6-0.6c-0.8-0.2-1.4-0.3-2.1-0.6c-0.6-0.2-1.1-0.5-1.6-0.8c-1.6-1.2-1.5-3.3,0.1-4.5
			c1.1-0.7,2.3-0.9,3.5-0.8c1,0.1,1.9,0.3,3,0.5c-0.4-0.9-0.7-1.8-1.1-2.6c-0.6-1.4-0.8-2.8-0.3-4.2c0.2-0.6,0.5-1.1,0.8-1.6
			c1.2-1.5,3-1.6,4.3-0.3c0.4,0.4,0.7,0.9,1.1,1.3c0.3,0.4,0.5,0.8,0.9,1.3c0.3-0.3,0.5-0.5,0.7-0.8c1.2-1.2,2.5-2.2,4.2-2.6
			c1.1-0.2,2.2-0.1,3.3,0.5c1.5,0.8,2.1,2.2,1.6,3.8c-0.3,0.8-0.7,1.7-1.3,2.4c-0.9,1.1-2,2.1-3,3.1c-0.3,0.3-0.7,0.6-1.1,1
			c0.4,0.1,0.6,0.2,0.9,0.3c1.9,0.4,3.6,1.3,5.1,2.6c1.1,1.1,1.2,2.7,0,3.7c-0.5,0.4-1.1,0.7-1.6,1c-0.3,0.2-0.6,0.2-1,0.4
			c0.3,0.4,0.5,0.8,0.7,1.2c0.9,1.6,0.7,3.4-0.6,4.5c-1.4,1.3-3.2,1.5-4.7,0.5c-1-0.7-1.9-1.7-2.8-2.6
			C229.3,153.6,228.9,153,228.4,152.4z"/>
		<path class="st55" d="M303.8,360.4c-1-0.1-1.9-0.2-2.7-0.4c-1.7-0.5-2.6-1.7-3-3.4c-0.3-1.8,0.7-3.2,2.6-3.2c0.7,0,1.3,0.1,2,0.1
			c0.2,0,0.4,0,0.6,0.1c-0.2-0.5-0.5-1-0.6-1.5c-0.1-0.4-0.2-0.8-0.2-1.3c0-1.4,1.3-2.3,2.6-1.9c0.9,0.3,1.5,0.9,2,1.7
			c0.3,0.6,0.7,1.3,1,2c0.4-0.6,0.7-1.2,1-1.8c0.5-0.9,1.2-1.7,2.3-2.1c0.4-0.1,0.8-0.2,1.3-0.2c1.4,0,2.2,1,2.1,2.4
			c0,0.4-0.2,0.8-0.3,1.2c-0.1,0.3-0.2,0.7-0.4,1.1c0.3,0,0.5,0.1,0.8,0.1c1.2,0.1,2.4,0.5,3.4,1.3c0.6,0.6,1,1.2,1.2,2.1
			c0.2,1.2-0.4,2.2-1.5,2.6c-0.6,0.2-1.3,0.3-1.9,0.3c-1,0-2.1-0.2-3.1-0.4c-0.3,0-0.6-0.1-1.1-0.2c0.1,0.3,0.2,0.5,0.3,0.6
			c0.6,1.3,0.9,2.7,0.7,4.1c-0.1,1.1-1,1.8-2.1,1.6c-0.4-0.1-0.9-0.3-1.3-0.5c-0.2-0.1-0.4-0.3-0.7-0.4c-0.1,0.3-0.2,0.7-0.4,1
			c-0.6,1.2-1.7,1.9-2.9,1.7c-1.4-0.2-2.3-1.1-2.4-2.5c0-0.9,0.1-1.8,0.2-2.7C303.5,361.4,303.7,360.9,303.8,360.4z"/>
		<path class="st55" d="M293.1,90.9c-0.8-1.1-1.6-2-2.3-3.1c-0.6-0.8-0.9-1.6-1-2.6c-0.1-1,0.1-2,1-2.6c0.9-0.6,1.8-0.5,2.7-0.1
			c0.6,0.3,1.1,0.7,1.6,1.1c0.4,0.3,0.8,0.7,1.3,1.2c0.2-0.3,0.3-0.5,0.4-0.7c0.8-1.5,2.1-2.6,3.7-3.1c0.6-0.2,1.3-0.3,2-0.2
			c1.6,0.2,2.7,1.5,2.6,3.2c-0.1,1.2-0.5,2.3-1.1,3.4c-0.6,1-1.2,1.9-1.8,3c0.6-0.2,1-0.3,1.4-0.4c1.1-0.3,2.1-0.4,3.2-0.2
			c1,0.2,1.8,0.8,2.1,1.9c0.3,1.1-0.1,2-0.9,2.6c-0.7,0.5-1.4,0.9-2.1,1.4c0.4,0.4,0.9,0.9,1.3,1.3c0.6,0.7,1,1.4,1.3,2.3
			c0.6,2.3-1.8,4.6-4,4.1c-0.8-0.2-1.5-0.5-2.2-1c-1-0.7-1.8-1.6-2.7-2.4c-0.3-0.2-0.5-0.5-0.8-0.8c-0.2,0.4-0.3,0.7-0.4,1
			c-0.4,1.1-1,2.2-1.9,3c-0.5,0.5-1.1,0.9-1.7,1.2c-2,1-4.3-0.2-4.8-2.5c-0.3-1.4,0.1-2.6,0.7-3.9c0.2-0.4,0.5-0.8,0.8-1.3
			c-0.6-0.1-1.1-0.1-1.5-0.2c-0.6-0.2-1.3-0.3-1.9-0.6c-1.3-0.8-1.5-2.2-0.5-3.4c1.1-1.2,2.5-1.6,4.1-1.6
			C292,90.8,292.5,90.9,293.1,90.9z"/>
		<path class="st55" d="M71,245.4c0.3-1.1,0.6-2.2,1-3.3c0.3-0.8,0.7-1.5,1.3-2.1c0.7-0.6,1.5-1,2.4-0.6c0.9,0.3,1.3,1,1.5,1.9
			c0.1,0.6,0.1,1.1,0,1.7c0,0.5-0.1,1-0.1,1.6c0.3,0,0.5,0,0.8-0.1c1.5-0.2,2.9,0.2,4.2,1.1c0.5,0.3,0.9,0.8,1.2,1.3
			c0.7,1.3,0.3,2.7-0.9,3.5c-0.9,0.6-1.9,0.9-3,1c-1,0.1-2,0.1-3.1,0.2c0.4,0.3,0.7,0.6,1,0.8c0.8,0.6,1.4,1.3,1.8,2.2
			c0.4,0.9,0.4,1.7-0.3,2.5c-0.6,0.8-1.5,1-2.4,0.7c-0.7-0.2-1.4-0.5-2.1-0.8c-0.1,0.6-0.2,1.1-0.3,1.6c-0.2,0.8-0.5,1.5-1,2.1
			c-1.4,1.6-4.3,1.1-5-0.8c-0.3-0.7-0.4-1.4-0.4-2.1c0-1.1,0.2-2.1,0.3-3.2c0-0.3,0.1-0.6,0.2-1c-0.4,0.1-0.7,0.1-1,0.2
			c-1,0.3-2.1,0.4-3.2,0.2c-0.6-0.1-1.2-0.3-1.8-0.6c-1.8-1-2.1-3.3-0.7-4.7c0.9-0.9,2-1.3,3.2-1.5c0.4-0.1,0.8-0.1,1.4-0.2
			c-0.2-0.5-0.5-0.8-0.6-1.2c-0.2-0.5-0.5-1.1-0.5-1.7c-0.1-1.4,0.8-2.3,2.2-2.2c1.5,0.1,2.5,1,3.3,2.1
			C70.4,244.6,70.7,245,71,245.4z"/>
	</g>
	<g>
		<path class="st54" d="M102.2,106.4c-0.5,2.4-3.2,3.7-5.6,2.8c-0.6-0.2-1.1-0.6-1.6-0.9c-1.8-1.4-2.2-3.8-0.9-5.7
			c1.3-1.9,3.8-2.6,5.8-1.5C101.8,102.3,102.7,104.3,102.2,106.4z"/>
		<path class="st54" d="M206.3,131.7c1.9,0.6,3.1,1.6,3.4,3.5c0.3,1.8-0.5,3.2-2,4.1c-1.5,1-3.2,1.1-4.8,0.1
			c-1.4-0.9-2.1-2.2-2.3-3.8c-0.2-1.4,0.4-2.5,1.6-3.2C203.5,131.6,205,131.4,206.3,131.7z"/>
		<path class="st54" d="M79.7,183.2c-2.4-0.6-3.8-3-3.2-5.1c0.6-2.2,2.9-3.5,5.1-2.9c2.6,0.7,3.4,2.8,2.9,5.4
			C84.1,182.6,81.9,183.8,79.7,183.2z"/>
		<path class="st54" d="M325.9,96.2c0,0.4,0.1,0.8,0.1,1.3c0.1,2.2-1.7,4-3.9,4c-1.4,0-2.7-0.6-3.6-1.6c-0.8-0.9-1-2-0.8-3.1
			c0.5-2.3,2.9-3.9,5.2-3.6C324.6,93.4,325.6,94.5,325.9,96.2z"/>
		<path class="st54" d="M172,352.9c-0.5,1.8-2.1,3.2-3.8,3.3c-1.6,0.1-3.4-1-4.1-2.6c-0.7-1.6-0.4-3,0.7-4.1c0.7-0.6,1.6-1,2.5-1
			c1.4,0.1,2.7,0.6,3.8,1.6C171.9,351,172.1,352,172,352.9z"/>
		<path class="st54" d="M137.9,311.6c-0.5,1.9-2.5,3-4.7,2.4c-2.3-0.6-3.7-2.6-3.1-4.8c0.5-2.2,2.6-3.3,4.9-2.7
			C137.1,307.1,138.5,309.5,137.9,311.6z"/>
		<path class="st54" d="M343,219.5c1.9-0.4,3.2,0.2,4.1,1.4c0.9,1.2,1,2.6,0.2,3.8c-0.4,0.7-0.9,1.4-1.5,2c-1.1,0.9-2.3,1.2-3.6,0.5
			c-1.4-0.6-2.2-1.7-2.4-3.2C339.6,221.8,341.2,219.8,343,219.5z"/>
		<path class="st54" d="M165.6,97.1c0.4-1.7,1.5-2.7,2.9-2.8c1.4-0.1,2.8,0.6,3.4,2c0.2,0.6,0.5,1.2,0.5,1.8c0,1.5-1,2.7-2.5,3.2
			c-1.4,0.4-2.8-0.1-3.6-1.5C165.7,98.8,165.5,97.8,165.6,97.1z"/>
	</g>
</g>
</svg>
