<?xml version="1.0" encoding="utf-8"?>
<!-- Generator: Adobe Illustrator 21.1.0, SVG Export Plug-In . SVG Version: 6.00 Build 0)  -->
<svg version="1.1" id="Calque_1" xmlns="http://www.w3.org/2000/svg" xmlns:xlink="http://www.w3.org/1999/xlink" x="0px" y="0px"
	 viewBox="0 0 432 432" style="enable-background:new 0 0 432 432;" xml:space="preserve">
<style type="text/css">
	.st0{fill:#3B4F20;}
	.st1{fill:#8CB225;}
	.st2{fill:#020203;}
	.st3{fill:#4A5C2D;}
	.st4{fill:#FFFFFF;}
	.st5{fill:#E2CF1B;}
	.st6{fill:#718A2A;}
	.st7{fill:#DFBB20;}
	.st8{fill:#EAC839;}
	.st9{fill:#1B1B1B;}
	.st10{fill:#8EC045;}
	.st11{fill:#066938;}
	.st12{fill:#E5AD30;}
	.st13{fill:#4E4D4D;}
	.st14{fill:#8BB226;}
	.st15{fill:#CD1A25;}
	.st16{fill:#4B6426;}
	.st17{fill:#7D9E3C;}
	.st18{fill:#3C4F20;}
	.st19{fill:#384A1F;}
	.st20{fill:#E7E6E6;}
	.st21{fill:#D4A624;}
	.st22{fill:#F7F0E3;}
	.st23{fill:#D2A206;}
	.st24{fill:#CE9835;}
	.st25{fill:#E5D9C2;}
	.st26{fill:#E2AE42;}
	.st27{fill:#EEDBBE;}
	.st28{fill:#F9EA31;}
	.st29{fill:#EB6518;}
	.st30{fill:#0A7132;}
	.st31{fill:#FFE109;}
	.st32{fill:#D76013;}
	.st33{fill:#BBA763;}
	.st34{fill:#7FA22A;}
	.st35{fill:#5B321B;}
	.st36{fill:#4A2615;}
	.st37{fill:#D6AD08;}
	.st38{fill:#F7BBBD;}
	.st39{fill:#D76324;}
	.st40{fill:#607829;}
	.st41{fill:#715C3B;}
	.st42{fill:#644F34;}
	.st43{fill:#89704C;}
	.st44{fill:#B2A38F;}
	.st45{fill:#A59076;}
	.st46{fill:#FFDE0D;}
	.st47{fill:#34AA4A;}
	.st48{fill:#75388D;}
	.st49{fill:#BBBBBB;}
	.st50{fill:#A9A9AA;}
	.st51{fill:#06993B;}
	.st52{fill:#CDCCCC;}
	.st53{fill:#4D2563;}
	.st54{fill:#E3B320;}
	.st55{fill:#0B9541;}
	.st56{fill:#264D23;}
	.st57{fill:#FDC834;}
	.st58{fill:#8C633A;}
	.st59{fill:#B5A059;}
	.st60{fill:#F2F2F2;}
	.st61{fill:#808181;}
	.st62{fill:#62A930;}
	.st63{fill:#A1C746;}
	.st64{fill:#85B04B;}
	.st65{fill:#5E802C;}
	.st66{fill:#BFD783;}
	.st67{fill:#EFC9AF;}
	.st68{fill:#343434;}
	.st69{fill:#EB5B28;}
	.st70{fill:#D1A98D;}
	.st71{fill:#E0A9B8;}
	.st72{fill:#754D24;}
	.st73{fill:#B2D17B;}
	.st74{fill:#62B338;}
	.st75{fill:#274E22;}
	.st76{fill:#CCDC81;}
	.st77{fill-rule:evenodd;clip-rule:evenodd;fill:#85B04B;}
	.st78{fill:#509733;}
	.st79{fill:#203F1E;}
	.st80{fill:#20963A;}
	.st81{fill:#62246B;}
	.st82{fill:#FDCA02;}
	.st83{fill:#B4CD50;}
	.st84{fill:#5C792A;}
	.st85{fill:#C29347;}
	.st86{fill:#4D5C22;}
	.st87{fill:none;}
	.st88{fill:#E19C11;}
	.st89{fill:#E5C997;}
	.st90{fill:#009245;}
	.st91{fill:#48AE4D;}
	.st92{fill:#049348;}
	.st93{fill:#04683B;}
	.st94{fill:#F8AE4C;}
	.st95{fill:#C57B39;}
	.st96{fill:#231F20;}
	.st97{fill:#BC2333;}
	.st98{fill:#EF7A7B;}
	.st99{fill:#46AE51;}
	.st100{fill:#07924B;}
	.st101{fill-rule:evenodd;clip-rule:evenodd;fill:#231F20;}
	.st102{fill:#279A9A;}
	.st103{fill:#8E3189;}
	.st104{fill:#9F6E8E;}
	.st105{fill:#3C3C3B;}
	.st106{fill:#00A69C;}
	.st107{fill:#D5DB41;}
	.st108{fill:#E04542;}
	.st109{fill:#9F1F3B;}
	.st110{fill:#EB5C35;}
	.st111{fill:#F9B233;}
	.st112{fill:#008D36;}
	.st113{fill:#F39200;}
	.st114{fill:#F2D8BD;}
	.st115{fill:#3AAA35;}
	.st116{fill:#95C11F;}
	.st117{fill:#7F5FA5;}
	.st118{fill:#5FA55F;}
	.st119{fill:#A55F8F;}
	.st120{fill:#229538;}
	.st121{fill:#622369;}
	.st122{fill:#FCC804;}
	.st123{fill:#628FB8;}
	.st124{fill:#B2B2B2;}
	.st125{fill:#63B8A4;}
	.st126{fill:#FDCE6C;}
	.st127{fill:#C8DADC;}
	.st128{fill:#ED6B6E;}
	.st129{fill:#EC6365;}
	.st130{fill:#8FC14D;}
	.st131{fill:#FECE6C;}
	.st132{fill:#037132;}
	.st133{fill:#B5CD25;}
	.st134{fill:#137E35;}
	.st135{fill:#7DBA28;}
	.st136{fill:#50AE32;}
	.st137{fill:#04612D;}
	.st138{fill:#F0828B;}
	.st139{fill:#63348B;}
	.st140{fill:#CF75AC;}
	.st141{fill:#895B7E;}
	.st142{fill:#AD94C4;}
	.st143{fill:#C581AB;}
	.st144{fill:#D1BAB0;}
	.st145{fill:#EF7B7C;}
	.st146{fill:#F7C0C2;}
	.st147{fill:#4F1C31;}
	.st148{fill:#9C3760;}
	.st149{fill:#A8768F;}
	.st150{fill:#A04170;}
	.st151{fill:#6CB863;}
</style>
<g>
	<g>
		<g>
			<path class="st10" d="M313.8,132.6c-2,1.6-2.8,4-2.9,6.6c-1.7-2.5-4-4.6-7.1-4.5c-2.1,0-4.2,1.1-4.8,3.3c-0.5,2,0.4,3.8,1.7,5.2
				c-2.4,0.4-4.4,2-5.2,4.4c-0.6,1.9,0,3.7,1.8,4.7c1.9,1.1,4.3,1.4,6.6,1.1c-1.2,1.5-2,3.2-2.1,5.2c-0.1,2.4,1.2,5,3.8,5.4
				c2.1,0.3,3.8-0.8,5.1-2.3c0.7,2.3,2.4,4.2,4.9,4.7c2,0.4,3.7-0.4,4.5-2.3c1.6-3.8,0.1-8.7-2.3-12.3c2.9,1.6,5.4,4,7.5,6.5
				c1.8,2,4.4,4.9,4.7,7.8c-0.3,0.6-0.2,1.3,0.6,1.6c2.4,0.9,1.4-2.7,1-3.5c-2.7-5.8-7-10.6-12.3-14.1c4.2-0.9,8.5-3.4,10.3-7
				c0.8-1.8,0.6-3.6-1-4.9c-2-1.7-4.8-1.7-7.1-0.6c0.2-1.8-0.1-3.6-1.5-4.9C318.3,130.7,315.7,131.1,313.8,132.6z"/>
			<path class="st10" d="M130.4,157.4c-0.8-2.5-2.8-4-5.1-5.1c3-0.7,5.7-2,6.8-5c0.8-2,0.5-4.3-1.4-5.6c-1.7-1.2-3.7-1-5.5-0.3
				c0.4-2.4-0.2-4.9-2.2-6.5c-1.6-1.3-3.5-1.3-5-0.1c-1.8,1.4-2.9,3.5-3.5,5.8c-1-1.7-2.3-3-4.1-3.8c-2.2-1-5.1-0.7-6.4,1.6
				c-1.1,1.8-0.7,3.8,0.3,5.6c-2.4-0.2-4.8,0.8-6.1,2.8c-1.1,1.7-1,3.6,0.5,5.1c3,2.8,8.1,3.3,12.3,2.3c-2.6,2.1-5.7,3.5-8.7,4.7
				c-2.5,0.9-6.2,2.3-9,1.6c-0.4-0.5-1.1-0.7-1.7,0c-1.7,1.9,2,2.3,2.9,2.2c6.4-0.4,12.4-2.7,17.6-6.3c-0.7,4.2,0,9.2,2.8,12.1
				c1.3,1.4,3.2,1.9,4.9,0.9c2.3-1.3,3.3-3.9,3.1-6.4c1.6,0.9,3.4,1.2,5.1,0.4C130.5,162.2,131.1,159.6,130.4,157.4z"/>
			<path class="st10" d="M230.3,88.2c-0.8-2.5-2.8-4-5.1-5.1c3-0.7,5.7-2,6.8-5c0.8-2,0.5-4.3-1.4-5.6c-1.7-1.2-3.7-1-5.5-0.3
				c0.4-2.4-0.2-4.9-2.2-6.5c-1.6-1.3-3.5-1.3-5-0.1c-1.8,1.4-2.9,3.5-3.5,5.8c-1-1.7-2.3-3-4.1-3.8c-2.2-1-5.1-0.7-6.4,1.6
				c-1.1,1.8-0.7,3.8,0.3,5.6c-2.4-0.2-4.8,0.8-6.1,2.8c-1.1,1.7-1,3.6,0.5,5.1c3,2.8,8.1,3.3,12.3,2.3c-2.6,2.1-5.7,3.5-8.7,4.7
				c-2.5,0.9-6.2,2.3-9,1.6c-0.4-0.5-1.1-0.7-1.7,0c-1.7,1.9,2,2.3,2.9,2.2c6.4-0.4,12.4-2.7,17.6-6.3c-0.7,4.2,0,9.2,2.8,12.1
				c1.3,1.4,3.2,1.9,4.9,0.9c2.3-1.3,3.3-3.9,3.1-6.4c1.6,0.9,3.4,1.2,5.1,0.4C230.4,93.1,231,90.5,230.3,88.2z"/>
			<path class="st10" d="M122,285.6c-0.8-2.5-2.8-4-5.1-5.1c3-0.7,5.7-2,6.8-5c0.8-2,0.5-4.3-1.4-5.6c-1.7-1.2-3.7-1-5.5-0.3
				c0.4-2.4-0.2-4.9-2.2-6.5c-1.6-1.3-3.5-1.3-5-0.1c-1.8,1.4-2.9,3.5-3.5,5.8c-1-1.7-2.3-3-4.1-3.8c-2.2-1-5.1-0.7-6.4,1.6
				c-1.1,1.8-0.7,3.8,0.3,5.6c-2.4-0.2-4.8,0.8-6.1,2.8c-1.1,1.7-1,3.6,0.5,5.1c3,2.8,8.1,3.3,12.3,2.3c-2.6,2.1-5.7,3.5-8.7,4.7
				c-2.5,0.9-6.2,2.3-9,1.6c-0.4-0.5-1.1-0.7-1.7,0c-1.7,1.9,2,2.3,2.9,2.2c6.4-0.4,12.4-2.7,17.6-6.3c-0.7,4.2,0,9.2,2.8,12.1
				c1.3,1.4,3.2,1.9,4.9,0.9c2.3-1.3,3.3-3.9,3.1-6.4c1.6,0.9,3.4,1.2,5.1,0.4C122.1,290.5,122.7,287.9,122,285.6z"/>
			<path class="st10" d="M347,297.2c-0.8-2.5-2.8-4-5.1-5.1c3-0.7,5.7-2,6.8-5c0.8-2,0.5-4.3-1.4-5.6c-1.7-1.2-3.7-1-5.5-0.3
				c0.4-2.4-0.2-4.9-2.2-6.5c-1.6-1.3-3.5-1.3-5-0.1c-1.8,1.4-2.9,3.5-3.5,5.8c-1-1.7-2.3-3-4.1-3.8c-2.2-1-5.1-0.7-6.4,1.6
				c-1.1,1.8-0.7,3.8,0.3,5.6c-2.4-0.2-4.8,0.8-6.1,2.8c-1.1,1.7-1,3.6,0.5,5.1c3,2.8,8.1,3.3,12.3,2.3c-2.6,2.1-5.7,3.5-8.7,4.7
				c-2.5,0.9-6.2,2.3-9,1.6c-0.4-0.5-1.1-0.7-1.7,0c-1.7,1.9,2,2.3,2.9,2.2c6.4-0.4,12.4-2.7,17.6-6.3c-0.7,4.2,0,9.2,2.8,12.1
				c1.3,1.4,3.2,1.9,4.9,0.9c2.3-1.3,3.3-3.9,3.1-6.4c1.6,0.9,3.4,1.2,5.1,0.4C347.1,302,347.8,299.4,347,297.2z"/>
			<path class="st10" d="M226.4,354.8c-0.8-2.5-2.8-4-5.1-5.1c3-0.7,5.7-2,6.8-5c0.8-2,0.5-4.3-1.4-5.6c-1.7-1.2-3.7-1-5.5-0.3
				c0.4-2.4-0.2-4.9-2.2-6.5c-1.6-1.3-3.5-1.3-5-0.1c-1.8,1.4-2.9,3.5-3.5,5.8c-1-1.7-2.3-3-4.1-3.8c-2.2-1-5.1-0.7-6.4,1.6
				c-1.1,1.8-0.7,3.8,0.3,5.6c-2.4-0.2-4.8,0.8-6.1,2.8c-1.1,1.7-1,3.6,0.5,5.1c3,2.8,8.1,3.3,12.3,2.3c-2.6,2.1-5.7,3.5-8.7,4.7
				c-2.5,0.9-6.2,2.3-9,1.6c-0.4-0.5-1.1-0.7-1.7,0c-1.7,1.9,2,2.3,2.9,2.2c6.4-0.4,12.4-2.7,17.6-6.3c-0.7,4.2,0,9.2,2.8,12.1
				c1.3,1.4,3.2,1.9,4.9,0.9c2.3-1.3,3.3-3.9,3.1-6.4c1.6,0.9,3.4,1.2,5.1,0.4C226.6,359.6,227.2,357,226.4,354.8z"/>
		</g>
		<g>
			<path class="st11" d="M111.6,199.8c-2.6,0-4.6,1.5-6.4,3.4c0.2-3.1-0.3-6-2.8-8c-1.7-1.3-4-1.7-5.8-0.3c-1.6,1.3-2.1,3.3-1.8,5.2
				c-2.1-1.1-4.7-1.2-6.8,0.2c-1.7,1.1-2.2,2.9-1.5,4.8c0.8,2.1,2.5,3.8,4.5,5c-1.9,0.5-3.6,1.3-4.8,2.8c-1.6,1.8-2.1,4.7-0.3,6.5
				c1.4,1.5,3.5,1.7,5.4,1.3c-0.8,2.2-0.6,4.8,0.9,6.7c1.3,1.6,3.2,2,5,0.9c3.5-2,5.5-6.8,5.8-11.1c1.3,3,1.7,6.5,1.9,9.7
				c0.2,2.7,0.4,6.6-1.1,9.1c-0.6,0.2-1,0.9-0.5,1.6c1.3,2.1,2.7-1.3,2.9-2.2c1.5-6.2,1.1-12.7-1-18.7c3.9,1.9,8.8,2.6,12.4,0.8
				c1.8-0.9,2.7-2.5,2.3-4.5c-0.6-2.6-2.8-4.3-5.2-4.8c1.3-1.3,2.2-2.9,1.9-4.8C116.3,201.1,114,199.7,111.6,199.8z"/>
			<path class="st11" d="M328.4,210.9c-2,1.6-2.8,4-2.9,6.6c-1.7-2.5-4-4.6-7.1-4.5c-2.1,0-4.2,1.1-4.8,3.3c-0.5,2,0.4,3.8,1.7,5.2
				c-2.4,0.4-4.4,2-5.2,4.4c-0.6,1.9,0,3.7,1.8,4.7c1.9,1.1,4.3,1.4,6.6,1.1c-1.2,1.5-2,3.2-2.1,5.2c-0.1,2.4,1.2,5,3.8,5.4
				c2.1,0.3,3.8-0.8,5.1-2.3c0.7,2.3,2.4,4.2,4.9,4.7c2,0.4,3.7-0.4,4.5-2.3c1.6-3.8,0.1-8.7-2.3-12.3c2.9,1.6,5.4,4,7.5,6.5
				c1.8,2,4.4,4.9,4.7,7.8c-0.3,0.6-0.2,1.3,0.6,1.6c2.4,0.9,1.4-2.7,1-3.5c-2.7-5.8-7-10.6-12.3-14.1c4.2-0.9,8.5-3.4,10.3-7
				c0.8-1.8,0.6-3.6-1-4.9c-2-1.7-4.8-1.7-7.1-0.6c0.2-1.8-0.1-3.6-1.5-4.9C332.9,209.1,330.3,209.4,328.4,210.9z"/>
			<path class="st11" d="M308.3,340.5c-0.5-1.7-1.9-2.7-3.4-3.4c2-0.5,3.8-1.4,4.6-3.3c0.5-1.3,0.3-2.9-0.9-3.8
				c-1.1-0.8-2.5-0.7-3.7-0.2c0.3-1.6-0.2-3.3-1.5-4.3c-1-0.9-2.3-0.9-3.4,0c-1.2,0.9-1.9,2.3-2.3,3.9c-0.7-1.1-1.5-2-2.7-2.6
				c-1.5-0.7-3.4-0.4-4.3,1.1c-0.7,1.2-0.4,2.6,0.2,3.7c-1.6-0.1-3.2,0.5-4.1,1.9c-0.8,1.2-0.6,2.4,0.4,3.4c2,1.9,5.4,2.2,8.3,1.6
				c-1.7,1.4-3.8,2.4-5.9,3.1c-1.7,0.6-4.2,1.6-6,1.1c-0.3-0.3-0.7-0.5-1.1,0c-1.1,1.3,1.3,1.5,2,1.5c4.3-0.3,8.4-1.8,11.8-4.3
				c-0.5,2.9,0,6.2,1.9,8.1c0.9,1,2.1,1.3,3.3,0.6c1.5-0.9,2.2-2.6,2.1-4.3c1.1,0.6,2.3,0.8,3.4,0.3
				C308.4,343.8,308.8,342.1,308.3,340.5z"/>
			<path class="st11" d="M126.8,310.2c-1.6,0.8-2.4,2.2-2.9,3.9c-0.8-1.9-1.9-3.6-4-4c-1.4-0.3-2.9,0.1-3.6,1.5
				c-0.6,1.2-0.3,2.6,0.4,3.7c-1.6,0-3.2,0.6-4.1,2.1c-0.7,1.2-0.5,2.4,0.5,3.4c1.1,1,2.6,1.5,4.2,1.7c-1,0.8-1.8,1.8-2.1,3.1
				c-0.4,1.6,0.1,3.4,1.7,4.1c1.3,0.5,2.6,0,3.7-0.8c0.1,1.6,1,3.1,2.5,3.8c1.3,0.6,2.5,0.3,3.3-0.9c1.6-2.3,1.3-5.7,0.3-8.4
				c1.6,1.5,2.9,3.4,4,5.3c0.9,1.6,2.2,3.9,2,5.8c-0.3,0.3-0.3,0.8,0.2,1.1c1.4,0.9,1.3-1.6,1.2-2.2c-0.9-4.2-3-8-6-11
				c2.9,0,6.1-1,7.7-3.1c0.8-1,0.9-2.3,0.1-3.4c-1.1-1.4-2.9-1.8-4.6-1.4c0.4-1.1,0.5-2.4-0.2-3.4
				C130.1,309.6,128.3,309.5,126.8,310.2z"/>
			<path class="st11" d="M138.4,82.8c-1.6,0.8-2.4,2.2-2.9,3.9c-0.8-1.9-1.9-3.6-4-4c-1.4-0.3-2.9,0.1-3.6,1.5
				c-0.6,1.2-0.3,2.6,0.4,3.7c-1.6,0-3.2,0.6-4.1,2.1c-0.7,1.2-0.5,2.4,0.5,3.4c1.1,1,2.6,1.5,4.2,1.7c-1,0.8-1.8,1.8-2.1,3.1
				c-0.4,1.6,0.1,3.4,1.7,4.1c1.3,0.5,2.6,0,3.7-0.8c0.1,1.6,1,3.1,2.5,3.8c1.3,0.6,2.5,0.3,3.3-0.9c1.6-2.3,1.3-5.7,0.3-8.4
				c1.6,1.5,2.9,3.4,4,5.3c0.9,1.6,2.2,3.9,2,5.8c-0.3,0.3-0.3,0.8,0.2,1.1c1.4,0.9,1.3-1.6,1.2-2.2c-0.9-4.2-3-8-6-11
				c2.9,0,6.1-1,7.7-3.1c0.8-1,0.9-2.3,0.1-3.4c-1.1-1.4-2.9-1.8-4.6-1.4c0.4-1.1,0.5-2.4-0.2-3.4C141.6,82.3,139.8,82.1,138.4,82.8
				z"/>
			<path class="st11" d="M293,87.8c-1.1-1.3-2.7-1.8-4.5-1.9c1.7-1.2,3-2.7,2.9-4.8c0-1.4-0.8-2.8-2.3-3.2c-1.4-0.3-2.6,0.3-3.5,1.3
				c-0.3-1.6-1.4-3-3-3.4c-1.3-0.4-2.5,0.1-3.1,1.3c-0.7,1.3-0.9,2.9-0.7,4.5c-1-0.8-2.2-1.3-3.5-1.3c-1.6,0-3.3,0.9-3.5,2.6
				c-0.2,1.4,0.6,2.6,1.6,3.4c-1.5,0.5-2.8,1.7-3.1,3.3c-0.3,1.4,0.3,2.5,1.6,3c2.6,1,5.9,0,8.2-1.7c-1,2-2.6,3.7-4.2,5.1
				c-1.3,1.2-3.2,3-5.2,3.3c-0.4-0.2-0.9-0.1-1,0.4c-0.5,1.6,1.8,0.9,2.4,0.6c3.9-1.9,7-4.9,9.3-8.5c0.6,2.8,2.4,5.7,4.9,6.8
				c1.2,0.5,2.5,0.3,3.3-0.7c1.1-1.4,1-3.3,0.3-4.8c1.2,0.1,2.4-0.1,3.3-1.1C294.3,90.8,294.1,89,293,87.8z"/>
		</g>
	</g>
	<g>
		<g>
			<path class="st9" d="M295.2,255.7c-2.3-11.5-15.7-20.7-26.3-12.6c-10.8,8.3-6.7,22.7,2.8,29.9c2.2,1.7,5.7,0.3,7-1.8
				c1.6-2.6,0.3-5.3-1.8-7c-2.5-2-4.6-5.3-4.2-8.6c0.4-2.8,2.7-5.6,5.7-5.3c8.5,1,7.5,13.5,6.2,19.3c-3.2,14.5-14.1,27.1-29.2,27.6
				c0.1-3.9-0.1-7.6-0.3-10.6c-2-25.1-7.3-34.9-8.1-46.8c36.6-15.8,52.3-59.5,30.4-94.2c0.8-5.5,4.4-44.3-0.3-42.4
				c-10.4,4.3-19.9,10.1-28.3,17.5c-33.1-15.4-58-1.7-60.3-2.1c-0.1,0-32.4-25.2-32.9-18.4c-2.3,30.4,2.9,40.1,0.6,44.6
				c-21.6,43-6.2,75.5,24,91.7c-5.8,17.8-10.4,36.6-10.3,55.5c0.1,13.1,2.6,22.5,6.2,28.3c-4.4,1.9-3.8,9.9,2.1,9.9
				c1.3,0,2.3-0.4,3.1-1c0.6,1.8,2.2,3.3,4.7,3.3c2.7,0,4.3-1.7,4.8-3.7c0.5,0.2,1.1,0.3,1.8,0.3c5.2,0,6.3-6.4,3.3-9.1
				c0.1-0.3,0.3-0.6,0.4-0.9c7.3,1.5,15.1,1.5,22.4,0.7c3-0.3,5.9-1,8.5-2.2c0.6,1.6,1.2,3.1,2,4.5c-2.1,3-0.8,8.3,4,8.3
				c1.1,0,2-0.3,2.7-0.7c0.2,0.1,0.4,0.2,0.6,0.3c0.6,1.8,2.2,3.3,4.7,3.3c2.7,0,4.3-1.7,4.8-3.7c0.3,0.2,0.6,0.3,1,0.4
				c0.5,0.1,1,0.2,1.4,0.3c1.4,0.3,2.7,0.2,4-0.5c1.1-0.6,2.1-1.8,2.4-3.1c0.3-1.3,0.2-2.8-0.5-4c-0.5-0.8-1.2-1.5-2.1-2
				c1.5-3.8,2.4-8.4,2.9-13.1C279.9,307.5,300.1,280.1,295.2,255.7z"/>
			<g>
				<path class="st12" d="M183.4,120.3c-0.1,0.1-0.3,0.2-0.4,0.4c0-0.3-0.1-0.6-0.3-0.9c-6-6.5-13.4-11.1-21.9-13.5
					c-0.7-0.2-1.7,0.4-1.6,1.2c1.1,9.1,1.5,18.2,1.3,27.4c0,1.3,1.8,1.7,2.4,0.6c2.8-5,5.9-9.3,11.9-10.4c3.5-0.6,7.9-0.2,10.5-3
					C186.3,120.9,184.5,119.1,183.4,120.3z"/>
				<path class="st12" d="M252.4,123.7c0.1,0.1,0.2,0.2,0.4,0.3c0-0.3,0.1-0.6,0.3-0.8c5.6-6.1,12.6-10.4,20.5-12.7
					c0.7-0.2,1.6,0.4,1.5,1.2c-1,8.5-1.4,17.1-1.2,25.6c0,1.2-1.7,1.6-2.2,0.6c-2.7-4.7-5.5-8.7-11.1-9.7c-3.3-0.6-7.4-0.2-9.8-2.8
					C249.6,124.2,251.3,122.5,252.4,123.7z"/>
			</g>
		</g>
		<g>
			<g>
				<path class="st12" d="M189.5,151.4c-9.5,0-17.1,8-17.1,18s7.7,18,17.1,18c9.5,0,17.1-8,17.1-18S198.9,151.4,189.5,151.4z
					 M189.9,183.1c-5.8,0-10.6-6.1-10.6-13.7c0-7.6,4.7-13.7,10.6-13.7s10.6,6.1,10.6,13.7C200.5,176.9,195.7,183.1,189.9,183.1z"/>
				<g>
					<path class="st4" d="M188,168.1c1.6,0,3.5-0.4,3.5-2.5s-0.7-3.7-2.3-3.7s-3.5,1.7-3.5,3.7S186.4,168.1,188,168.1z"/>
					<path class="st4" d="M192.2,168.7c-2.1-0.8-5.4,0.5-6.4,3.2c-1,2.7-0.3,3.6,1.8,4.4s4.8,1.1,5.8-1.6
						C194.4,172,194.3,169.4,192.2,168.7z"/>
				</g>
				<g>
					<path class="st12" d="M242.5,150.5c-9.5,0-17.1,8-17.1,18s7.7,18,17.1,18c9.5,0,17.1-8,17.1-18S252,150.5,242.5,150.5z
						 M243,182.2c-5.8,0-10.6-6.1-10.6-13.7c0-7.6,4.7-13.7,10.6-13.7s10.6,6.1,10.6,13.7C253.5,176.1,248.8,182.2,243,182.2z"/>
					<g>
						<path class="st4" d="M241.1,167.3c1.6,0,3.5-0.4,3.5-2.5c0-2.1-0.7-3.7-2.3-3.7c-1.6,0-3.5,1.7-3.5,3.7
							C238.8,166.8,239.5,167.3,241.1,167.3z"/>
						<path class="st4" d="M245.3,167.8c-2.1-0.8-5.4,0.5-6.4,3.2c-1,2.7-0.3,3.6,1.8,4.4s4.8,1.1,5.8-1.6
							C247.5,171.1,247.4,168.6,245.3,167.8z"/>
					</g>
				</g>
			</g>
			<path class="st13" d="M236.8,200.1c-3.5-3.6-8.4-4.3-13.1-3.5c0.1-0.2,0.1-0.5,0.1-0.7c0-3.3-4.8-2.6-8.6-2.6s-9.4-0.7-9.4,2.6
				c0,0.4,0.1,0.9,0.3,1.3c-4.1-0.5-8.3,0.3-11.4,3.4c-3,3.2-3.8,8.1-1.7,12c2.3,4.2,7,5.6,11.5,5.6c3.3,9.4,18.2,9.7,21.8,0.3
				c0-0.1,0.1-0.2,0.1-0.4c4.9,0.3,10.2-1,12.5-5.7C241.1,208.3,240,203.3,236.8,200.1z M195.1,210.9c-1.4-3.1-0.5-6.7,2-8.9
				c3.3-2.9,7.9-2.7,11.9-1.6c2,1.5,4.3,2.8,5.6,3.1c0.3,2.7,0.6,6-0.8,8.4c-1.5,2.6-4.8,3.4-7.6,3.7
				C202.1,216,197,215.1,195.1,210.9z M207.3,218C207.4,218,207.4,218,207.3,218c3.2-0.4,6.6-1.5,8.4-4.3c0.3-0.4,0.5-0.8,0.7-1.2
				c1.3,2.6,3.7,4.5,7.6,5.3c0,0,0,0,0,0C221.4,224.8,210.2,224.4,207.3,218z M237,210.6c-1.6,4.3-6.4,5.3-10.5,5
				c-2.9-0.2-6.4-0.9-8-3.7c-1.5-2.6-1.1-5.9-0.8-8.7c0-0.2,0-0.3,0-0.4c1.4-0.7,3-1.9,4.1-3.2c4.2-1.2,8.8-1.4,12.3,1.5
				C236.9,203.4,238.3,207.2,237,210.6z"/>
			<g>
				<g>
					<path class="st13" d="M302.6,193.6c-16.9,1.3-33.7,4.3-50,8.9c-1.4,0.4-0.8,2.6,0.6,2.2c16.1-4.6,32.7-7.6,49.4-8.9
						C304,195.8,304.1,193.5,302.6,193.6z"/>
					<path class="st13" d="M288,211c-11.3-1-22.5-1.7-33.8-2.2c-1.5-0.1-1.5,2.2,0,2.3c11.3,0.5,22.6,1.2,33.8,2.2
						C289.5,213.4,289.5,211.1,288,211z"/>
					<path class="st13" d="M278.5,229.3c-6.6-5-13.6-9.3-21.1-12.8c-1.3-0.6-2.5,1.4-1.2,2c7.5,3.5,14.5,7.8,21.1,12.8
						C278.5,232.2,279.6,230.2,278.5,229.3z"/>
				</g>
				<g>
					<path class="st13" d="M129.4,193.6c16.9,1.3,33.7,4.3,50,8.9c1.4,0.4,0.8,2.6-0.6,2.2c-16.1-4.6-32.7-7.6-49.4-8.9
						C128,195.8,127.9,193.5,129.4,193.6z"/>
					<path class="st13" d="M144,211c11.3-1,22.5-1.7,33.8-2.2c1.5-0.1,1.5,2.2,0,2.3c-11.3,0.5-22.6,1.2-33.8,2.2
						C142.5,213.4,142.5,211.1,144,211z"/>
					<path class="st13" d="M153.5,229.3c6.6-5,13.6-9.3,21.1-12.8c1.3-0.6,2.5,1.4,1.2,2c-7.5,3.5-14.5,7.8-21.1,12.8
						C153.5,232.2,152.4,230.2,153.5,229.3z"/>
				</g>
			</g>
		</g>
	</g>
</g>
</svg>
